<svg xmlns="http://www.w3.org/2000/svg" width="158.827" height="41.483" viewBox="0 0 158.827 41.483"><defs><style>.a{fill:none;stroke:#cbcbcb;stroke-linecap:round;stroke-width:2px;}.b{fill:#e6151a;}</style></defs><g transform="translate(2 1)"><rect class="a" width="39.483" height="156.827" rx="6" transform="translate(155.827) rotate(90)"/><g transform="translate(23.833 11.781)"><path class="b" d="M327.133,382.348c1.418-1.655,4.466-1.465,5.893.144.281-.194.557-.4.849-.583a4.453,4.453,0,0,1,4.7-.141,3.329,3.329,0,0,1,1.706,3.145c.031,2.1.018,4.2,0,6.3a1.644,1.644,0,0,1-1.329,1.652,1.615,1.615,0,0,1-1.843-.975,2.316,2.316,0,0,1-.147-.813c-.013-1.683,0-3.367-.01-5.05a3.172,3.172,0,0,0-.1-.789,1.541,1.541,0,0,0-3.02,0,3.515,3.515,0,0,0-.115.858c-.011,1.683,0,3.367-.006,5.051a1.619,1.619,0,0,1-1.5,1.728,1.6,1.6,0,0,1-1.8-1.565c-.05-.717-.023-1.439-.025-2.158,0-1.068.008-2.136-.008-3.2a2.957,2.957,0,0,0-.134-.852,1.539,1.539,0,0,0-1.563-1.091,1.614,1.614,0,0,0-1.457,1.374,3.221,3.221,0,0,0-.06.622q-.007,2.49,0,4.981a1.756,1.756,0,0,1-.832,1.69,1.651,1.651,0,0,1-2.494-1.47c-.016-2.717-.01-5.434,0-8.15a1.651,1.651,0,0,1,1.112-1.573,1.822,1.822,0,0,1,1.955.565C326.981,382.145,327.054,382.246,327.133,382.348Z" transform="translate(-298.383 -377.984)"/><path class="b" d="M565.792,391.98a5.936,5.936,0,0,1-.7.594,4.1,4.1,0,0,1-4.331,0,5.416,5.416,0,0,1-2.722-3.929,6.605,6.605,0,0,1,1.2-5.533,4.727,4.727,0,0,1,4.9-1.731,2.992,2.992,0,0,1,1.419.837,2.638,2.638,0,0,1,.2.267c.11-.153.174-.248.244-.339a1.642,1.642,0,0,1,1.819-.629,1.6,1.6,0,0,1,1.157,1.492c.025.358.022.719.023,1.078q0,3.429,0,6.858a3.114,3.114,0,0,1-.076.793,1.52,1.52,0,0,1-1.209,1.168,1.6,1.6,0,0,1-1.7-.627C565.939,392.185,565.868,392.083,565.792,391.98Zm-4.577-4.742a3.828,3.828,0,0,0,.38,1.567,1.907,1.907,0,0,0,1.9,1.152,1.971,1.971,0,0,0,1.836-1.217,3.522,3.522,0,0,0,.047-2.967,1.979,1.979,0,0,0-1.91-1.314,1.952,1.952,0,0,0-1.952,1.294A3.664,3.664,0,0,0,561.215,387.237Z" transform="translate(-474.307 -378.041)"/><path class="b" d="M401.723,382.437c.069-.089.126-.157.178-.23a1.635,1.635,0,0,1,1.892-.674,1.61,1.61,0,0,1,1.135,1.616q.006,4.022,0,8.044a1.65,1.65,0,0,1-3.07.944l-.094-.133c-.038,0-.071-.005-.081.006-1.417,1.734-4.477,1.417-6.129-.285a6.707,6.707,0,0,1,.425-9.407,4.521,4.521,0,0,1,4.217-.9A3.248,3.248,0,0,1,401.723,382.437Zm-.1,4.844a3.8,3.8,0,0,0-.231-1.351,2.1,2.1,0,0,0-4.016.013,3.522,3.522,0,0,0,.125,2.806,1.981,1.981,0,0,0,1.912,1.208,1.946,1.946,0,0,0,1.862-1.225A3.725,3.725,0,0,0,401.621,387.281Z" transform="translate(-351.002 -378.041)"/><path class="b" d="M446.454,388.209a1.669,1.669,0,0,0,1.068,1.484,3.942,3.942,0,0,0,3.242-.087c.372-.161.733-.351,1.106-.508a1.359,1.359,0,0,1,1.57.285,1.518,1.518,0,0,1,.24,1.627,2.746,2.746,0,0,1-1.327,1.232,7.267,7.267,0,0,1-2.522.748,6.633,6.633,0,0,1-3.746-.46,5.283,5.283,0,0,1-3.022-3.853,5.956,5.956,0,0,1,2.106-6.337,5.254,5.254,0,0,1,5.45-.8,5.175,5.175,0,0,1,3.274,4.264,6.011,6.011,0,0,1,.017,1.518.908.908,0,0,1-.832.815,4.578,4.578,0,0,1-.8.072c-1.81.006-3.621,0-5.431,0Zm4.168-2.325a2.076,2.076,0,0,0-4.14,0Z" transform="translate(-387.865 -377.945)"/><path class="b" d="M611.155,382.381c1.23-1.4,2.765-1.356,4.325-.971a3.272,3.272,0,0,1,2.573,3.239c.043,2.193.032,4.388.021,6.582a1.6,1.6,0,0,1-1.64,1.663,1.625,1.625,0,0,1-1.675-1.705c-.012-1.707,0-3.413-.007-5.12a2.821,2.821,0,0,0-.066-.69,1.705,1.705,0,0,0-1.845-1.357,1.728,1.728,0,0,0-1.639,1.643,5.163,5.163,0,0,0-.022.522c0,1.672,0,3.343,0,5.015a1.641,1.641,0,0,1-1.067,1.6,1.6,1.6,0,0,1-1.831-.47,3.194,3.194,0,0,1-.4-.907,1.536,1.536,0,0,1-.031-.484q0-3.8,0-7.593a2.927,2.927,0,0,1,.07-.689,1.512,1.512,0,0,1,1.213-1.206,1.75,1.75,0,0,1,1.829.657C611.028,382.191,611.083,382.279,611.155,382.381Z" transform="translate(-511.863 -377.993)"/><path class="b" d="M518.313,386.5a5.532,5.532,0,0,1,2.54-4.405,5.652,5.652,0,0,1,4.313-.741,6.553,6.553,0,0,1,1.7.582,1.56,1.56,0,0,1,.9,1.464,1.44,1.44,0,0,1-2.073,1.448,5.386,5.386,0,0,0-1.5-.385,2.179,2.179,0,0,0-2.465,1.861,3.513,3.513,0,0,0,.245,2.443,2.125,2.125,0,0,0,2.421,1.15,8.481,8.481,0,0,0,1.4-.383,1.277,1.277,0,0,1,1.662.428,1.481,1.481,0,0,1-.068,1.895,3.739,3.739,0,0,1-2.087,1.1,5.429,5.429,0,0,1-5.26-1.315C518.927,390.591,518.316,389,518.313,386.5Z" transform="translate(-444.566 -378.025)"/><path class="b" d="M493.891,398.446c.487,0,.975-.012,1.462,0a1.41,1.41,0,0,1,.013,2.819q-1.5.03-2.993,0a1.409,1.409,0,0,1-.013-2.817c.51-.019,1.021,0,1.531,0Z" transform="translate(-424.031 -390.969)"/><path class="b" d="M279.416,382.373a5.777,5.777,0,0,0-3.4,6.127,5.26,5.26,0,0,0,3.856,4.785,7.267,7.267,0,0,0,5.436-.612,3.407,3.407,0,0,0,.946-.75,1.425,1.425,0,0,0,.119-1.826,1.34,1.34,0,0,0-1.749-.336c-.477.211-.943.454-1.436.617a3.689,3.689,0,0,1-2.719-.1,1.649,1.649,0,0,1-1.037-1.493c1.436,0,2.815,0,4.194,0,.7,0,1.393.007,2.087-.037a1.032,1.032,0,0,0,1.081-1.12A5.254,5.254,0,0,0,279.416,382.373Zm.058,4.189a2.051,2.051,0,0,1,4.094,0Z" transform="translate(-262.41 -378.547)"/><path class="b" d="M226.929,368.354c-1.241.021-2.484,0-3.725,0a1.633,1.633,0,0,0-1.821,1.832q0,2.734,0,5.468c0,1.881-.005,3.762,0,5.643a1.6,1.6,0,0,0,1.7,1.706c1.4.005,2.81.035,4.213-.009a6.347,6.347,0,0,0,5.187-2.681,7.89,7.89,0,0,0,1.348-5.7A6.671,6.671,0,0,0,226.929,368.354Zm3.089,9.158a3.21,3.21,0,0,1-2.922,2.366c-.768.072-1.549.013-2.363.013v-8.4c.03-.016.059-.046.088-.046.754,0,1.511-.033,2.261.019a3.2,3.2,0,0,1,3.025,2.545A6.012,6.012,0,0,1,230.018,377.511Z" transform="translate(-221.38 -368.352)"/></g></g></svg>