<svg xmlns="http://www.w3.org/2000/svg" width="294.195" height="359.285" viewBox="0 0 294.195 359.285">
  <defs>
    <style>
      .cls-1 {
        fill: #bcbcbc;
      }

      .cls-2, .cls-3 {
        fill: #fff;
      }

      .cls-2 {
        font-size: 20px;
        font-family: Monarcha-SemiBold, Monarcha;
        font-weight: 600;
        letter-spacing: 0.025em;
      }

      .cls-4 {
        fill: none;
        stroke: #fff;
        stroke-linecap: round;
        stroke-linejoin: round;
        stroke-width: 2.2px;
      }
    </style>
  </defs>
  <g id="グループ_1636" data-name="グループ 1636" transform="translate(-30 -8419.049)">
    <g id="グループ_425" data-name="グループ 425" transform="translate(-1311.44 8210.465) rotate(-34)">
      <path id="合体_1" data-name="合体 1" class="cls-1" d="M10.223,94.4,0,60.556,18.215,35.875l34.628-9.027L45.962-4.637,71.387,33.83l35.227,13.789,18.9,17,4.047,37.551L109.42,120.81,58.486,123.98Z" transform="translate(1084.514 1107.092) rotate(180)"/>
      <text id="Visit_Us_" data-name="Visit Us!" class="cls-2" transform="translate(1015.408 1036.523) rotate(17)"><tspan x="-42.01" y="0">Visit Us!</tspan></text>
    </g>
    <g id="グループ_1628" data-name="グループ 1628" transform="translate(-683.798 8354.235)">
      <g id="グループ_1592" data-name="グループ 1592" transform="translate(745.432 247.954)">
        <path id="パス_1402" data-name="パス 1402" class="cls-3" d="M761.916,274.813a1.47,1.47,0,0,1-1.309-.8L743.12,239.947a1.469,1.469,0,0,1,2.614-1.341l17.487,34.066a1.47,1.47,0,0,1-1.3,2.141Z" transform="translate(-742.958 -237.808)"/>
      </g>
      <g id="グループ_1593" data-name="グループ 1593" transform="translate(998.004 282.528)">
        <path id="パス_1403" data-name="パス 1403" class="cls-3" d="M937.075,273.684a4.994,4.994,0,1,1,4.994-4.993A5,5,0,0,1,937.075,273.684Zm0-7.051a2.057,2.057,0,1,0,2.057,2.058A2.06,2.06,0,0,0,937.075,266.633Z" transform="translate(-932.079 -263.696)"/>
      </g>
      <g id="グループ_1594" data-name="グループ 1594" transform="translate(761.463 282.528)">
        <path id="パス_1404" data-name="パス 1404" class="cls-3" d="M759.956,273.684a4.994,4.994,0,1,1,4.995-4.993A5,5,0,0,1,759.956,273.684Zm0-7.051a2.057,2.057,0,1,0,2.058,2.058A2.061,2.061,0,0,0,759.956,266.633Z" transform="translate(-754.961 -263.696)"/>
      </g>
      <g id="グループ_1595" data-name="グループ 1595" transform="translate(980.057 244.221)">
        <path id="パス_1405" data-name="パス 1405" class="cls-3" d="M939.515,275.751a1.471,1.471,0,0,1-1.309-.8l-19.4-37.8a1.468,1.468,0,1,1,2.614-1.34l19.4,37.8a1.468,1.468,0,0,1-.636,1.978A1.449,1.449,0,0,1,939.515,275.751Z" transform="translate(-918.641 -235.013)"/>
      </g>
      <g id="グループ_1596" data-name="グループ 1596" transform="translate(737.05 209.034)">
        <path id="パス_1406" data-name="パス 1406" class="cls-3" d="M919.712,208.665,893.631,236.92c.3-.017.589-.039.912-.039,3.719,0,5.995,1.751,9.055,3.484.159.091.319.167.478.25l29.492-31.951Z" transform="translate(-684.024 -208.665)"/>
        <path id="パス_1407" data-name="パス 1407" class="cls-3" d="M781.352,208.665l-29.806,32.291c3.263-1.453,4.776-4.075,10.214-4.075a11.117,11.117,0,0,1,5.984,1.537l27.463-29.754Z" transform="translate(-731.694 -208.665)"/>
        <path id="パス_1408" data-name="パス 1408" class="cls-3" d="M865,208.665l-30.066,32.573a11.838,11.838,0,0,0,4.117.664c7.046,0,7.489-4.408,13.708-4.963l26.1-28.274Z" transform="translate(-703.719 -208.665)"/>
        <path id="パス_1409" data-name="パス 1409" class="cls-4" d="M736.681,231.45v.115c.089,0,.166.009.252.011l6.521-7.065Z" transform="translate(-736.681 -203.349)"/>
        <path id="パス_1410" data-name="パス 1410" class="cls-3" d="M836.517,208.665l-27.607,29.91c2.408,1.458,4.2,3.327,8.79,3.327a13.686,13.686,0,0,0,2.15-.168l30.524-33.068Z" transform="translate(-712.448 -208.665)"/>
        <path id="パス_1411" data-name="パス 1411" class="cls-3" d="M808.272,208.665,782.2,236.909c5.1.216,6.552,2.874,9.959,4.223l29.967-32.467Z" transform="translate(-721.409 -208.665)"/>
        <path id="パス_1412" data-name="パス 1412" class="cls-3" d="M892.951,208.665,862.5,241.655c5.014-1,5.888-4.773,12.407-4.773a11.376,11.376,0,0,1,4.936,1l26.964-29.213Z" transform="translate(-694.469 -208.665)"/>
      </g>
      <g id="グループ_1597" data-name="グループ 1597" transform="translate(735.581 207.566)">
        <path id="パス_1413" data-name="パス 1413" class="cls-3" d="M963.958,244.183a16.13,16.13,0,0,1-8.058-2.17c-.485-.274-.95-.55-1.405-.819-2.34-1.382-4.187-2.475-6.925-2.475a10.438,10.438,0,0,0-6.7,2.262,13.976,13.976,0,0,1-16.671,0,11.069,11.069,0,0,0-13.411,0,13.972,13.972,0,0,1-16.668,0,11.059,11.059,0,0,0-13.4,0,13.972,13.972,0,0,1-16.668,0,11.063,11.063,0,0,0-13.407,0,13.974,13.974,0,0,1-16.67,0,11.065,11.065,0,0,0-13.408,0,13.97,13.97,0,0,1-16.667,0,11.059,11.059,0,0,0-13.4,0,13.97,13.97,0,0,1-16.667,0,11.059,11.059,0,0,0-13.4,0,13.968,13.968,0,0,1-16.666,0,10.428,10.428,0,0,0-6.7-2.262,1.469,1.469,0,0,1-1.469-1.469A1.761,1.761,0,0,1,736,236.11l27.434-28.1a1.469,1.469,0,0,1,1.051-.442h240.843a1.468,1.468,0,0,1,1.048,2.5l-25.464,25.975a29.077,29.077,0,0,1-7.977,5.88A20.518,20.518,0,0,1,963.958,244.183Zm-16.388-8.4c3.54,0,5.911,1.4,8.419,2.882.441.26.889.525,1.358.792,4.271,2.42,9.083,2.357,14.3-.179a26.1,26.1,0,0,0,7.162-5.3l23.017-23.479H765.1l-24.975,25.583a14.256,14.256,0,0,1,5.253,2.453,11.053,11.053,0,0,0,13.4,0,13.977,13.977,0,0,1,16.668,0,11.059,11.059,0,0,0,13.4,0,13.977,13.977,0,0,1,16.668,0,11.061,11.061,0,0,0,13.406,0,13.977,13.977,0,0,1,16.668,0,11.065,11.065,0,0,0,13.408,0,13.977,13.977,0,0,1,16.668,0,11.065,11.065,0,0,0,13.408,0,13.976,13.976,0,0,1,16.667,0,11.059,11.059,0,0,0,13.4,0,13.983,13.983,0,0,1,16.672,0,11.067,11.067,0,0,0,13.41,0A13.328,13.328,0,0,1,947.57,235.782Z" transform="translate(-735.581 -207.566)"/>
      </g>
      <g id="グループ_1598" data-name="グループ 1598" transform="translate(757.387 412.911)">
        <path id="パス_1414" data-name="パス 1414" class="cls-3" d="M996.814,372.513h-240.4a4.508,4.508,0,0,1-4.5-4.5v-2.181a4.509,4.509,0,0,1,4.5-4.5h240.4a4.507,4.507,0,0,1,4.5,4.5v2.181A4.506,4.506,0,0,1,996.814,372.513Zm-240.4-8.249a1.568,1.568,0,0,0-1.566,1.565v2.181a1.568,1.568,0,0,0,1.566,1.567h240.4a1.568,1.568,0,0,0,1.565-1.567v-2.181a1.567,1.567,0,0,0-1.565-1.565Z" transform="translate(-751.909 -361.325)"/>
      </g>
      <g id="グループ_1599" data-name="グループ 1599" transform="translate(773.649 391.638)">
        <path id="パス_1415" data-name="パス 1415" class="cls-3" d="M853.4,362.931a1.469,1.469,0,0,1-1.468-1.469V348.413l-84.908,4.451v7.56a1.468,1.468,0,0,1-2.937,0V351.47A1.47,1.47,0,0,1,765.478,350l87.845-4.6a1.468,1.468,0,0,1,1.545,1.466v14.6A1.469,1.469,0,0,1,853.4,362.931Z" transform="translate(-764.086 -345.396)"/>
      </g>
      <g id="グループ_1600" data-name="グループ 1600" transform="translate(762.955 373.241)">
        <path id="パス_1416" data-name="パス 1416" class="cls-3" d="M757.547,351.918a1.47,1.47,0,0,1-1.469-1.469V336.672a1.468,1.468,0,0,1,1.4-1.468l80.032-3.582a1.5,1.5,0,0,1,1.08.406,1.468,1.468,0,0,1,.453,1.062v14.171a1.468,1.468,0,1,1-2.937,0V334.626l-77.094,3.45v12.373A1.47,1.47,0,0,1,757.547,351.918Z" transform="translate(-756.078 -331.621)"/>
      </g>
      <g id="グループ_1601" data-name="グループ 1601" transform="translate(770.18 343.667)">
        <path id="パス_1417" data-name="パス 1417" class="cls-3" d="M766.425,341.24a1.468,1.468,0,0,1-1.414-1.078l-3.47-12.51a1.468,1.468,0,0,1,1.135-1.835L846.789,309.5a1.469,1.469,0,0,1,1.735,1.249l1.969,14.763a1.468,1.468,0,0,1-1.173,1.635l-59.384,11.7a1.469,1.469,0,1,1-.568-2.882l58.03-11.435-1.581-11.849L764.8,328.4l3.045,10.976a1.466,1.466,0,0,1-1.022,1.808A1.49,1.49,0,0,1,766.425,341.24Z" transform="translate(-761.488 -309.476)"/>
      </g>
      <g id="グループ_1602" data-name="グループ 1602" transform="translate(764.989 328.402)">
        <path id="パス_1418" data-name="パス 1418" class="cls-3" d="M813.79,317.911h-.065l-54.718-2.361a1.469,1.469,0,0,1-1.4-1.468V299.516a1.469,1.469,0,0,1,.442-1.051,1.507,1.507,0,0,1,1.06-.418l84.243,1.969a1.467,1.467,0,0,1,1.424,1.643L843.59,311.5a1.469,1.469,0,0,1-2.917-.349l.988-8.236-81.124-1.9v11.654l53.315,2.3a1.468,1.468,0,0,1-.063,2.935Z" transform="translate(-757.601 -298.046)"/>
      </g>
      <g id="グループ_1610" data-name="グループ 1610" transform="translate(891.192 303.65)">
        <g id="グループ_1603" data-name="グループ 1603">
          <path id="パス_1419" data-name="パス 1419" class="cls-3" d="M878.988,333.286A26.887,26.887,0,1,1,905.875,306.4,26.918,26.918,0,0,1,878.988,333.286Zm0-50.837a23.95,23.95,0,1,0,23.95,23.95A23.977,23.977,0,0,0,878.988,282.449Z" transform="translate(-852.1 -279.512)"/>
        </g>
        <g id="グループ_1604" data-name="グループ 1604" transform="translate(21.797 22.896)">
          <circle id="楕円形_44" data-name="楕円形 44" class="cls-3" cx="2.763" cy="2.763" r="2.763"/>
        </g>
        <g id="グループ_1605" data-name="グループ 1605" transform="translate(27.324 22.896)">
          <circle id="楕円形_45" data-name="楕円形 45" class="cls-3" cx="2.763" cy="2.763" r="2.763"/>
        </g>
        <g id="グループ_1606" data-name="グループ 1606" transform="translate(23.35 30.647)">
          <path id="パス_1420" data-name="パス 1420" class="cls-3" d="M874.507,310.229h-3.454a1.469,1.469,0,0,1-1.336-2.081l2.212-4.829a1.469,1.469,0,0,1,2.671,1.223l-1.258,2.748h1.165a1.469,1.469,0,0,1,0,2.938Z" transform="translate(-869.584 -302.46)"/>
        </g>
        <g id="グループ_1607" data-name="グループ 1607" transform="translate(6.437 25.417)">
          <path id="パス_1421" data-name="パス 1421" class="cls-3" d="M877.371,320.462a20.473,20.473,0,0,1-20.451-20.449,1.468,1.468,0,1,1,2.937,0,17.513,17.513,0,0,0,35.026,0,1.468,1.468,0,1,1,2.937,0A20.472,20.472,0,0,1,877.371,320.462Z" transform="translate(-856.92 -298.544)"/>
        </g>
        <g id="グループ_1608" data-name="グループ 1608" transform="translate(37.129 13.395)">
          <path id="パス_1422" data-name="パス 1422" class="cls-3" d="M889.7,296.619a1.416,1.416,0,0,1-.258-.024,18.123,18.123,0,0,1-9.075-4.507,1.469,1.469,0,0,1,2-2.151,15.162,15.162,0,0,0,7.586,3.766,1.47,1.47,0,0,1-.254,2.917Z" transform="translate(-879.902 -289.542)"/>
        </g>
        <g id="グループ_1609" data-name="グループ 1609" transform="translate(6.896 8.097)">
          <path id="パス_1423" data-name="パス 1423" class="cls-3" d="M862.415,296.673a17.745,17.745,0,0,1-4.015-.481,1.469,1.469,0,1,1,.665-2.862c8.525,1.975,12.2-3.9,12.349-4.147a1.472,1.472,0,0,1,1.943-.546c3.957,2.078,11.475,2.2,14.239-2.357a1.469,1.469,0,0,1,2.512,1.525c-3.432,5.649-11.747,6.066-16.975,3.958A13.884,13.884,0,0,1,862.415,296.673Z" transform="translate(-857.263 -285.575)"/>
        </g>
      </g>
      <g id="グループ_1611" data-name="グループ 1611" transform="translate(905.076 298.228)">
        <path id="パス_1424" data-name="パス 1424" class="cls-3" d="M895.329,293.33a1.469,1.469,0,0,1-1.441-1.193c-.91-4.738-4.055-8.748-8.854-11.289-5.148-2.724-11.354-3.241-15.81-1.323-1.88.813-4,2.372-3.773,4.091a1.469,1.469,0,1,1-2.913.381c-.371-2.835,1.693-5.514,5.521-7.168,5.243-2.262,12.443-1.7,18.35,1.424,5.6,2.966,9.283,7.7,10.364,13.331a1.469,1.469,0,0,1-1.166,1.72A1.5,1.5,0,0,1,895.329,293.33Z" transform="translate(-862.496 -275.452)"/>
      </g>
      <g id="グループ_1612" data-name="グループ 1612" transform="translate(914.048 294.424)">
        <path id="パス_1425" data-name="パス 1425" class="cls-3" d="M895.278,295.422a1.448,1.448,0,0,1-.648-.152,1.47,1.47,0,0,1-.67-1.966c1.608-3.271,2.716-7.735-3.016-13.278-2.6-2.516-6.23-3.965-11.086-4.433-2.592-.244-6.06.381-8.016,2.893a1.469,1.469,0,0,1-2.318-1.806c2.245-2.886,6.309-4.425,10.616-4.011,5.542.532,9.745,2.246,12.846,5.243,5.386,5.21,6.568,10.667,3.611,16.686A1.471,1.471,0,0,1,895.278,295.422Z" transform="translate(-869.214 -272.604)"/>
      </g>
      <g id="グループ_1613" data-name="グループ 1613" transform="translate(929.931 295.967)">
        <path id="パス_1426" data-name="パス 1426" class="cls-3" d="M882.983,283.232a1.471,1.471,0,0,1-1.289-2.173,5.247,5.247,0,0,0-.377-5.074,1.469,1.469,0,1,1,2.517-1.513,8.106,8.106,0,0,1,.439,7.993A1.469,1.469,0,0,1,882.983,283.232Z" transform="translate(-881.107 -273.759)"/>
      </g>
      <g id="グループ_1614" data-name="グループ 1614" transform="translate(848.149 367.157)">
        <path id="パス_1427" data-name="パス 1427" class="cls-3" d="M837.556,348.012a1.467,1.467,0,0,1-.815-.247,53.3,53.3,0,0,1-16.682-18.51,1.469,1.469,0,1,1,2.559-1.442,50.393,50.393,0,0,0,15.754,17.508,1.469,1.469,0,0,1-.816,2.691Z" transform="translate(-819.87 -327.065)"/>
      </g>
      <g id="グループ_1615" data-name="グループ 1615" transform="translate(832.156 273.252)">
        <path id="パス_1428" data-name="パス 1428" class="cls-3" d="M860.021,342.912a1.458,1.458,0,0,1-.88-.294c-9.674-7.253-31.046-29.461-20.564-78.919a4.744,4.744,0,0,0-.053-2.508,2.178,2.178,0,0,0-2.448-1.334c-.673.174-1.221,1.221-1.532,2.857a17.007,17.007,0,0,1-.26,2.165,1.451,1.451,0,0,1-1.617,1.215,1.469,1.469,0,0,1-1.3-1.552,19.49,19.49,0,0,1,.248-2.162,2.711,2.711,0,0,0-.413-1.681,2.641,2.641,0,0,0-2.591-.947c-1.944.521-2.316,2.189-2.763,4.869-.108.645-.216,1.286-.357,1.891a1.469,1.469,0,0,1-2.9-.434c.12-1.754-.33-3.357-1.119-3.992-.163-.131-.665-.534-1.862-.183-2.134.625-3.4,3.539-4.087,5.874a118.662,118.662,0,0,0-4.644,36.585,1.467,1.467,0,0,1-1.424,1.512,1.5,1.5,0,0,1-1.513-1.424,121.738,121.738,0,0,1,4.76-37.5c1.3-4.418,3.344-7.063,6.081-7.866a4.739,4.739,0,0,1,4.529.713,4.611,4.611,0,0,1,.594.572,5.7,5.7,0,0,1,3.938-3.454,5.577,5.577,0,0,1,5.3,1.553,4.036,4.036,0,0,1,2.2-1.454,5.093,5.093,0,0,1,5.952,3.216,7.671,7.671,0,0,1,.152,4.081c-10.132,47.8,10.227,69.044,19.452,75.958a1.469,1.469,0,0,1-.883,2.644Z" transform="translate(-807.895 -256.751)"/>
      </g>
      <g id="グループ_1616" data-name="グループ 1616" transform="translate(918.634 386.732)">
        <path id="パス_1429" data-name="パス 1429" class="cls-3" d="M887.237,345.862a67.662,67.662,0,0,1-13.368,1.01,1.146,1.146,0,0,1-1.131-1.1l-.088-1.9a1.143,1.143,0,0,1,1.151-1.2,68.963,68.963,0,0,0,12.837-.928,1.159,1.159,0,0,1,1.4,1.07l.086,1.864A1.144,1.144,0,0,1,887.237,345.862Z" transform="translate(-872.648 -341.722)"/>
      </g>
      <g id="グループ_1617" data-name="グループ 1617" transform="translate(880.026 355.179)">
        <path id="パス_1430" data-name="パス 1430" class="cls-3" d="M931.189,368.191a1.472,1.472,0,0,1-1.438-1.175,57.62,57.62,0,0,0-83.841-39.046,1.469,1.469,0,1,1-1.4-2.583,60.562,60.562,0,0,1,88.122,41.039,1.472,1.472,0,0,1-1.145,1.735A1.5,1.5,0,0,1,931.189,368.191Z" transform="translate(-843.739 -318.096)"/>
      </g>
      <g id="グループ_1618" data-name="グループ 1618" transform="translate(876.844 357.282)">
        <path id="パス_1431" data-name="パス 1431" class="cls-3" d="M842.826,371.563a1.373,1.373,0,0,1-.263-.025,1.469,1.469,0,0,1-1.183-1.707c5.6-30.833,15.692-48.679,16.121-49.423a1.469,1.469,0,0,1,2.548,1.461c-.1.178-10.279,18.194-15.779,48.485A1.468,1.468,0,0,1,842.826,371.563Z" transform="translate(-841.356 -319.671)"/>
      </g>
      <g id="グループ_1619" data-name="グループ 1619" transform="translate(885.875 374.01)">
        <path id="パス_1432" data-name="パス 1432" class="cls-3" d="M878.391,337.814a165.522,165.522,0,0,1-29.061-2.7,1.469,1.469,0,0,1,.516-2.893c32.673,5.837,52.43.1,52.627.039a1.469,1.469,0,0,1,.845,2.814C902.774,335.238,893.961,337.814,878.391,337.814Z" transform="translate(-848.119 -332.197)"/>
      </g>
      <g id="グループ_1620" data-name="グループ 1620" transform="translate(939.182 364.527)">
        <path id="パス_1433" data-name="パス 1433" class="cls-3" d="M893.543,369.743a1.468,1.468,0,0,1-1.446-1.23,290.667,290.667,0,0,1-4.062-41.947,1.469,1.469,0,0,1,1.466-1.47h0a1.468,1.468,0,0,1,1.469,1.466,288.113,288.113,0,0,0,4.021,41.47,1.467,1.467,0,0,1-1.209,1.689A1.342,1.342,0,0,1,893.543,369.743Z" transform="translate(-888.034 -325.096)"/>
      </g>
      <g id="グループ_1621" data-name="グループ 1621" transform="translate(896.988 355.721)">
        <path id="パス_1434" data-name="パス 1434" class="cls-3" d="M857.91,341.406h-.086a1.471,1.471,0,0,1-1.382-1.552,91.68,91.68,0,0,1,3.886-20.334,1.469,1.469,0,1,1,2.794.908,90.484,90.484,0,0,0-3.746,19.594A1.47,1.47,0,0,1,857.91,341.406Z" transform="translate(-856.44 -318.502)"/>
      </g>
      <g id="グループ_1622" data-name="グループ 1622" transform="translate(929.124 361.13)">
        <path id="パス_1435" data-name="パス 1435" class="cls-3" d="M881.974,340.048a1.442,1.442,0,0,1-.226-.019,1.468,1.468,0,0,1-1.227-1.676,91.036,91.036,0,0,1,3.562-14.819,1.469,1.469,0,1,1,2.772.974,89.915,89.915,0,0,0-3.431,14.294A1.469,1.469,0,0,1,881.974,340.048Z" transform="translate(-880.503 -322.552)"/>
      </g>
      <g id="グループ_1623" data-name="グループ 1623" transform="translate(973.364 397.363)">
        <path id="パス_1436" data-name="パス 1436" class="cls-3" d="M932.88,361.512a1.468,1.468,0,0,1-1.468-1.468,7.423,7.423,0,1,0-14.847,0,1.468,1.468,0,0,1-2.937,0,10.36,10.36,0,1,1,20.72,0A1.468,1.468,0,0,1,932.88,361.512Z" transform="translate(-913.629 -349.683)"/>
      </g>
      <g id="グループ_1624" data-name="グループ 1624" transform="translate(971.952 406.255)">
        <path id="パス_1437" data-name="パス 1437" class="cls-3" d="M934.647,359.278H914.04a1.468,1.468,0,0,1,0-2.937h20.607a1.468,1.468,0,1,1,0,2.937Z" transform="translate(-912.572 -356.341)"/>
      </g>
      <g id="グループ_1625" data-name="グループ 1625" transform="translate(980.844 392.437)">
        <path id="パス_1438" data-name="パス 1438" class="cls-3" d="M923.522,348.932H920.7a1.469,1.469,0,0,1,0-2.938h2.825a1.469,1.469,0,0,1,0,2.938Z" transform="translate(-919.23 -345.994)"/>
      </g>
      <g id="グループ_1626" data-name="グループ 1626" transform="translate(872.093 278.536)">
        <path id="パス_1439" data-name="パス 1439" class="cls-3" d="M952.418,370.436a1.468,1.468,0,0,1-1.468-1.468V307.22a43.627,43.627,0,0,0-43.576-43.576H839.268a1.468,1.468,0,1,1,0-2.937h68.107a46.566,46.566,0,0,1,46.513,46.513v61.748A1.468,1.468,0,0,1,952.418,370.436Z" transform="translate(-837.799 -260.707)"/>
      </g>
      <g id="グループ_1627" data-name="グループ 1627" transform="translate(778.621 278.536)">
        <path id="パス_1440" data-name="パス 1440" class="cls-3" d="M769.278,302.154a1.441,1.441,0,0,1-.212-.015,1.47,1.47,0,0,1-1.242-1.665,46.733,46.733,0,0,1,46.027-39.767h6.79a1.468,1.468,0,1,1,0,2.937h-6.79A43.781,43.781,0,0,0,770.731,300.9,1.469,1.469,0,0,1,769.278,302.154Z" transform="translate(-767.809 -260.707)"/>
      </g>
    </g>
  </g>
</svg>
