<svg id="グループ_4" data-name="グループ 4" xmlns="http://www.w3.org/2000/svg" width="233.908" height="113.927" viewBox="0 0 233.908 113.927">
  <defs>
    <style>
      .cls-1 {
        fill: #00ae42;
      }
    </style>
  </defs>
  <g id="グループ_2" data-name="グループ 2" transform="translate(0 64.456)">
    <path id="パス_18" data-name="パス 18" class="cls-1" d="M262.561,452.631v35.841a4.707,4.707,0,0,0,1.379,3.472,1.858,1.858,0,0,0,.488.286.709.709,0,0,1,.372.719c0,.363-.123.544-.372.544h-9.3c-.249,0-.372-.166-.372-.5s.043-.536.129-.6a1.608,1.608,0,0,1,.359-.2,2.222,2.222,0,0,0,.588-.46,4.323,4.323,0,0,0,.76-1.319,5.005,5.005,0,0,0,.4-1.936V451.511a4.707,4.707,0,0,0-1.378-3.472,1.833,1.833,0,0,0-.488-.288.707.707,0,0,1-.372-.717c0-.363.123-.545.372-.545H270.8A17.355,17.355,0,0,1,278.015,448a13.213,13.213,0,0,1,5.437,4.448,13.018,13.018,0,0,1,.2,13.844q-3.731,5.34-15.411,5.309h-2.317c-.249,0-.374-.266-.374-.8v-2.41c0-.536.125-.8.374-.8h2.317q11.851,0,11.851-8.409a6.365,6.365,0,0,0-1.777-4.793,11.8,11.8,0,0,0-7.4-3.242h-6.6a1.765,1.765,0,0,0-1.193.5A1.391,1.391,0,0,0,262.561,452.631Z" transform="translate(-254.757 -445.515)"/>
    <path id="パス_19" data-name="パス 19" class="cls-1" d="M289.9,487.68a25.106,25.106,0,0,1-5.108-7.948A24.829,24.829,0,0,1,282.9,470.2a22.733,22.733,0,0,1,2-9.383,24.787,24.787,0,0,1,13.027-12.927,21.954,21.954,0,0,1,8.854-1.951,28.381,28.381,0,0,1,8.207,1.146,25.275,25.275,0,0,1,12.582,8.452,22.317,22.317,0,0,1,5.037,14.534,25.513,25.513,0,0,1-6.757,17.318,23.16,23.16,0,0,1-8.064,5.525,25.989,25.989,0,0,1-10.259,2.065,24.352,24.352,0,0,1-9.9-1.979A23.91,23.91,0,0,1,289.9,487.68Zm12.024,1.364a14.811,14.811,0,0,0,5.51,1.119q9.183,0,14.62-5.38t5.437-14.448a15.68,15.68,0,0,0-1.591-6.573,23.86,23.86,0,0,0-4.263-6.3,21.809,21.809,0,0,0-6.528-4.72,19.814,19.814,0,0,0-8.738-1.865,18.33,18.33,0,0,0-9.213,2.467,17.028,17.028,0,0,0-6.685,6.83,20.974,20.974,0,0,0-2.353,10.116,18.052,18.052,0,0,0,4.205,11.177A22.973,22.973,0,0,0,301.926,489.045Z" transform="translate(-232.582 -445.944)"/>
    <path id="パス_20" data-name="パス 20" class="cls-1" d="M346,490.461a22.982,22.982,0,0,0,11.607-2.925,24.789,24.789,0,0,0,8.421-7.863c.25-.4.436-.526.561-.374s.282.365.472.631l.89,1.293c.288.477.391.774.316.89a21.573,21.573,0,0,1-5.77,6.857,25.149,25.149,0,0,1-16.5,6.256,23.88,23.88,0,0,1-9.786-2.022,22.987,22.987,0,0,1-7.69-5.41,25.143,25.143,0,0,1-4.922-7.935,25.455,25.455,0,0,1-1.793-9.426,23.235,23.235,0,0,1,1.936-9.342,24.424,24.424,0,0,1,12.87-12.941,22.069,22.069,0,0,1,8.983-1.965,30.3,30.3,0,0,1,10.876,2.1l1.319.488c.191.075.46,0,.8-.231a1.942,1.942,0,0,1,1.093-.343.979.979,0,0,1,.889.545c.077.057.105.258.088.6a16.745,16.745,0,0,0,.688,3.816l.715,3.158a9.436,9.436,0,0,1,.288,1.577c0,.115-.243.293-.731.531s-.771.291-.846.157a13,13,0,0,0-5.984-5.738,22.424,22.424,0,0,0-8.981-1.579A19.463,19.463,0,0,0,336.1,453.7a16.826,16.826,0,0,0-6.687,6.787,20.363,20.363,0,0,0-2.353,9.857,17.638,17.638,0,0,0,1.665,7.3,23.592,23.592,0,0,0,4.289,6.485,21.931,21.931,0,0,0,6.1,4.563A15.1,15.1,0,0,0,346,490.461Z" transform="translate(-201.92 -445.755)"/>
    <path id="パス_21" data-name="パス 21" class="cls-1" d="M364.786,487.68a25.694,25.694,0,0,1-7-17.476,22.73,22.73,0,0,1,1.994-9.383,24.8,24.8,0,0,1,13.029-12.927,21.94,21.94,0,0,1,8.852-1.951,28.362,28.362,0,0,1,8.207,1.146,25.28,25.28,0,0,1,12.584,8.452,22.316,22.316,0,0,1,5.035,14.534,25.491,25.491,0,0,1-6.757,17.318,23.128,23.128,0,0,1-8.064,5.525,25.983,25.983,0,0,1-10.259,2.065A24.349,24.349,0,0,1,372.5,493,23.891,23.891,0,0,1,364.786,487.68Zm12.024,1.364a14.8,14.8,0,0,0,5.509,1.119q9.183,0,14.62-5.38t5.439-14.448a15.657,15.657,0,0,0-1.593-6.573,23.82,23.82,0,0,0-4.263-6.3,21.765,21.765,0,0,0-6.528-4.72,19.806,19.806,0,0,0-8.736-1.865,18.33,18.33,0,0,0-9.213,2.467,17.029,17.029,0,0,0-6.685,6.83,20.974,20.974,0,0,0-2.353,10.116,18.059,18.059,0,0,0,4.2,11.177A22.988,22.988,0,0,0,376.81,489.045Z" transform="translate(-173.576 -445.944)"/>
  </g>
  <g id="グループ_3" data-name="グループ 3" transform="translate(5.432)">
    <path id="パス_22" data-name="パス 22" class="cls-1" d="M265.029,423.423c4.028-1.888,6.376-.317,7.424,1.922a3.873,3.873,0,0,1-.422,4.309,4.327,4.327,0,0,1,4.346,2.589c1.094,2.333.837,5.587-3.286,7.52l-7.565,3.546L257.8,426.815Zm4.329,3.719c-.4-.847-1.148-1.589-2.889-.772l-4.1,1.922,1.647,3.512,3.676-1.724C269.385,429.284,269.855,428.2,269.358,427.142Zm3.79,6.616c-.5-1.06-1.523-1.9-3.857-.808l-3.887,1.822,1.911,4.077,4.547-2.131A2.1,2.1,0,0,0,273.148,433.757Z" transform="translate(-257.795 -399.897)"/>
    <path id="パス_23" data-name="パス 23" class="cls-1" d="M284.69,430.276l-6.646,2.271-.111,4.023-3.569,1.219.712-19.483,3.251-1.11,12.48,14.978-3.569,1.218Zm-5.344-6.556c-.325-.384-.8-.966-1.073-1.366.029.485.009,1.234-.011,1.736l-.17,5.06,4.481-1.53Z" transform="translate(-244.739 -404.141)"/>
    <path id="パス_24" data-name="パス 24" class="cls-1" d="M287.061,414.99l8.259-1.82c4.472-.987,6.528,1.33,7.173,4.252a5.55,5.55,0,0,1-2.322,5.895l5.019,6.326-3.862.853-4.792-5.9-3.583.79,1.463,6.632-3.429.756Zm10.052,6.07a2.381,2.381,0,1,0-1.025-4.65l-4.879,1.076,1.026,4.65Z" transform="translate(-234.735 -407.495)"/>
    <path id="パス_25" data-name="パス 25" class="cls-1" d="M302.349,411.771l12.357-1.384.37,3.31-8.867.994.426,3.8,5.221-.585.372,3.309L307,421.8l.49,4.37,9.41-1.055.37,3.309-12.9,1.445Z" transform="translate(-222.688 -409.506)"/>
    <path id="パス_26" data-name="パス 26" class="cls-1" d="M325.676,409.894l7.8.379c4.6.223,6.07,3.213,5.934,6.045-.129,2.652-2.047,5.659-6.492,5.444l-4.288-.209-.325,6.707-3.51-.172Zm10.091,6.247a2.259,2.259,0,0,0-2.3-2.534l-4.445-.216-.234,4.835,4.443.216A2.27,2.27,0,0,0,335.768,416.141Z" transform="translate(-205.003 -409.894)"/>
    <path id="パス_27" data-name="パス 27" class="cls-1" d="M341.019,411.05l3.481.469-2.437,18.048-3.481-.468Z" transform="translate(-194.138 -408.983)"/>
    <path id="パス_28" data-name="パス 28" class="cls-1" d="M347.362,427.553l11.952-9.828-8.732-1.952.726-3.249,13.277,2.968L364,418.105l-12.028,9.811,9.365,2.1-.726,3.249-13.835-3.093Z" transform="translate(-187.681 -407.823)"/>
    <path id="パス_29" data-name="パス 29" class="cls-1" d="M361.025,430.684l12.925-8.523-8.482-2.859,1.064-3.158,12.9,4.348-.856,2.541-13,8.5,9.1,3.068-1.064,3.156-13.44-4.531Z" transform="translate(-177.128 -404.969)"/>
    <path id="パス_30" data-name="パス 30" class="cls-1" d="M385.623,437.995l-6.369-2.963-2.864,2.827-3.42-1.591L386.975,422.7l3.113,1.448L388.726,443.6l-3.419-1.591Zm.683-8.434c.032-.5.093-1.248.172-1.727-.315.37-.848.9-1.21,1.245l-3.624,3.535,4.293,2Z" transform="translate(-167.042 -399.804)"/>
  </g>
</svg>
