<svg xmlns="http://www.w3.org/2000/svg" width="398.673" height="381.883" viewBox="0 0 398.673 381.883"><defs><style>.a{fill:#00ae42;}.b{fill:#898a8d;}</style></defs><g transform="translate(-2173.119 -4968.877)"><g transform="translate(2436.548 5108.012)"><path class="a" d="M357.077,824.511a2.777,2.777,0,0,1-.884-.144c-12.3-4.142-17.774-11.522-20.2-16.985a26.029,26.029,0,0,1-.126-20.9c8.169-18.749,30.267-27.52,51.4-20.412a2.773,2.773,0,0,1-1.769,5.256c-18.386-6.193-37.541,1.278-44.556,17.371a20.474,20.474,0,0,0,.113,16.438c1.973,4.445,6.5,10.479,16.9,13.977a2.773,2.773,0,0,1-.884,5.4Z" transform="translate(-333.744 -763.612)"/><g transform="translate(41.136 2.314)"><path class="a" d="M364.345,832.068a38.762,38.762,0,0,1-12.389-2.162,2.773,2.773,0,0,1,1.769-5.256c10.391,3.5,17.65,1.429,21.909-.917a20.463,20.463,0,0,0,10.028-13.027c4.142-17.056-6.6-34.588-24.985-40.774a2.773,2.773,0,1,1,1.769-5.256c21.133,7.113,33.429,27.465,28.6,47.34a26.029,26.029,0,0,1-12.737,16.572A28.648,28.648,0,0,1,364.345,832.068Z" transform="translate(-350.069 -764.53)"/></g><g transform="translate(18.297 39.8)"><path class="a" d="M375.477,799.531a2.773,2.773,0,0,1-2.686-2.1c-1.3-5.178-5.632-9.582-11.316-11.495s-11.8-1.026-15.962,2.316a2.773,2.773,0,0,1-3.47-4.326c5.622-4.508,13.745-5.75,21.2-3.245s13.173,8.413,14.924,15.4a2.773,2.773,0,0,1-2.016,3.364A2.711,2.711,0,0,1,375.477,799.531Z" transform="translate(-341.005 -779.407)"/></g><g transform="translate(10.983 50.053)"><path class="a" d="M364.1,821.858a9.557,9.557,0,0,1-3.044-.5l-16.479-5.548a9.469,9.469,0,0,1-6.168-6.609,9.644,9.644,0,0,1,2.232-8.937,61.3,61.3,0,0,0,10.038-15.1,2.771,2.771,0,0,1,5.1,2.177A65.806,65.806,0,0,1,344.741,804a4.064,4.064,0,0,0-.963,3.812,3.887,3.887,0,0,0,2.568,2.747l16.479,5.546a3.881,3.881,0,0,0,3.712-.637,4.061,4.061,0,0,0,1.535-3.616,65.679,65.679,0,0,1,1.283-19.946,2.772,2.772,0,0,1,5.377,1.348,61.226,61.226,0,0,0-1.139,18.1,9.629,9.629,0,0,1-3.623,8.464A9.442,9.442,0,0,1,364.1,821.858Z" transform="translate(-338.103 -783.477)"/></g></g><g transform="translate(2319.012 5025.343)"><g transform="translate(0 12.072)"><path class="a" d="M332.525,831.207a47.225,47.225,0,0,1-18.84-3.734c-10.742-4.672-19.147-14.259-23.67-26.991a49.885,49.885,0,0,1,2.044-38.534,38.354,38.354,0,0,1,6.584-9.358,2.772,2.772,0,0,1,4.027,3.81,32.8,32.8,0,0,0-5.637,8,44.921,44.921,0,0,0-1.794,34.228c2.832,7.975,8.716,18.57,20.656,23.763,9.154,3.979,20.42,4.349,31.728,1.056L352.9,821.7c10.966-4.031,19.807-11.026,24.806-19.663,6.523-11.268,4.961-23.285,2.5-31.386a44.92,44.92,0,0,0-21.773-26.469,32.67,32.67,0,0,0-9.29-3.089,2.772,2.772,0,0,1,.973-5.458,38.265,38.265,0,0,1,10.862,3.621,49.875,49.875,0,0,1,24.532,29.785c3.926,12.934,2.855,25.638-3.011,35.77-5.647,9.756-15.514,17.615-27.782,22.123l-5.46,1.8A59.844,59.844,0,0,1,332.525,831.207Z" transform="translate(-287.097 -735.594)"/></g><g transform="translate(26.666 2.19)"><path class="a" d="M302.787,741.728a6.6,6.6,0,0,1-1.393-.141,4.472,4.472,0,0,1-3.51-2.908c-.862-2.618,1.076-5.443,4.505-6.571s6.667,0,7.529,2.61a4.479,4.479,0,0,1-1.1,4.425,7.907,7.907,0,0,1-3.407,2.152A8.528,8.528,0,0,1,302.787,741.728Zm2.512-4.48h0Z" transform="translate(-297.68 -731.672)"/></g><g transform="translate(26.731 3.331)"><path class="a" d="M307.483,762.392a17.044,17.044,0,0,1-4.525-.572l-1.7-.5-3.522-23.788a2.77,2.77,0,1,1,5.48-.814l2.976,20.074a10.112,10.112,0,0,0,8.181-2.59l-9.575-18a2.771,2.771,0,0,1,4.893-2.6l11.278,21.2-1.02,1.4A14.868,14.868,0,0,1,307.483,762.392Z" transform="translate(-297.706 -732.125)"/></g><g transform="translate(8.147)"><path class="a" d="M331.379,787.569l-11.53-9.774a7.79,7.79,0,0,0-7.572-1.4L293.948,782.8l7.937-14.125a7.782,7.782,0,0,0-.862-8.827L290.33,747.315l21.3,1.305a2.771,2.771,0,0,1,2.6,2.935,2.716,2.716,0,0,1-2.935,2.6l-8.277-.506,2.225,2.61a13.346,13.346,0,0,1,1.477,15.138l-.748,1.333,4.478-1.565a13.342,13.342,0,0,1,12.986,2.406l4.629,3.923,1.393-5.906a13.345,13.345,0,0,1,9.018-9.648l4.535-1.4-1.4-.628a13.344,13.344,0,0,1-7.806-13.055l.242-3.424-6.357,5.327a2.771,2.771,0,1,1-3.56-4.248l16.36-13.7-1.154,16.439a7.78,7.78,0,0,0,4.548,7.612l14.776,6.649-18.553,5.73a7.779,7.779,0,0,0-5.259,5.624Z" transform="translate(-290.33 -730.803)"/></g></g><g transform="translate(2173.119 4985.978)"><path class="a" d="M248.475,764.431a19.456,19.456,0,0,1-18.5-24.69c1.59-5.72,5.513-11.334,11.349-16.24,5.687-4.782,12.117-7.705,18.1-8.234a19.063,19.063,0,0,1,20.384,24.252c-1.55,5.808-5.536,11.636-11.225,16.416-5.833,4.908-12.042,7.806-17.948,8.388C249.906,764.393,249.183,764.431,248.475,764.431Zm12.911-43.707c-.514,0-1.005.025-1.472.063-4.863.431-10.2,2.9-15.025,6.957-4.9,4.122-8.3,8.907-9.572,13.478A13.9,13.9,0,0,0,250.1,758.8c4.719-.464,10.018-2.988,14.922-7.11,4.828-4.057,8.179-8.887,9.439-13.607a13.472,13.472,0,0,0-2.608-12.571A13.2,13.2,0,0,0,261.386,720.724Z" transform="translate(-229.196 -715.18)"/><g transform="translate(30.474 6.846)"><path class="a" d="M251.021,733.223a6.778,6.778,0,0,1-2.56-.542,11.9,11.9,0,0,1-4.415-3.369c-3.215-3.825-3.671-8.176-1.086-10.353a5.32,5.32,0,0,1,5.6-.521,11.94,11.94,0,0,1,4.415,3.369c3.213,3.827,3.669,8.179,1.086,10.354A4.634,4.634,0,0,1,251.021,733.223Zm-.005-5.543h0Zm-3.865-3.734a7.914,7.914,0,0,0,2.714,3.228,7.82,7.82,0,0,0-2.714-3.228Z" transform="translate(-241.29 -717.896)"/></g></g><g transform="translate(2228.849 5045.039)"><path class="a" d="M270.878,792.149a19.52,19.52,0,0,1-8.907-2.228,18.747,18.747,0,0,1-10.454-14.846c-.768-5.883.655-12.583,4.117-19.376,3.376-6.622,8.156-11.822,13.463-14.642a18.965,18.965,0,0,1,17.953-.345c11.117,5.667,13.722,19.739,6.34,34.225C287.727,786.046,279.457,792.149,270.878,792.149Zm7.627-47.993a14.593,14.593,0,0,0-6.808,1.794c-4.311,2.29-8.262,6.647-11.125,12.263-2.908,5.71-4.173,11.442-3.558,16.146a13.24,13.24,0,0,0,7.473,10.623c10.27,5.244,19.114-3.054,23.962-12.561,4.989-9.789,5.712-21.863-3.918-26.769A13.114,13.114,0,0,0,278.5,744.156Z" transform="translate(-251.313 -738.62)"/><g transform="translate(22.109 6.234)"><path class="a" d="M270.9,754.244a12.754,12.754,0,0,1-9.572-4.924,4.931,4.931,0,0,1,4.2-8.227,13.077,13.077,0,0,1,5.38,1.381,11.939,11.939,0,0,1,4.278,3.54,5.322,5.322,0,0,1,.756,5.571h0a5.318,5.318,0,0,1-4.949,2.658Zm2.568-3.918h0Zm-7.088-3.613a7.4,7.4,0,0,0,1.746,1.21,7.286,7.286,0,0,0,2.008.7,7.394,7.394,0,0,0-1.749-1.209A7.219,7.219,0,0,0,266.38,746.713Z" transform="translate(-260.088 -741.094)"/></g></g><g transform="translate(2181.364 5135.594)"><g transform="translate(1.14)"><path class="a" d="M450.771,867.537a2.843,2.843,0,0,1-.869-.141c-11.825-3.908-24.35-9.3-27.576-19.651-2.288-7.342-4.241-12.281-10.308-13.962-1.345-.373-2.706-.617-4.147-.874-3.714-.668-7.557-1.356-11.092-4.319-2.807-2.351-4.346-5.5-5.836-8.552a39.328,39.328,0,0,0-2.368-4.387,16.549,16.549,0,0,0-12.8-7.327,36.248,36.248,0,0,0-4.634.2,32.568,32.568,0,0,1-6.914.078c-8.129-1.046-13.218-7.509-17.706-13.211-1.053-1.336-2.084-2.651-3.132-3.858a34.579,34.579,0,0,0-24.146-11.419,32.753,32.753,0,0,0-14.188,2.734c-1.31.6-2.6,1.27-3.9,1.938-3.727,1.925-7.579,3.916-12.034,4.53-6.266.862-11.447-1.378-16.449-3.553-1.85-.8-3.6-1.56-5.395-2.167-6.927-2.336-14.085-2.084-19.646.688a18.193,18.193,0,0,0-9.315,11.014,2.771,2.771,0,0,1-5.261-1.741,23.872,23.872,0,0,1,12.1-14.234c6.869-3.427,15.577-3.787,23.889-.978,2.021.678,3.958,1.519,5.833,2.333,4.5,1.955,8.758,3.795,13.483,3.145,3.515-.484,6.786-2.175,10.248-3.964,1.371-.708,2.739-1.414,4.127-2.051a37.792,37.792,0,0,1,16.64-3.238A39.8,39.8,0,0,1,347.576,787.9c1.1,1.273,2.195,2.653,3.3,4.062,4.019,5.1,8.176,10.386,14.06,11.145a27.389,27.389,0,0,0,5.737-.106,40.581,40.581,0,0,1,5.354-.214,22.163,22.163,0,0,1,17.169,9.807,43.674,43.674,0,0,1,2.726,5.012c1.29,2.643,2.51,5.143,4.414,6.733,2.4,2.016,5.233,2.522,8.512,3.112,1.5.27,3.054.55,4.649.99,9.431,2.613,12.032,10.953,14.118,17.655,2.814,9.026,17.676,13.936,24.023,16.033a2.774,2.774,0,0,1-.869,5.407Z" transform="translate(-232.92 -774.558)"/></g><g transform="translate(0 17.1)"><path class="a" d="M366.617,863.855a21.9,21.9,0,0,1-12.079-3.568,40.345,40.345,0,0,1-4.193-3.336,27.433,27.433,0,0,0-4.568-3.475c-5.188-2.865-11.664-1.058-17.923.683-1.726.484-3.422.952-5.065,1.328a39.763,39.763,0,0,1-30.619-5.906,37.834,37.834,0,0,1-11.512-12.445c-.743-1.333-1.431-2.711-2.117-4.089-1.739-3.49-3.379-6.788-5.926-9.257-3.434-3.324-7.955-4.344-12.742-5.43-1.991-.451-4.049-.915-6.08-1.557-8.365-2.651-15.179-8.086-18.7-14.909a23.85,23.85,0,0,1-1.353-18.631,2.771,2.771,0,1,1,5.274,1.7,18.191,18.191,0,0,0,1.005,14.388c2.847,5.523,8.474,9.955,15.443,12.163,1.807.575,3.664,1,5.629,1.439,5.322,1.2,10.827,2.447,15.375,6.854,3.233,3.132,5.165,7.015,7.035,10.769.645,1.3,1.293,2.6,2,3.863a32.224,32.224,0,0,0,9.832,10.588,34.566,34.566,0,0,0,26.227,5.055c1.56-.358,3.167-.8,4.805-1.262,6.992-1.945,14.914-4.158,22.09-.2a32.074,32.074,0,0,1,5.533,4.148,35.893,35.893,0,0,0,3.616,2.9,16.56,16.56,0,0,0,14.66,1.65,39.048,39.048,0,0,0,4.5-2.139c3-1.58,6.105-3.213,9.761-3.452,4.6-.3,8.106,1.414,11.5,3.071,1.315.643,2.555,1.25,3.863,1.741,5.894,2.24,10.386-.6,16.567-5.173,8.721-6.448,22.007-3.392,33.857.444a2.772,2.772,0,1,1-1.708,5.274c-6.36-2.059-21.249-6.881-28.853-1.26-5.644,4.173-12.664,9.366-21.823,5.9-1.55-.585-2.966-1.28-4.336-1.948-2.991-1.461-5.568-2.734-8.7-2.52-2.479.161-4.939,1.454-7.541,2.825a44.13,44.13,0,0,1-5.16,2.431A21.842,21.842,0,0,1,366.617,863.855Z" transform="translate(-232.468 -781.345)"/></g><g transform="translate(92.005 22.203)"><path class="a" d="M285.839,817.743a2.778,2.778,0,0,1-1.892-.744c-9.842-9.184-13.571-22.962-14.919-30.357a2.771,2.771,0,0,1,5.453-1c2.084,11.437,6.912,21.387,13.249,27.3a2.773,2.773,0,0,1-1.89,4.8Z" transform="translate(-268.982 -783.37)"/></g><g transform="translate(59.334 44.41)"><path class="a" d="M258.79,808.444a2.771,2.771,0,0,1-1.7-4.964,58.561,58.561,0,0,1,25.346-11.256,2.773,2.773,0,0,1,.98,5.458,52.962,52.962,0,0,0-22.934,10.182A2.76,2.76,0,0,1,258.79,808.444Z" transform="translate(-256.016 -792.184)"/></g><g transform="translate(107.818 60.824)"><path class="a" d="M278.033,814.4a2.773,2.773,0,0,1-1.572-5.057c7.1-4.878,16.625-10.494,27.379-10.645a2.771,2.771,0,1,1,.078,5.541c-9.267.133-17.865,5.241-24.32,9.671A2.748,2.748,0,0,1,278.033,814.4Z" transform="translate(-275.258 -798.698)"/></g><g transform="translate(144.664 49.684)"><path class="a" d="M300.56,816.217a2.763,2.763,0,0,1-2.023-.875,33.742,33.742,0,0,1-8.625-17.882,2.772,2.772,0,1,1,5.483-.821,28.131,28.131,0,0,0,7.189,14.914,2.772,2.772,0,0,1-.131,3.918A2.743,2.743,0,0,1,300.56,816.217Z" transform="translate(-289.881 -794.277)"/></g><g transform="translate(52.514 33.894)"><path class="a" d="M419.785,847.094a2.79,2.79,0,0,1-.862-.138l-163.7-53.536a2.773,2.773,0,0,1,1.721-5.271l163.7,53.536a2.774,2.774,0,0,1-.862,5.41Z" transform="translate(-253.309 -788.01)"/></g></g><g transform="translate(2538.756 5210.12)"><path class="b" d="M377.081,831.18a2.775,2.775,0,0,1-2.6-3.749,54.5,54.5,0,0,0,3.444-20.45,2.771,2.771,0,1,1,5.541-.149,60.083,60.083,0,0,1-3.8,22.551A2.773,2.773,0,0,1,377.081,831.18Z" transform="translate(-374.307 -804.136)"/></g><g transform="translate(2402.861 4968.877)"><g transform="translate(3.32)"><path class="a" d="M376.693,752.483a76.51,76.51,0,0,1-21.241-3.278c-10.064-2.958-19.041-7.524-25.28-12.858-6.773-5.79-9.635-11.941-8.056-17.318,3.087-10.522,22.572-13.75,44.357-7.363s36.425,19.654,33.336,30.176v0C397.79,748.716,388.775,752.483,376.693,752.483ZM345.2,713.427c-10.059,0-17.02,2.835-18.248,7.022-.973,3.308,1.4,7.708,6.493,12.069,5.71,4.881,14.03,9.089,23.428,11.847,20.042,5.886,36.165,2.648,38.1-3.946S385.1,722.388,365.054,716.5A71.47,71.47,0,0,0,345.2,713.427Zm52.193,27.707h0Z" transform="translate(-321.692 -708.393)"/></g><g transform="translate(0 8.829)"><path class="a" d="M375.362,758.506a76.59,76.59,0,0,1-21.241-3.276c-21.783-6.4-36.425-19.654-33.336-30.176l3.334-11.349a2.52,2.52,0,0,1,4.835,1.419l-3.334,11.349c-1.935,6.591,9.877,18.036,29.921,23.919s36.17,2.646,38.1-3.946l3.331-11.349a2.52,2.52,0,0,1,4.835,1.419l-3.331,11.349C396.462,754.739,387.444,758.506,375.362,758.506Z" transform="translate(-320.374 -711.897)"/></g><g transform="translate(34.367 14.296)"><path class="a" d="M342.2,724.3a2.512,2.512,0,0,1-1.7-.663l-5.664-5.191a2.521,2.521,0,0,1,3.407-3.717l5.664,5.193a2.52,2.52,0,0,1-1.7,4.377Z" transform="translate(-334.013 -714.067)"/></g><g transform="translate(31.798 19.486)"><path class="a" d="M335.514,723.962a2.519,2.519,0,0,1-.809-4.906l8.232-2.794a2.519,2.519,0,0,1,1.618,4.772l-8.232,2.8A2.521,2.521,0,0,1,335.514,723.962Z" transform="translate(-332.994 -716.127)"/></g><g transform="translate(40.403 13.797)"><path class="a" d="M338.929,724.6a2.521,2.521,0,0,1-1.981-4.079l4.483-5.692a2.521,2.521,0,0,1,3.961,3.119l-4.483,5.692A2.523,2.523,0,0,1,338.929,724.6Z" transform="translate(-336.409 -713.869)"/></g><g transform="translate(40.82 19.487)"><path class="a" d="M348.139,721.691c-.05,0-.1,0-.149-.005l-9.043-.524a2.519,2.519,0,1,1,.295-5.029l9.041.524a2.519,2.519,0,0,1-.144,5.034Z" transform="translate(-336.574 -716.127)"/></g><g transform="translate(40.821 19.486)"><path class="a" d="M340.917,728.313a2.52,2.52,0,0,1-2.439-1.9l-1.824-7.146a2.518,2.518,0,1,1,4.881-1.245l1.824,7.146a2.518,2.518,0,0,1-2.442,3.142Z" transform="translate(-336.575 -716.127)"/></g></g><g transform="translate(2280.558 5141.471)"><path class="b" d="M297.977,913.978c-12.117,0-22.264-2.381-25.285-9.57-3.18-7.564,2.5-17.822,16.9-30.493a2.772,2.772,0,0,1,3.661,4.163c-11.88,10.459-17.512,19.273-15.448,24.182,2.212,5.264,15.6,8.935,46.561,3.457,28.284-5.007,64.008-16.237,100.6-31.62,79.622-33.482,128.762-71.915,123.062-85.466-1.993-4.739-11.709-6.906-26.669-5.971a2.772,2.772,0,0,1-.348-5.533c18.212-1.161,29.029,1.993,32.126,9.353,9.222,21.929-58.049,64.141-126.023,92.725-36.957,15.542-73.1,26.9-101.781,31.97A163.181,163.181,0,0,1,297.977,913.978Z" transform="translate(-271.835 -776.891)"/><g transform="translate(96.067 22.339)"><path class="b" d="M312.735,816.619a2.774,2.774,0,0,1-1.2-5.274c9.436-4.525,19.273-8.947,29.239-13.138,10.517-4.422,21.1-8.554,31.451-12.289a2.773,2.773,0,0,1,1.88,5.218c-10.263,3.7-20.755,7.8-31.181,12.18-9.882,4.157-19.636,8.539-28.992,13.027A2.74,2.74,0,0,1,312.735,816.619Z" transform="translate(-309.961 -785.757)"/></g><g transform="translate(0.639 7.891)"><path class="b" d="M402.572,981.421a153.15,153.15,0,0,1-51.1-8.693c-36.684-12.969-64.8-38.922-79.164-73.079a2.772,2.772,0,0,1,5.11-2.149c13.75,32.7,40.706,57.56,75.9,70,35.288,12.472,74.623,10.971,110.758-4.221,74.5-31.332,111.985-111.814,83.558-179.41a2.772,2.772,0,0,1,5.11-2.152c29.612,70.418-9.2,154.155-86.519,186.669A164.253,164.253,0,0,1,402.572,981.421Z" transform="translate(-272.089 -780.023)"/></g></g></g></svg>