<svg id="グループ_1584" data-name="グループ 1584" xmlns="http://www.w3.org/2000/svg" width="182.851" height="182.848" viewBox="0 0 182.851 182.848">
  <defs>
    <style>
      .cls-1 {
        fill: #00a12f;
      }
    </style>
  </defs>
  <g id="グループ_1574" data-name="グループ 1574">
    <path id="パス_1391" data-name="パス 1391" class="cls-1" d="M136.22,643.386a91.424,91.424,0,1,1,91.425-91.423A91.526,91.526,0,0,1,136.22,643.386Zm0-175.781a84.357,84.357,0,1,0,84.359,84.358A84.456,84.456,0,0,0,136.22,467.6Z" transform="translate(-44.795 -460.538)"/>
  </g>
  <g id="グループ_1579" data-name="グループ 1579" transform="translate(68.78 74.095)">
    <g id="グループ_1575" data-name="グループ 1575">
      <path id="パス_1392" data-name="パス 1392" class="cls-1" d="M82.215,512.926a13.088,13.088,0,1,1,13.091-13.088A13.1,13.1,0,0,1,82.215,512.926Zm0-19.109a6.021,6.021,0,1,0,6.024,6.021A6.026,6.026,0,0,0,82.215,493.817Z" transform="translate(-69.127 -486.75)"/>
    </g>
    <g id="グループ_1576" data-name="グループ 1576" transform="translate(8.321 13.106)">
      <circle id="楕円形_41" data-name="楕円形 41" class="cls-1" cx="4.768" cy="4.768" r="4.768"/>
    </g>
    <g id="グループ_1577" data-name="グループ 1577" transform="translate(19.112)">
      <path id="パス_1393" data-name="パス 1393" class="cls-1" d="M88.976,512.926a13.088,13.088,0,1,1,13.091-13.088A13.1,13.1,0,0,1,88.976,512.926Zm0-19.109A6.021,6.021,0,1,0,95,499.838,6.026,6.026,0,0,0,88.976,493.817Z" transform="translate(-75.888 -486.75)"/>
    </g>
    <g id="グループ_1578" data-name="グループ 1578" transform="translate(27.432 13.106)">
      <circle id="楕円形_42" data-name="楕円形 42" class="cls-1" cx="4.768" cy="4.768" r="4.768"/>
    </g>
  </g>
  <g id="グループ_1580" data-name="グループ 1580" transform="translate(79.229 105.978)">
    <path id="パス_1394" data-name="パス 1394" class="cls-1" d="M88.3,521.793H76.359a3.535,3.535,0,0,1-3.214-5L80.8,500.1a3.533,3.533,0,1,1,6.425,2.943l-5.357,11.689H88.3a3.533,3.533,0,0,1,0,7.067Z" transform="translate(-72.823 -498.029)"/>
  </g>
  <g id="グループ_1581" data-name="グループ 1581" transform="translate(22.258 87.892)">
    <path id="パス_1395" data-name="パス 1395" class="cls-1" d="M121.837,564.329a69.245,69.245,0,0,1-69.168-69.165,3.533,3.533,0,0,1,7.067,0,62.1,62.1,0,0,0,124.2,0,3.533,3.533,0,0,1,7.067,0A69.245,69.245,0,0,1,121.837,564.329Z" transform="translate(-52.669 -491.631)"/>
  </g>
  <g id="グループ_1582" data-name="グループ 1582" transform="translate(128.383 46.323)">
    <path id="パス_1396" data-name="パス 1396" class="cls-1" d="M122.558,498.3a3.532,3.532,0,0,1-.622-.054A61.091,61.091,0,0,1,91.342,483.05a3.533,3.533,0,1,1,4.808-5.179,53.977,53.977,0,0,0,27.015,13.416,3.532,3.532,0,0,1-.608,7.01Z" transform="translate(-90.212 -476.925)"/>
  </g>
  <g id="グループ_1583" data-name="グループ 1583" transform="translate(23.848 27.998)">
    <path id="パス_1397" data-name="パス 1397" class="cls-1" d="M69.5,505.727a59.386,59.386,0,0,1-13.526-1.62,3.533,3.533,0,1,1,1.594-6.883c30.625,7.1,43.826-14.139,44.374-15.05a3.542,3.542,0,0,1,4.678-1.314c14.213,7.454,41.256,7.779,51.277-8.718a3.533,3.533,0,1,1,6.041,3.666c-11.666,19.2-40.389,20.18-57.832,12.627A46.4,46.4,0,0,1,69.5,505.727Z" transform="translate(-53.231 -470.443)"/>
  </g>
</svg>
