<svg xmlns="http://www.w3.org/2000/svg" width="13.136" height="28.274" viewBox="0 0 13.136 28.274"><defs><style>.a{fill:#00ae42;fill-rule:evenodd;}</style></defs><g transform="translate(0 0)"><path class="a" d="M335.973,737.6v13.67a.356.356,0,0,0,.356.356h5.076a.356.356,0,0,0,.356-.356V737.374h3.681a.356.356,0,0,0,.355-.326l.354-4.185a.357.357,0,0,0-.355-.387h-4.035v-2.969a1.26,1.26,0,0,1,1.26-1.26h2.837a.356.356,0,0,0,.355-.357V723.7a.356.356,0,0,0-.355-.357h-4.793a5.093,5.093,0,0,0-5.093,5.092v4.035h-2.538a.357.357,0,0,0-.356.356v4.186a.356.356,0,0,0,.356.356h2.538Z" transform="translate(-333.079 -723.348)"/></g></svg>