<svg xmlns="http://www.w3.org/2000/svg" width="29.494" height="29.494" viewBox="0 0 29.494 29.494"><defs><style>.a{fill:#00ae42;}</style></defs><path class="a" d="M399.346,728.338a1.734,1.734,0,1,0,1.734,1.734A1.734,1.734,0,0,0,399.346,728.338Zm-7.708,2.223a7.283,7.283,0,1,0,7.284,7.283A7.292,7.292,0,0,0,391.637,730.561Zm0,11.949a4.665,4.665,0,1,1,4.666-4.666A4.671,4.671,0,0,1,391.637,742.51Zm14.7-10.719a8.884,8.884,0,0,0-8.884-8.884H385.725a8.884,8.884,0,0,0-8.885,8.884v11.726a8.884,8.884,0,0,0,8.885,8.883H397.45a8.883,8.883,0,0,0,8.884-8.883Zm-2.782,11.726a6.1,6.1,0,0,1-6.1,6.1H385.725a6.1,6.1,0,0,1-6.1-6.1V731.791a6.1,6.1,0,0,1,6.1-6.1H397.45a6.1,6.1,0,0,1,6.1,6.1Z" transform="translate(-376.84 -722.907)"/></svg>