<svg xmlns="http://www.w3.org/2000/svg" width="48.411" height="110.16" viewBox="0 0 48.411 110.16"><defs><style>.a{fill:#00ae42;}</style></defs><g transform="translate(-1640.909 -1524.507)"><path class="a" d="M1657.027,1551.571a86.653,86.653,0,0,1-10.292,14.866l-5.826-3.921a54.072,54.072,0,0,0,10.074-13.832Zm12.034-7.623v24.832c0,3.1-1.742,5.01-5.5,5.01a75.3,75.3,0,0,1-8.713-.436l-.654-6.644a35.951,35.951,0,0,0,5.935.653c1.416,0,1.906-.489,1.906-1.906.054-2.015.054-18.95.054-21.456v-.053h-13.5c-1.635,0-3.649.053-5.174.217v-7.079a40.458,40.458,0,0,0,5.118.381h13.56v-4.3a36.09,36.09,0,0,0-.381-4.628h7.9a32.547,32.547,0,0,0-.545,4.683v4.247h12.471a42.977,42.977,0,0,0,5.282-.327v6.971c-1.688-.11-3.813-.163-5.229-.163Zm10.893,4.574a122.778,122.778,0,0,1,9.147,14.1l-6.262,3.431a101.56,101.56,0,0,0-8.713-14.376Zm-3-17.806a6.181,6.181,0,1,1,6.154,6.153A6.195,6.195,0,0,1,1676.958,1530.716Zm3.213,0a2.953,2.953,0,0,0,2.941,2.886,2.87,2.87,0,0,0,2.886-2.886,2.837,2.837,0,0,0-2.886-2.886A2.917,2.917,0,0,0,1680.17,1530.716Z" transform="translate(0 0)"/><path class="a" d="M1676.528,1626.255c.056-.817.056-1.8.056-2.777h-24.4a68.292,68.292,0,0,0-6.862.327v-7.677c1.8.163,4.247.325,6.643.325h24.67v-22.108h-24.015c-2.288,0-5.12.109-6.644.218V1587.1c2.016.218,4.793.381,6.59.381h26.954c1.58,0,3.759-.109,4.63-.163-.054,1.252-.163,3.322-.163,4.956v27.662c0,1.853.163,4.684.272,6.318Z" transform="translate(0.594 8.412)"/></g></svg>