<svg xmlns="http://www.w3.org/2000/svg" width="83.427" height="58.27" viewBox="0 0 83.427 58.27"><g transform="translate(0 0)"><g transform="translate(0 0)"><path d="M457.4,589.782H402.084a1.756,1.756,0,0,1-1.757-1.757v-51.3a1.756,1.756,0,0,1,1.757-1.757h67.395a1.757,1.757,0,0,1,1.757,1.757v28.089a1.757,1.757,0,1,1-3.514,0V538.482H403.841v47.787H457.4a1.757,1.757,0,0,1,0,3.514Z" transform="translate(-400.327 -534.968)" fill="#00ae42"/></g><g transform="translate(11.879 18.693)"><path d="M413.9,558.511a5.122,5.122,0,1,1,5.123-5.122A5.126,5.126,0,0,1,413.9,558.511Zm0-6.729a1.608,1.608,0,1,0,1.609,1.608A1.608,1.608,0,0,0,413.9,551.782Z" transform="translate(-408.779 -548.268)" fill="#00ae42"/></g><g transform="translate(25.955 22.058)"><path d="M444.311,554.176h-23.76a1.757,1.757,0,1,1,0-3.514h23.76a1.757,1.757,0,0,1,0,3.514Z" transform="translate(-418.794 -550.662)" fill="#00ae42"/></g><g transform="translate(11.879 32.575)"><path d="M413.9,568.388a5.122,5.122,0,1,1,5.123-5.122A5.126,5.126,0,0,1,413.9,568.388Zm0-6.729a1.608,1.608,0,1,0,1.609,1.608A1.608,1.608,0,0,0,413.9,561.659Z" transform="translate(-408.779 -558.145)" fill="#00ae42"/></g><g transform="translate(25.955 35.94)"><path d="M444.311,564.053h-23.76a1.757,1.757,0,1,1,0-3.514h23.76a1.757,1.757,0,0,1,0,3.514Z" transform="translate(-418.794 -560.539)" fill="#00ae42"/></g><g transform="translate(0 8.312)"><path d="M469.479,544.4H402.084a1.757,1.757,0,1,1,0-3.514h67.395a1.757,1.757,0,0,1,0,3.514Z" transform="translate(-400.327 -540.882)" fill="#00ae42"/></g><g transform="translate(58.449 33.294)"><path d="M460,583.633a1.749,1.749,0,0,1-1.242-.514l-5.874-5.872L449.93,580.2a1.757,1.757,0,0,1-2.939-.784l-5.018-18.547a1.759,1.759,0,0,1,2.156-2.155l18.547,5.016a1.757,1.757,0,0,1,.784,2.939l-2.956,2.956,5.872,5.872a1.758,1.758,0,0,1,0,2.485l-5.136,5.134A1.748,1.748,0,0,1,460,583.633ZM452.884,573a1.76,1.76,0,0,1,1.242.514L460,579.392l2.649-2.651-5.871-5.873a1.754,1.754,0,0,1,0-2.484l2.051-2.052-12.663-3.425,3.424,12.663,2.052-2.052A1.76,1.76,0,0,1,452.884,573Z" transform="translate(-441.913 -558.656)" fill="#898a8d"/></g></g></svg>