<svg xmlns="http://www.w3.org/2000/svg" width="81.286" height="82.201" viewBox="0 0 81.286 82.201"><g transform="translate(19.431 36.069)"><path d="M560.384,513.359H508.641a5.064,5.064,0,0,1-5.057-5.057V493.635a21.522,21.522,0,0,1,7.387-16.231l4.454-3.879v-6.3h12.9v5.158H540.7v-5.158h12.9v6.3l4.455,3.881a21.52,21.52,0,0,1,7.386,16.231V508.3A5.062,5.062,0,0,1,560.384,513.359Zm-41.445-42.619v4.381l-5.658,4.932a18.009,18.009,0,0,0-6.183,13.581V508.3a1.546,1.546,0,0,0,1.543,1.543h51.743a1.545,1.545,0,0,0,1.542-1.543V493.635a18,18,0,0,0-6.18-13.581l-5.661-4.931v-4.382h-5.868V475.9H524.81v-5.158Z" transform="translate(-503.584 -467.227)" fill="#898a8d"/></g><g transform="translate(11.932 0)"><path d="M504.363,481.5a4.362,4.362,0,0,1-3.487-1.733l-1.5-1.99a5.572,5.572,0,0,1-1.074-4.148l.845-6a4.342,4.342,0,0,1,.519-1.54c3.857-6.8,12.059-13.7,21.943-18.482S542,440.7,549.721,441.889a4.357,4.357,0,0,1,1.528.548l5.226,3.065a5.564,5.564,0,0,1,2.588,3.417l.63,2.409a4.366,4.366,0,0,1-2.316,5.022l-7.768,3.755a4.361,4.361,0,0,1-5.162-1.044l-3.008-3.407a.844.844,0,0,0-.791-.274,51.034,51.034,0,0,0-13.171,4.361h0a50.961,50.961,0,0,0-11.6,7.615.85.85,0,0,0-.28.793l.807,4.474a4.369,4.369,0,0,1-2.391,4.693l-7.765,3.755A4.326,4.326,0,0,1,504.363,481.5Zm40.808-36.433c-6.489,0-14.42,2.024-22.034,5.7-9.264,4.479-16.9,10.856-20.415,17.056a.8.8,0,0,0-.093.294l-.845,6a2.1,2.1,0,0,0,.4,1.549l1.5,1.99a.844.844,0,0,0,1.039.25l7.765-3.754a.841.841,0,0,0,.461-.907l-.807-4.476a4.349,4.349,0,0,1,1.4-4.039,54.452,54.452,0,0,1,12.4-8.152h0a54.545,54.545,0,0,1,14.094-4.661,4.343,4.343,0,0,1,4.032,1.411l3.009,3.41a.843.843,0,0,0,1,.2l7.764-3.754a.844.844,0,0,0,.447-.971l-.63-2.41a2.082,2.082,0,0,0-.964-1.273l-5.224-3.063a.843.843,0,0,0-.294-.111A26.532,26.532,0,0,0,545.171,445.069ZM526.71,458.16h0Z" transform="translate(-498.249 -441.564)" fill="#898a8d"/></g><g transform="translate(30.759 49.353)"><path d="M550.628,501.251H511.859l-.1-1.647c-.953-15.158,4.453-21.992,4.683-22.277l.527-.648h28.555l.527.648c.232.285,5.636,7.119,4.682,22.277Zm-35.444-3.514H547.3c.323-10.107-2.453-15.73-3.552-17.545H518.736C517.643,482,514.863,487.622,515.185,497.737Z" transform="translate(-511.644 -476.679)" fill="#00ae42"/></g><g transform="translate(41.817 49.356)"><path d="M521.294,501.25a1.756,1.756,0,0,1-1.755-1.718c-.311-13.646,2.128-21.32,2.233-21.64a1.756,1.756,0,0,1,3.341,1.084c-.022.073-2.357,7.49-2.06,20.478a1.759,1.759,0,0,1-1.717,1.8Z" transform="translate(-519.512 -476.681)" fill="#00ae42"/></g><g transform="translate(53.364 49.355)"><path d="M531.631,501.251h-.041a1.759,1.759,0,0,1-1.717-1.8c.3-12.988-2.038-20.4-2.06-20.478a1.756,1.756,0,0,1,3.341-1.082c.105.319,2.543,7.993,2.233,21.639A1.756,1.756,0,0,1,531.631,501.251Z" transform="translate(-527.728 -476.68)" fill="#00ae42"/></g><g transform="translate(32.405 56.374)"><path d="M546.859,485.188H514.572a1.757,1.757,0,1,1,0-3.514h32.287a1.757,1.757,0,0,1,0,3.514Z" transform="translate(-512.815 -481.674)" fill="#00ae42"/></g><g transform="translate(31.441 63.393)"><path d="M548.1,490.182H513.886a1.757,1.757,0,0,1,0-3.514H548.1a1.757,1.757,0,1,1,0,3.514Z" transform="translate(-512.129 -486.668)" fill="#00ae42"/></g><g transform="translate(0 33.541)"><path d="M508.822,500.569h-.013c-7.618-.053-12.394-2.582-14.2-7.515a9.208,9.208,0,0,1-.419-1.574,7.532,7.532,0,0,1-4.384-6.277,13.366,13.366,0,0,1,1.584-7.183c2.807-5.881,7.018-9.161,11.452-12.273a1.757,1.757,0,0,1,2.017,2.877c-4.964,3.484-8.076,6.256-10.3,10.909a10.1,10.1,0,0,0-1.261,5.314,4.6,4.6,0,0,0,1.04,2.509,13.7,13.7,0,0,1,2.565-5.255,7.912,7.912,0,0,1,3.144-2.6,4.324,4.324,0,0,1,5.861,5.581,8.687,8.687,0,0,1-2.235,3.258,11.642,11.642,0,0,1-5.788,3.449l.02.055c1.265,3.462,4.836,5.165,10.921,5.207a1.757,1.757,0,0,1-.011,3.514Zm-6.869-17.923a1.544,1.544,0,0,0-.573.114,4.452,4.452,0,0,0-1.692,1.493,10.532,10.532,0,0,0-1.92,3.942,9.825,9.825,0,0,0,3.425-2.332,5.527,5.527,0,0,0,1.4-1.91,1.242,1.242,0,0,0-.1-1.143A.781.781,0,0,0,501.953,482.646Z" transform="translate(-489.759 -465.429)" fill="#898a8d"/></g></svg>