<svg xmlns="http://www.w3.org/2000/svg" width="25.547" height="25.547" viewBox="0 0 25.547 25.547"><defs><style>.a{fill:#00ae42;}</style></defs><path class="a" d="M732.915,259.814h0a19.168,19.168,0,0,1-4.731,3.5.771.771,0,0,1-.763-.04l-2.993-1.889a1.481,1.481,0,0,0-1.838.205l-2.543,2.543a1.482,1.482,0,0,0-.152,1.917l.79,1.09a2.21,2.21,0,0,0,1.158.821l2.108.628a5.716,5.716,0,0,0,2.725.156,21.349,21.349,0,0,0,15.168-15.167,5.72,5.72,0,0,0-.156-2.726l-.628-2.107a2.209,2.209,0,0,0-.821-1.158l-1.09-.79a1.482,1.482,0,0,0-1.917.152l-2.545,2.545a1.482,1.482,0,0,0-.208,1.835l1.892,3.019a.768.768,0,0,1,.036.76A18.03,18.03,0,0,1,732.915,259.814Z" transform="translate(-749.316 -127.411) rotate(-9)"/></svg>