<svg xmlns="http://www.w3.org/2000/svg" width="409.974" height="416.102" viewBox="0 0 409.974 416.102"><defs><style>.a{fill:#898a8d;}.b{fill:#00ae42;}.c{fill:none;stroke:#00ae42;stroke-linecap:round;stroke-miterlimit:10;stroke-width:2.2px;}</style></defs><g transform="translate(-2178.524 -5577.055)"><g transform="translate(2295.556 5822.805)"><path class="a" d="M567.955,1207.058a2.769,2.769,0,0,1-2.752-2.477c-9.23-86.509-85.219-151.746-176.762-151.746a182.226,182.226,0,0,0-106.276,33.56,2.772,2.772,0,1,1-3.213-4.517,187.747,187.747,0,0,1,109.488-34.583c94.383,0,172.743,67.364,182.272,156.7a2.768,2.768,0,0,1-2.462,3.049A2.887,2.887,0,0,1,567.955,1207.058Z" transform="translate(-277.787 -1047.294)"/></g><g transform="translate(2268.174 5777.688)"><path class="a" d="M297.073,1135.058a2.755,2.755,0,0,1-1.8-.663c-32.076-27.364-30.932-77.524-25.2-102.849a2.772,2.772,0,1,1,5.407,1.224c-5.458,24.111-6.672,71.761,23.388,97.409a2.771,2.771,0,0,1-1.8,4.878Z" transform="translate(-266.92 -1029.389)"/></g><g transform="translate(2221.637 5687.645)"><path class="a" d="M268.727,1086.892a2.776,2.776,0,0,1-2.6-1.814l-6.239-16.973c-7.06-19.2-12.772-36.734-11.162-56.907.428-5.385,1.832-12.5,6.088-15.778a8.508,8.508,0,0,1,6.886-1.612c7.892,1.408,8.592,10.593,8.854,14.047a73.072,73.072,0,0,0,2.235,13.037,2.771,2.771,0,1,1-5.359,1.411,78.324,78.324,0,0,1-2.4-14.025c-.449-5.858-1.734-8.554-4.3-9.013a2.985,2.985,0,0,0-2.522.542c-2.008,1.55-3.485,5.972-3.951,11.833-1.519,19.054,4.009,35.976,10.837,54.551l6.241,16.973a2.774,2.774,0,0,1-2.6,3.729Z" transform="translate(-248.451 -993.653)"/></g><g transform="translate(2241.701 5726.138)"><path class="a" d="M276.047,1032.964a8.179,8.179,0,0,1-2.52-.4,6.476,6.476,0,0,1-4.379-4.4,2.771,2.771,0,1,1,5.342-1.479c.1.353.564.542.761.607a2.367,2.367,0,0,0,2.069-.265c1.406-1.109,1.608-3.487,1.2-5.226a9.513,9.513,0,0,0-17.061-3.276,2.772,2.772,0,0,1-4.546-3.175,15.058,15.058,0,0,1,27,5.185c1,4.276-.237,8.534-3.16,10.842A7.62,7.62,0,0,1,276.047,1032.964Z" transform="translate(-256.414 -1008.929)"/></g><g transform="translate(2201.288 5783.452)"><path class="a" d="M306.212,1205.286a67.807,67.807,0,0,1-7.851-.443c-16.935-1.938-32.451-10.288-42.57-22.9-12.016-14.98-17.164-36.808-14.891-63.121,2.656-30.776,23.411-67.009,35.548-85.869a2.772,2.772,0,0,1,4.661,3c-11.858,18.429-32.134,53.76-34.689,83.344-1.494,17.341-.335,41.683,13.695,59.175,9.212,11.488,23.383,19.094,38.876,20.868,14.627,1.673,30.163-1.827,43.744-9.849a2.772,2.772,0,1,1,2.822,4.772A77.9,77.9,0,0,1,306.212,1205.286Z" transform="translate(-240.375 -1031.676)"/></g><g transform="translate(2315.207 5827.558)"><path class="a" d="M288.362,1214.779a3.273,3.273,0,0,1-.466-.038,2.778,2.778,0,0,1-2.27-3.2c12.223-71.99,35.117-131.677,51.009-160.911a2.771,2.771,0,1,1,4.868,2.648c-15.685,28.861-38.3,87.872-50.412,159.192A2.773,2.773,0,0,1,288.362,1214.779Z" transform="translate(-285.587 -1049.181)"/></g><g transform="translate(2483.293 5840.498)"><path class="a" d="M399.274,1206.975a2.772,2.772,0,0,1-2.729-2.308c-12.677-74.661-34.983-127.255-43.986-146.4a2.772,2.772,0,0,1,5.017-2.358c9.1,19.352,31.645,72.5,44.435,147.828a2.778,2.778,0,0,1-2.27,3.2A3.271,3.271,0,0,1,399.274,1206.975Z" transform="translate(-352.296 -1054.316)"/></g><g transform="translate(2350.845 5860.282)"><path class="a" d="M387.929,1081.4a290.481,290.481,0,0,1-46.446-3.641c-25.061-4.069-39.451-10.013-40.051-10.265a2.771,2.771,0,0,1,2.137-5.113c.569.237,57.923,23.575,141.035,8.252a2.772,2.772,0,0,1,1.005,5.453A318.338,318.338,0,0,1,387.929,1081.4Z" transform="translate(-299.73 -1062.168)"/></g><g transform="translate(2375.83 5825.619)"><path class="a" d="M312.42,1095.825a2.665,2.665,0,0,1-.572-.063,2.77,2.77,0,0,1-2.142-3.281c.053-.25,5.314-25.22,10.517-42.114a2.773,2.773,0,0,1,5.3,1.635c-5.13,16.65-10.338,41.371-10.391,41.618A2.776,2.776,0,0,1,312.42,1095.825Z" transform="translate(-309.646 -1048.411)"/></g><g transform="translate(2462.732 5832.297)"><path class="a" d="M353.2,1096.559a2.771,2.771,0,0,1-2.746-2.437c-.028-.219-2.751-22.241-6.259-39.746a2.771,2.771,0,0,1,5.435-1.089c3.55,17.714,6.3,39.938,6.324,40.162a2.77,2.77,0,0,1-2.411,3.087A2.678,2.678,0,0,1,353.2,1096.559Z" transform="translate(-344.136 -1051.061)"/></g><g transform="translate(2178.524 5577.055)"><path class="b" d="M307.718,1039.254c-23.514,0-48.083-10.321-63.552-27.281-10.212-11.19-14.546-24-12.205-36.065,1.94-9.993,7.579-17.64,16.308-22.115,10.915-5.591,25.739-5.349,38.7.625,10.038,4.631,17.381,11.3,24.481,17.736,5.856,5.316,11.911,10.809,19.435,15.063,10.222,5.775,21.342,8.965,30.569,8.751a2.877,2.877,0,0,1,2.835,2.706,2.769,2.769,0,0,1-2.706,2.835c-10.139.237-22.355-3.213-33.424-9.464-8.066-4.558-14.352-10.265-20.432-15.784-7.106-6.445-13.813-12.535-23.078-16.809-11.45-5.276-24.418-5.556-33.847-.726a25.06,25.06,0,0,0-13.395,18.24c-2,10.3,1.857,21.407,10.857,31.272,16.486,18.072,44.052,28.067,68.6,24.895,12.79-1.66,25.562-7.194,40.194-17.414a156.443,156.443,0,0,1,18.646-11.462c4.54-2.3,9.744-4.629,14.052-3.175a7.569,7.569,0,0,1,4.42,3.984,2.772,2.772,0,0,1-4.981,2.432,1.978,1.978,0,0,0-1.2-1.162c-2.477-.826-7.6,1.759-9.787,2.868a151.324,151.324,0,0,0-17.97,11.064c-15.393,10.749-28.946,16.582-42.656,18.361A76.71,76.71,0,0,1,307.718,1039.254Z" transform="translate(-231.341 -949.762)"/><g transform="translate(130.175 48.974)"><path class="c" d="M283,969.2" transform="translate(-283.004 -969.199)"/></g><g transform="translate(18.215 15.331)"><path class="b" d="M297.226,1014.231c-16.527,0-33.326-5.559-44.289-14.748-8.884-7.443-13.979-16.62-14.35-25.837-.312-7.766,3.444-14.647,9.567-17.537a2.772,2.772,0,0,1,2.366,5.014c-4.672,2.2-6.576,7.763-6.4,12.3.3,7.637,4.7,15.383,12.372,21.811,10.447,8.756,26.81,13.891,42.739,13.422,14.8-.441,26.857-6.944,37.685-13.9l2.164-1.4c11.117-7.186,24.942-16.126,39.569-16.126l.146,0c9.315.033,19.724,7.151,19.76,17.308.04,10.956-11.858,17.618-23.07,18.326a65.329,65.329,0,0,1-8.809-.108,2.772,2.772,0,1,1,.406-5.528,58.729,58.729,0,0,0,8.053.1c7.441-.469,17.907-4.742,17.877-12.772-.023-6.715-7.536-11.762-14.239-11.787h-.126c-12.989,0-25.507,8.093-36.556,15.237l-2.18,1.406c-10.945,7.04-24.32,14.3-40.514,14.783Q298.315,1014.233,297.226,1014.231Z" transform="translate(-238.57 -955.847)"/></g><g transform="translate(32.864 29.96)"><path class="b" d="M255.539,972.776a2.771,2.771,0,0,1-2.741-2.4,3.7,3.7,0,0,0-4.793-3.014,2.771,2.771,0,1,1-1.7-5.276,9.239,9.239,0,0,1,11.981,7.536,2.776,2.776,0,0,1-2.371,3.124A3.225,3.225,0,0,1,255.539,972.776Z" transform="translate(-244.384 -961.653)"/></g><g transform="translate(52.814 25.51)"><path class="b" d="M264.1,970.143a2.769,2.769,0,0,1-2.666-2.026,3.7,3.7,0,0,0-5.16-2.333,2.771,2.771,0,0,1-2.4-5,9.236,9.236,0,0,1,12.9,5.836,2.773,2.773,0,0,1-1.923,3.417A2.855,2.855,0,0,1,264.1,970.143Z" transform="translate(-252.301 -959.886)"/></g><g transform="translate(77.394 43.857)"><path class="b" d="M274.452,976.317a2.768,2.768,0,0,1-2.487-1.55,3.7,3.7,0,0,0-5.5-1.351,2.771,2.771,0,1,1-3.278-4.467,9.235,9.235,0,0,1,13.747,3.371,2.771,2.771,0,0,1-2.484,4Z" transform="translate(-262.057 -967.168)"/></g><g transform="translate(55.72 48.592)"><path class="b" d="M266.046,977.609a2.778,2.778,0,0,1-2.348-1.293,3.694,3.694,0,0,0-5.609-.769,2.772,2.772,0,1,1-3.727-4.1,9.24,9.24,0,0,1,14.027,1.915,2.774,2.774,0,0,1-2.343,4.251Z" transform="translate(-253.455 -969.047)"/></g></g><g transform="translate(2377.225 5687.752)"><path class="a" d="M380.232,1133.757a70.031,70.031,0,1,1,70.03-70.032A70.111,70.111,0,0,1,380.232,1133.757Zm0-134.519a64.489,64.489,0,1,0,64.487,64.487A64.56,64.56,0,0,0,380.232,999.238Z" transform="translate(-310.2 -993.695)"/><g transform="translate(53.788 56.701)"><path class="a" d="M341.633,1036.366a10.084,10.084,0,1,1,10.084-10.084A10.1,10.1,0,0,1,341.633,1036.366Zm0-14.627a4.543,4.543,0,1,0,4.538,4.543A4.549,4.549,0,0,0,341.633,1021.739Z" transform="translate(-331.547 -1016.198)"/></g><g transform="translate(57.2 61.16)"><circle class="a" cx="3.649" cy="3.649" r="3.649"/></g><g transform="translate(68.412 56.701)"><path class="a" d="M347.437,1036.366a10.084,10.084,0,1,1,10.084-10.084A10.1,10.1,0,0,1,347.437,1036.366Zm0-14.627a4.543,4.543,0,1,0,4.541,4.543A4.546,4.546,0,0,0,347.437,1021.739Z" transform="translate(-337.351 -1016.198)"/></g><g transform="translate(71.825 61.16)"><circle class="a" cx="3.649" cy="3.649" r="3.649"/></g><g transform="translate(61.784 81.1)"><path class="a" d="M346.632,1044.2h-9.139a2.77,2.77,0,0,1-2.52-3.923l5.856-12.78a2.771,2.771,0,1,1,5.039,2.308l-4.057,8.854h4.82a2.77,2.77,0,1,1,0,5.541Z" transform="translate(-334.721 -1025.881)"/></g><g transform="translate(17.031 67.261)"><path class="a" d="M369.961,1076.155a53.058,53.058,0,0,1-53-53,2.773,2.773,0,0,1,5.546,0,47.456,47.456,0,1,0,94.912,0,2.772,2.772,0,0,1,5.543,0A53.058,53.058,0,0,1,369.961,1076.155Z" transform="translate(-316.959 -1020.389)"/></g><g transform="translate(98.247 35.452)"><path class="a" d="M374.009,1024.257a2.612,2.612,0,0,1-.486-.046,46.829,46.829,0,0,1-23.446-11.646,2.771,2.771,0,1,1,3.772-4.059,41.239,41.239,0,0,0,20.639,10.247,2.773,2.773,0,0,1-.479,5.5Z" transform="translate(-349.191 -1007.765)"/></g><g transform="translate(18.248 21.424)"><path class="a" d="M329.985,1029.338a45.893,45.893,0,0,1-10.4-1.242,2.771,2.771,0,1,1,1.252-5.4c23.39,5.415,33.469-10.789,33.885-11.487a2.783,2.783,0,0,1,3.669-1.03c10.855,5.695,31.506,5.946,39.151-6.647a2.772,2.772,0,1,1,4.74,2.878c-8.927,14.7-30.881,15.479-44.271,9.724a34.861,34.861,0,0,1-8.164,7.443A35.75,35.75,0,0,1,329.985,1029.338Z" transform="translate(-317.442 -1002.198)"/></g></g><g transform="translate(2431.653 5676.108)"><path class="a" d="M408.786,1046h-.005a2.77,2.77,0,0,1-2.767-2.777c.025-12.929-5.69-25.212-16.088-34.585-10.978-9.9-25.89-15.171-38.889-13.8-6.055.643-12.843,3.157-13.732,8.287a2.772,2.772,0,1,1-5.463-.95c1.2-6.934,8.161-11.742,18.611-12.848,14.524-1.55,31.073,4.278,43.185,15.2,11.583,10.439,17.948,24.189,17.92,38.713A2.771,2.771,0,0,1,408.786,1046Z" transform="translate(-331.801 -989.074)"/></g><g transform="translate(2459.889 5671.809)"><path class="a" d="M395.054,1057.6a2.769,2.769,0,0,1-2.011-4.674c6.352-6.71,13.571-17.87,2.986-37.226-4.722-8.63-12.924-15.307-25.074-20.4-6.632-2.787-16.312-3.958-23.592,1.114a2.773,2.773,0,0,1-3.167-4.553c7.635-5.309,18.711-5.954,28.906-1.676,13.349,5.607,22.44,13.082,27.787,22.859,9.252,16.917,8,31.207-3.822,43.694A2.757,2.757,0,0,1,395.054,1057.6Z" transform="translate(-343.007 -987.368)"/></g><g transform="translate(2497.466 5683.316)"><path class="a" d="M360.691,1014.305a2.769,2.769,0,0,1-1.93-4.757c3.341-3.243,4.651-8.809,3.339-14.183a2.771,2.771,0,0,1,5.385-1.315c1.8,7.357-.065,14.821-4.863,19.475A2.755,2.755,0,0,1,360.691,1014.305Z" transform="translate(-357.92 -991.935)"/></g><g transform="translate(2319.017 5666.158)"><path class="b" d="M289.869,1004.854a2.773,2.773,0,0,1-.5-5.5,21.7,21.7,0,0,0,15.657-12.54,2.772,2.772,0,1,1,5.1,2.169,27.025,27.025,0,0,1-19.757,15.826A3.116,3.116,0,0,1,289.869,1004.854Z" transform="translate(-287.099 -985.125)"/></g><g transform="translate(2261.049 5712.105)"><path class="a" d="M278.441,1064.3a2.77,2.77,0,0,1-1.887-4.8c7.867-7.312,11.505-17.361,10.815-29.871-.287-5.254-2-17.764-11.631-20.51-2.331-.66-5.558.272-6.216,2.484a2.771,2.771,0,0,1-5.312-1.585c1.635-5.488,8.071-7.647,13.049-6.231,13.057,3.727,15.292,19.1,15.645,25.537.774,14.03-3.575,25.87-12.576,34.235A2.763,2.763,0,0,1,278.441,1064.3Z" transform="translate(-264.093 -1003.36)"/></g><g transform="translate(2443.579 5895.703)"><path class="a" d="M348.2,1096.614c-3.14,0-6.2-.118-9.126-.368a2.773,2.773,0,0,1-2.54-2.762v-10.53a2.767,2.767,0,0,1,.9-2.041,2.7,2.7,0,0,1,2.106-.721,125.061,125.061,0,0,0,41.046-3.863,2.741,2.741,0,0,1,2.419.461,2.771,2.771,0,0,1,1.1,2.208v10.53a2.768,2.768,0,0,1-2.028,2.669A131.5,131.5,0,0,1,348.2,1096.614Zm-6.123-5.712a126.322,126.322,0,0,0,36.478-3.5v-4.82a133.079,133.079,0,0,1-36.478,3.342Z" transform="translate(-336.534 -1076.225)"/></g><path class="b" d="M334.164,992.311a2.778,2.778,0,0,1-2.593-1.792L325.66,974.91a2.772,2.772,0,0,1,5.183-1.966l5.914,15.612a2.771,2.771,0,0,1-1.61,3.573A2.806,2.806,0,0,1,334.164,992.311Z" transform="translate(2090.245 4659.802)"/><path class="b" d="M353.757,993.921a2.728,2.728,0,0,1-.617-.071,2.772,2.772,0,0,1-2.089-3.316l5.317-23.416a2.772,2.772,0,0,1,5.407,1.227l-5.317,23.416A2.776,2.776,0,0,1,353.757,993.921Z" transform="translate(2129.001 4650.386)"/><path class="b" d="M371.462,991.836a2.77,2.77,0,0,1-2.232-4.409l6.405-8.741a2.773,2.773,0,1,1,4.473,3.278L373.7,990.7A2.773,2.773,0,0,1,371.462,991.836Z" transform="translate(2155.917 4669.526)"/><path class="b" d="M395.93,1010.606H381.1a2.772,2.772,0,1,1,0-5.543H395.93a2.772,2.772,0,1,1,0,5.543Z" transform="translate(2170.558 4711.331)"/><path class="b" d="M385.44,1030.06a2.7,2.7,0,0,1-.756-.106l-7.2-2.036a2.772,2.772,0,1,1,1.509-5.334l7.2,2.036a2.772,2.772,0,0,1-.753,5.44Z" transform="translate(2166.217 4737.794)"/><path class="b" d="M379.416,1004.536a2.773,2.773,0,0,1-1.074-5.329l24.426-10.248a2.772,2.772,0,0,1,2.142,5.113l-24.423,10.248A2.82,2.82,0,0,1,379.416,1004.536Z" transform="translate(2167.998 4686.532)"/></g></svg>