<svg xmlns="http://www.w3.org/2000/svg" width="501.455" height="444.108" viewBox="0 0 501.455 444.108"><defs><style>.a{fill:#898a8d;}.b{fill:#00ae42;}</style></defs><g transform="translate(-2158.78 -4286.75)"><g transform="translate(2247.507 4561.436)"><path class="a" d="M261.492,687.291c-.066,0-.131,0-.194-.005a2.771,2.771,0,0,1-2.573-2.958c4.228-60.732,38.821-114.659,88.131-137.384a2.772,2.772,0,0,1,2.321,5.034c-47.5,21.891-80.834,73.991-84.924,132.735A2.771,2.771,0,0,1,261.492,687.291Z" transform="translate(-258.718 -546.691)"/></g><g transform="translate(2437.218 4561.602)"><path class="a" d="M422.946,687.191a2.769,2.769,0,0,1-2.762-2.578c-4.079-58.558-37.276-110.595-84.571-132.572a2.773,2.773,0,0,1,2.336-5.029c49.855,23.166,83.483,75.745,87.764,137.215a2.77,2.77,0,0,1-2.57,2.958C423.075,687.191,423.009,687.191,422.946,687.191Z" transform="translate(-334.009 -546.757)"/></g><g transform="translate(2183.647 4569.802)"><path class="a" d="M237.312,649.471a2.771,2.771,0,0,1-2.744-2.424,146.747,146.747,0,0,1,20.5-95.726,2.771,2.771,0,0,1,4.709,2.923,141.21,141.21,0,0,0-19.707,92.105,2.776,2.776,0,0,1-2.754,3.122Z" transform="translate(-233.374 -550.011)"/></g><g transform="translate(2283.115 4507.177)"><path class="a" d="M275.622,534.657a2.773,2.773,0,0,1-.738-5.445,136.08,136.08,0,0,1,20.707-4.034,2.772,2.772,0,0,1,.635,5.508,130.464,130.464,0,0,0-19.863,3.87A2.911,2.911,0,0,1,275.622,534.657Z" transform="translate(-272.85 -525.157)"/></g><g transform="translate(2307.173 4409.572)"><path class="a" d="M285.167,547.422a2.77,2.77,0,0,1-2.167-4.5c32.066-40.381,82.855-61.637,132.556-55.449a2.772,2.772,0,1,1-.685,5.5c-47.784-5.924-96.656,14.521-127.532,53.4A2.766,2.766,0,0,1,285.167,547.422Z" transform="translate(-282.398 -486.42)"/></g><g transform="translate(2534.187 4472.501)"><path class="a" d="M389.107,546.527a2.775,2.775,0,0,1-2.633-1.9,134.432,134.432,0,0,0-13.558-28.989,2.771,2.771,0,1,1,4.7-2.933,139.721,139.721,0,0,1,14.12,30.186,2.77,2.77,0,0,1-1.761,3.5A2.838,2.838,0,0,1,389.107,546.527Z" transform="translate(-372.494 -511.395)"/></g><g transform="translate(2324.226 4466.006)"><path class="a" d="M353.156,636.795a63.989,63.989,0,1,1,63.99-63.988A64.062,64.062,0,0,1,353.156,636.795Zm0-122.435A58.447,58.447,0,1,0,411.6,572.807,58.512,58.512,0,0,0,353.156,514.36Z" transform="translate(-289.166 -508.817)"/><g transform="translate(47.913 51.698)"><path class="a" d="M317.6,548.093a9.417,9.417,0,0,1-6.667-16.083h0a9.646,9.646,0,0,1,13.334,0,9.419,9.419,0,0,1-6.667,16.083Zm0-13.3a3.857,3.857,0,0,0-2.746,1.136h0a3.887,3.887,0,1,0,2.746-1.136Zm-4.707-.822h0Z" transform="translate(-308.182 -529.334)"/></g><g transform="translate(56.372 55.356)"><circle class="a" cx="3.321" cy="3.321" r="3.321"/></g><g transform="translate(61.223 51.698)"><path class="a" d="M322.886,548.093a9.417,9.417,0,0,1-6.665-16.083,9.643,9.643,0,0,1,13.332,0,9.433,9.433,0,0,1,0,13.329v0A9.4,9.4,0,0,1,322.886,548.093Zm4.709-4.714h0Zm-4.709-8.59a3.883,3.883,0,1,0,2.749,1.136A3.856,3.856,0,0,0,322.886,534.789Z" transform="translate(-313.464 -529.334)"/></g><g transform="translate(69.683 55.356)"><circle class="a" cx="3.321" cy="3.321" r="3.321"/></g><g transform="translate(55.187 73.814)"><path class="a" d="M322.157,555.289H313.84a2.771,2.771,0,0,1-2.52-3.926l5.329-11.631a2.771,2.771,0,1,1,5.039,2.308l-3.53,7.705h4a2.772,2.772,0,1,1,0,5.543Z" transform="translate(-311.068 -538.112)"/></g><g transform="translate(15.504 61.219)"><path class="a" d="M343.806,584.371a48.542,48.542,0,0,1-48.487-48.486,2.772,2.772,0,1,1,5.543,0,42.943,42.943,0,1,0,85.886,0,2.773,2.773,0,0,1,5.546,0A48.542,48.542,0,0,1,343.806,584.371Z" transform="translate(-295.319 -533.113)"/></g><g transform="translate(30.206 23.408)"><path class="a" d="M347.94,534.608c-.4,0-.8-.01-1.2-.025a14.683,14.683,0,0,1-6.891-1.764,9.334,9.334,0,0,1-4.629-5.873,59.4,59.4,0,0,1-11.182,4.818c-5.848,1.771-12.589,3.324-18.575-.716a9.469,9.469,0,0,1-3.727-11.137,2.772,2.772,0,0,1,5.193,1.94,3.914,3.914,0,0,0,1.635,4.6c3.969,2.671,9.026,1.469,13.868.005a64,64,0,0,0,14.209-6.725,2.772,2.772,0,0,1,4.11,3.082c-.829,3.14.489,4.4,1.887,5.213a9.389,9.389,0,0,0,4.336,1.016,22.712,22.712,0,0,0,7.67-1.013,36.517,36.517,0,0,0,12.863-6.778,2.772,2.772,0,0,1,3.462,4.331,42.175,42.175,0,0,1-14.657,7.733A27.808,27.808,0,0,1,347.94,534.608Z" transform="translate(-301.154 -518.107)"/></g></g><g transform="translate(2158.78 4449.278)"><path class="a" d="M287.627,630.153a63.985,63.985,0,1,1,27.717-6.36A64.069,64.069,0,0,1,287.627,630.153Zm-.191-122.43a58.446,58.446,0,1,0,52.727,33.036A58.089,58.089,0,0,0,287.435,507.724Z" transform="translate(-223.505 -502.178)"/><g transform="translate(11.393 26.502)"><path class="a" d="M230.8,561.17a2.774,2.774,0,0,1-2.376-4.193A90.918,90.918,0,0,1,318.47,513.51a2.77,2.77,0,1,1-.738,5.491,85.387,85.387,0,0,0-84.553,40.814A2.775,2.775,0,0,1,230.8,561.17Z" transform="translate(-228.026 -512.696)"/></g><g transform="translate(47.312 54.791)"><path class="a" d="M251.7,542.783a9.428,9.428,0,1,1,8.912-6.325A9.372,9.372,0,0,1,251.7,542.783Zm.005-13.314a3.889,3.889,0,1,0,1.285.219A3.833,3.833,0,0,0,251.709,529.469Z" transform="translate(-242.282 -523.923)"/></g><g transform="translate(56.571 61.999)"><circle class="a" cx="3.321" cy="3.321" r="3.321"/></g><g transform="translate(59.305 49.005)"><path class="a" d="M256.477,540.487a9.429,9.429,0,1,1,3.1-18.333h0a9.431,9.431,0,0,1-3.1,18.333Zm-.005-13.316a3.884,3.884,0,0,0-1.283,7.551,3.883,3.883,0,0,0,2.558-7.332h0A3.821,3.821,0,0,0,256.472,527.171Z" transform="translate(-247.041 -521.627)"/></g><g transform="translate(68.559 56.212)"><circle class="a" cx="3.321" cy="3.321" r="3.321"/></g><g transform="translate(66.094 72.866)"><path class="a" d="M252.762,549.434a2.771,2.771,0,0,1-2.772-2.716l-.255-12.79a2.771,2.771,0,0,1,5.541-.108l.169,8.469,3.6-1.736a2.771,2.771,0,1,1,2.411,4.989l-7.491,3.618A2.769,2.769,0,0,1,252.762,549.434Z" transform="translate(-249.736 -531.097)"/></g><g transform="translate(20.079 41.341)"><path class="a" d="M275.494,589.716a48.551,48.551,0,0,1-43.744-27.4,2.773,2.773,0,0,1,4.994-2.411,42.943,42.943,0,1,0,77.347-37.335,2.773,2.773,0,0,1,4.994-2.411,48.481,48.481,0,0,1-43.591,69.561Z" transform="translate(-231.474 -518.585)"/></g><g transform="translate(26.603 9.184)"><path class="a" d="M240.139,547.872a2.776,2.776,0,0,1-2.59-1.786,54.527,54.527,0,0,1,.043-38.481,2.77,2.77,0,1,1,5.173,1.983,48.954,48.954,0,0,0-.038,34.525,2.776,2.776,0,0,1-2.588,3.759Z" transform="translate(-234.063 -505.823)"/></g><g transform="translate(39.986 4.337)"><path class="a" d="M270.754,532.124a2.782,2.782,0,0,1-2.389-1.358,48.917,48.917,0,0,0-27.051-21.448,2.771,2.771,0,0,1,1.663-5.286,54.552,54.552,0,0,1,30.158,23.9,2.777,2.777,0,0,1-2.381,4.19Z" transform="translate(-239.374 -503.899)"/></g></g><g transform="translate(2439.884 4338.484)"><g transform="translate(0 19.502)"><path class="a" d="M398.948,593.915a63.985,63.985,0,1,1,57.437-35.565h0A64.064,64.064,0,0,1,398.948,593.915Zm.156-122.46a58.549,58.549,0,1,0,25.9,6.11A58.564,58.564,0,0,0,399.1,471.455Zm54.8,85.665h0Z" transform="translate(-335.068 -465.947)"/></g><g transform="translate(49.906 68.45)"><path class="a" d="M364.313,504.233a9.426,9.426,0,0,1-3.349-18.243,9.43,9.43,0,0,1,12.155,5.48,9.437,9.437,0,0,1-5.48,12.152l0,0A9.381,9.381,0,0,1,364.313,504.233Zm2.343-3.2h0ZM364.3,490.919a3.9,3.9,0,1,0,1.595.348A3.847,3.847,0,0,0,364.3,490.919Z" transform="translate(-354.874 -485.373)"/></g><g transform="translate(61.83 74.365)"><path class="a" d="M369.017,506.579a9.428,9.428,0,0,1-1.608-18.714,9.425,9.425,0,1,1,3.255,18.568A9.116,9.116,0,0,1,369.017,506.579Zm.02-13.312a4.07,4.07,0,0,0-.673.056,3.9,3.9,0,1,0,.673-.056Z" transform="translate(-359.606 -487.721)"/></g><g transform="translate(45.047 91.693)"><path class="a" d="M363.167,511.887a2.74,2.74,0,0,1-1.227-.29l-7.453-3.694a2.771,2.771,0,0,1-.514-4.636l9.94-8.05a2.771,2.771,0,0,1,3.49,4.306l-6.584,5.332,3.58,1.776a2.773,2.773,0,0,1-1.232,5.256Z" transform="translate(-352.945 -494.598)"/></g><g transform="translate(15.472 60.41)"><path class="a" d="M389.642,553.741a48.48,48.48,0,0,1-43.364-70.015,2.771,2.771,0,0,1,4.966,2.459A42.945,42.945,0,1,0,428.2,524.331a2.772,2.772,0,0,1,4.966,2.462A48.549,48.549,0,0,1,389.642,553.741Z" transform="translate(-341.208 -482.182)"/></g><g transform="translate(30.106)"><path class="a" d="M353.086,488.484a2.765,2.765,0,0,1-2.174-1.051,18.031,18.031,0,1,1,31.587-6.664,2.772,2.772,0,0,1-5.364-1.4,12.487,12.487,0,1,0-21.876,4.621,2.771,2.771,0,0,1-2.172,4.493Z" transform="translate(-347.016 -458.207)"/></g><g transform="translate(32.677 58.726)"><path class="a" d="M368.733,500.488a2.765,2.765,0,0,1-2.255-1.157c-6.987-9.744-12.321-13.09-14.5-12.079a2.771,2.771,0,1,1-2.328-5.029c5.674-2.623,12.853,2.043,21.337,13.881a2.771,2.771,0,0,1-2.25,4.384Z" transform="translate(-348.036 -481.514)"/></g><g transform="translate(74.452 83.944)"><path class="a" d="M388.564,503.5a2.776,2.776,0,0,1-2.7-2.175c-.517-2.351-6.41-4.54-18.4-4.23a2.772,2.772,0,0,1-.156-5.541c14.566-.385,22.622,2.477,23.967,8.575a2.773,2.773,0,0,1-2.112,3.306A2.7,2.7,0,0,1,388.564,503.5Z" transform="translate(-364.616 -491.522)"/></g><g transform="translate(22.738 33.464)"><path class="a" d="M366.75,483.479a30.912,30.912,0,0,1-3.369-.181,42.935,42.935,0,0,1-17.988-6.687,2.773,2.773,0,0,1,2.943-4.7,37.359,37.359,0,0,0,15.647,5.876,23.034,23.034,0,0,0,13.208-2.293,2.772,2.772,0,1,1,2.593,4.9A28.01,28.01,0,0,1,366.75,483.479Z" transform="translate(-344.092 -471.488)"/></g><g transform="translate(63.71 34.283)"><path class="a" d="M404.381,496.675c-15.927,0-32.139-7.388-43.349-20.271a2.772,2.772,0,1,1,4.183-3.638c12.145,13.959,31.544,20.961,48.27,17.426a2.772,2.772,0,1,1,1.147,5.425A49.631,49.631,0,0,1,404.381,496.675Z" transform="translate(-360.352 -471.813)"/></g></g><g transform="translate(2323.318 4655.149)"><path class="b" d="M415.832,605.424a2.757,2.757,0,0,1-1.822-.683c-10.658-9.3-34.331-15.317-60.306-15.317s-49.646,6.015-60.3,15.317a2.772,2.772,0,1,1-3.643-4.178c11.787-10.29,36.291-16.68,63.947-16.68s52.163,6.39,63.95,16.68a2.771,2.771,0,0,1-1.822,4.861Z" transform="translate(-288.806 -583.883)"/></g><g transform="translate(2329.072 4707.615)"><path class="b" d="M350.234,620.9c-22.262,0-43.248-3.981-57.58-10.923a2.773,2.773,0,0,1,2.416-4.992c13.606,6.594,33.711,10.374,55.164,10.374,20.9,0,40.668-3.623,54.247-9.935a2.77,2.77,0,1,1,2.336,5.024C392.532,617.087,371.908,620.9,350.234,620.9Z" transform="translate(-291.089 -604.705)"/></g><g transform="translate(2519.218 4522.95)"><path class="b" d="M454.3,638.1c-23.816,0-48.5-9.441-65.076-23.433-15.191-12.82-24.023-32.512-22.5-50.17h0c1.262-14.655,7.766-24.854,19.326-30.314a27,27,0,0,1,20.115-1.466c6.743,2.232,13.133,6.849,19.533,14.105,1.822,2.069,3.558,4.23,5.236,6.322,2.338,2.915,4.76,5.932,7.365,8.6,9.5,9.751,23.292,16.852,40.988,21.1l2.706.633c4.85,1.116,9.87,2.273,14.5,4.659,6.624,3.407,10.54,8.925,11.026,15.542.592,8.038-3.88,16.5-11.674,22.088C483.815,634.39,469.228,638.1,454.3,638.1Zm-82.056-73.127c-1.348,15.672,6.911,33.94,20.556,45.455,25.378,21.428,70.758,31.663,99.815,10.835,6.138-4.4,9.817-11.142,9.373-17.174-.345-4.684-3.122-8.491-8.033-11.016-4.019-2.071-8.484-3.1-13.213-4.188-.92-.212-1.839-.423-2.754-.645-18.726-4.5-33.419-12.112-43.661-22.624-2.794-2.862-5.3-5.987-7.72-9-1.638-2.044-3.334-4.152-5.07-6.125-5.735-6.5-11.334-10.593-17.119-12.51a21.549,21.549,0,0,0-16.005,1.214c-9.782,4.624-15.073,13.057-16.169,25.782Z" transform="translate(-366.553 -531.417)"/></g><g transform="translate(2535.469 4543.994)"><path class="b" d="M443,609.633c-2.6,0-4.475-.121-5.1-.169-14.254-1.076-29.256-6.957-43.379-17.006-14.052-10-22.272-25.461-21.453-40.345.315-5.773,3.364-12.1,9.308-12.339a2.738,2.738,0,0,1,2.883,2.656,2.774,2.774,0,0,1-2.658,2.882c-2.495.1-3.84,4.216-4,7.106-.716,13,6.617,26.616,19.135,35.523,9.275,6.6,23.844,14.73,40.582,16,10.517.791,24.2-.92,29.38-6.559a8.418,8.418,0,0,0,2.038-7.489A2.772,2.772,0,1,1,475.2,589a14,14,0,0,1-3.427,12.125C464.965,608.542,450.754,609.633,443,609.633Z" transform="translate(-373.003 -539.768)"/></g><g transform="translate(2252.291 4286.75)"><path class="b" d="M294.154,553.926a34.762,34.762,0,0,1-22.813-8c-7.526-6.428-11.308-15.945-10.651-26.8a49.9,49.9,0,0,1,1.749-10.3A68.2,68.2,0,0,1,275.2,484.788a2.771,2.771,0,1,1,4.334,3.455,62.74,62.74,0,0,0-11.759,22.065,44.129,44.129,0,0,0-1.552,9.152c-.554,9.078,2.542,16.98,8.716,22.249,6.889,5.881,17.144,8.033,27.434,5.75,13.712-3.041,22.723-15.141,27.868-24.751l.935-1.751c6.256-11.724,12.727-23.846,23.2-32.514a99.719,99.719,0,0,1,10.951-7.514c6.723-4.183,13.07-8.134,17.041-14.413a15.941,15.941,0,0,0,2.018-12.425,12.14,12.14,0,0,0-6.216-7.794c-12.15-6.347-30.783-1.814-44.271,3.1a122.52,122.52,0,0,0-29.463,15.919,2.772,2.772,0,0,1-3.238-4.5A128.091,128.091,0,0,1,332,444.185c14.536-5.291,34.787-10.076,48.733-2.8a17.759,17.759,0,0,1,9,11.268,21.556,21.556,0,0,1-2.686,16.829c-4.646,7.353-11.84,11.827-18.8,16.156a93.4,93.4,0,0,0-10.343,7.08c-9.63,7.97-15.839,19.6-21.843,30.851l-.94,1.754c-8.161,15.257-19.072,24.784-31.554,27.553A43.59,43.59,0,0,1,294.154,553.926Z" transform="translate(-260.617 -437.675)"/></g><g transform="translate(2271.131 4303.687)"><path class="b" d="M282.668,526.138a15.753,15.753,0,0,1-10.109-3.4c-4.137-3.429-5.616-9.182-3.515-13.677a2.771,2.771,0,1,1,5.022,2.346c-1.018,2.174-.126,5.279,2.031,7.065a11.19,11.19,0,0,0,8.723,1.95c5.362-.824,9.237-3.374,13.382-8.8,3.82-5,6.8-10.633,9.958-16.595,2.351-4.445,4.785-9.043,7.592-13.332,7.446-11.371,17.683-17.106,28.521-23.176,3.832-2.147,8.144-6.34,7.693-11.084a2.773,2.773,0,1,1,5.521-.527c.7,7.393-4.966,13.344-10.5,16.448-10.228,5.727-19.888,11.14-26.59,21.375-2.666,4.072-5.039,8.557-7.332,12.891-3.122,5.9-6.352,12-10.452,17.366-3.346,4.384-8.3,9.588-16.942,10.915A19.615,19.615,0,0,1,282.668,526.138Z" transform="translate(-268.094 -444.397)"/></g><g transform="translate(2330.581 4684.659)"><path class="b" d="M349.324,617.577c-28.221,0-51.792-7.37-57.321-17.925a2.773,2.773,0,0,1,4.913-2.573c3.795,7.252,23.453,14.957,52.407,14.957s48.613-7.705,52.41-14.957a2.772,2.772,0,0,1,4.911,2.573C401.119,610.207,377.547,617.577,349.324,617.577Z" transform="translate(-291.688 -595.595)"/></g><g transform="translate(2272.662 4663.722)"><path class="a" d="M304.389,654.422a28.553,28.553,0,0,1-7.9-1.106c-12.944-3.729-26.852-17.021-27.722-32.8-.663-11.991,4.034-21.236,13.957-27.475,4.457-2.8,12.969-7.206,19.883-5.279a11.184,11.184,0,0,1,7.07,6.027c1.434,2.88.922,6.188-.355,9.114l.129-.008a12.677,12.677,0,0,1,7.776,1.948,10.891,10.891,0,0,1,4.629,8.673,11.831,11.831,0,0,1-1.726,6.352,11.7,11.7,0,0,1,8.267,4.727c4.9,6.322.907,15.8-2.759,20.3C320.687,650.96,312.621,654.422,304.389,654.422Zm-5.432-61.6c-3.482,0-8.25,1.739-13.289,4.906-8.2,5.158-11.921,12.51-11.371,22.476.65,11.737,11.291,24.2,23.726,27.785,8.411,2.421,18.217-.353,23.315-6.6,2.807-3.442,5.3-10.013,2.671-13.4-2.338-3.018-5.642-3.414-11.772-1.429a2.771,2.771,0,0,1-2.527-4.845c.627-.474,1.283-.912,1.94-1.348a18.164,18.164,0,0,0,2.638-1.98,6.632,6.632,0,0,0,2.023-4.747,5.344,5.344,0,0,0-2.2-4.208,7.418,7.418,0,0,0-4.4-1,27.471,27.471,0,0,0-5.659,1.119,2.772,2.772,0,0,1-2.681-4.636c2.414-2.416,4.377-6.564,3.334-8.655h0A5.569,5.569,0,0,0,301.1,593.1,8.02,8.02,0,0,0,298.957,592.826Z" transform="translate(-268.702 -587.285)"/></g><g transform="translate(2441.746 4663.723)"><path class="a" d="M362.084,654.422c-8.232,0-16.3-3.462-21.244-9.532-3.666-4.5-7.655-13.979-2.757-20.3a11.694,11.694,0,0,1,8.265-4.727,11.813,11.813,0,0,1-1.723-6.352,10.878,10.878,0,0,1,4.624-8.67,12.842,12.842,0,0,1,7.778-1.95l.131.008c-1.28-2.925-1.791-6.234-.358-9.114h0a11.184,11.184,0,0,1,7.07-6.027c6.912-1.925,15.426,2.474,19.885,5.281,9.92,6.239,14.617,15.481,13.954,27.472-.869,15.781-14.778,29.075-27.724,32.8A28.523,28.523,0,0,1,362.084,654.422Zm-14.07-29.092a6.48,6.48,0,0,0-5.548,2.656c-2.626,3.386-.136,9.96,2.671,13.4,5.1,6.251,14.9,9.028,23.315,6.6,12.435-3.586,23.078-16.048,23.725-27.785.549-9.965-3.17-17.318-11.374-22.473-6.173-3.883-11.946-5.611-15.433-4.639a5.569,5.569,0,0,0-3.606,3.162c-1.041,2.091.922,6.239,3.336,8.655a2.773,2.773,0,0,1-2.681,4.636,27.53,27.53,0,0,0-5.662-1.119,7.433,7.433,0,0,0-4.4,1,5.331,5.331,0,0,0-2.192,4.205,6.611,6.611,0,0,0,2.023,4.747,18.274,18.274,0,0,0,2.636,1.981c.658.436,1.313.874,1.94,1.348a2.771,2.771,0,0,1-2.53,4.845A20.863,20.863,0,0,0,348.014,625.329Z" transform="translate(-335.806 -587.286)"/></g><g transform="translate(2308.418 4583.48)"><path class="a" d="M398.493,611.9a23.835,23.835,0,0,1-8.839-1.633,47.238,47.238,0,0,1-5.019-2.424,39.683,39.683,0,0,0-4.77-2.28c-8.023-2.976-17.189-.2-26.056,2.495l-.973.295c-10.021,3.034-21.516,5.357-30.831-.386-1.129-.7-2.177-1.393-3.185-2.056-4.009-2.653-6.9-4.571-11.9-4.707-6.09-.169-12.54,2.139-19.686,7.055a2.771,2.771,0,0,1-3.538-4.236,116.541,116.541,0,0,0,27.916-46.66,2.772,2.772,0,0,1,5.281,1.688,124.64,124.64,0,0,1-19.8,38.05,30.106,30.106,0,0,1,9.978-1.441c6.579.184,10.573,2.827,14.8,5.626.96.635,1.958,1.3,3.039,1.96,7.436,4.591,17.471,2.474,26.313-.2l.97-.295c9.288-2.82,19.82-6.02,29.591-2.386a44.33,44.33,0,0,1,5.448,2.585,42.974,42.974,0,0,0,4.437,2.154c6.876,2.7,14.045.486,21.637-1.857a88.684,88.684,0,0,1,10.306-2.736,40.205,40.205,0,0,1,9.328-.355c-.844-1.187-1.7-2.366-2.535-3.533a148.465,148.465,0,0,1-9.167-13.763,126.927,126.927,0,0,1-10.384-23.808,2.772,2.772,0,1,1,5.281-1.688,121.411,121.411,0,0,0,9.928,22.77,144.765,144.765,0,0,0,8.839,13.246c2.419,3.356,4.921,6.826,7.159,10.411l0,0h0a2.771,2.771,0,0,1-4.7,2.933c-1.026-.864-7.683-1.678-12.762-.763a83.874,83.874,0,0,0-9.658,2.58C409.58,610.206,404.092,611.9,398.493,611.9Z" transform="translate(-282.892 -555.44)"/></g><g transform="translate(2285.29 4335.021)"><path class="b" d="M285.071,460.364a29.321,29.321,0,0,1,1.754,8.146,13.555,13.555,0,0,1-1.754,8.038,15.009,15.009,0,0,1-6,5.054,2.315,2.315,0,0,1-3.22-1.283,29.167,29.167,0,0,1-2.132-9.507c-.086-5.445,3.034-9.865,6.891-13.39a2.331,2.331,0,0,1,3.729.935Q284.721,459.36,285.071,460.364Z" transform="translate(-273.713 -456.832)"/></g><g transform="translate(2270.33 4317.838)"><path class="b" d="M290.516,457.962a29.355,29.355,0,0,1-7.025,4.483,13.539,13.539,0,0,1-8.146,1.154,15,15,0,0,1-6.828-3.865,2.313,2.313,0,0,1,.081-3.465,29.109,29.109,0,0,1,8.166-5.312c5.077-1.978,10.306-.592,14.952,1.794a2.331,2.331,0,0,1,.423,3.822C291.6,457.048,291.063,457.511,290.516,457.962Z" transform="translate(-267.776 -450.013)"/></g><g transform="translate(2306.132 4311.353)"><path class="b" d="M292.573,448.136a17.1,17.1,0,0,1,12.883,1.33A2.338,2.338,0,0,1,306,453.1a30.7,30.7,0,0,1-4.021,3.633,18.255,18.255,0,0,1-5.294,2.905,20.321,20.321,0,0,1-6.833.751,35.458,35.458,0,0,1-6.027-.8,2.327,2.327,0,0,1-1.338-3.727C285.155,452.458,288.338,449.421,292.573,448.136Z" transform="translate(-281.985 -447.439)"/></g><g transform="translate(2554.989 4549.508)"><ellipse class="b" cx="6.001" cy="9.099" rx="6.001" ry="9.099" transform="translate(0 9.172) rotate(-49.832)"/></g><g transform="translate(2565.056 4573.24)"><ellipse class="b" cx="6.329" cy="9.268" rx="6.329" ry="9.268" transform="matrix(0.34, -0.941, 0.941, 0.34, 0, 11.906)"/></g><g transform="translate(2599.135 4584.081)"><ellipse class="b" cx="9.099" cy="6.001" rx="9.099" ry="6.001"/></g><g transform="translate(2348.099 4673.113)"><rect class="b" width="20.084" height="9.548" rx="1.465" transform="translate(4.774 0) rotate(30)"/></g><g transform="translate(2381.04 4663.832)"><rect class="b" width="20.084" height="9.548" rx="1.465" transform="translate(0 12.359) rotate(-37.98)"/></g><g transform="translate(2407.134 4679.658)"><rect class="b" width="20.084" height="9.548" rx="1.465"/></g></g></svg>