<svg xmlns="http://www.w3.org/2000/svg" width="69.911" height="90.496" viewBox="0 0 69.911 90.496"><g transform="translate(0 0)"><g transform="translate(8.432 29.223)"><path d="M449.868,513.889H422.719a17.186,17.186,0,0,1-17.165-17.167V469.78a17.184,17.184,0,0,1,17.165-17.165h27.148a17.183,17.183,0,0,1,17.165,17.165v26.942A17.185,17.185,0,0,1,449.868,513.889Zm-27.148-57.76a13.668,13.668,0,0,0-13.652,13.652v26.942a13.669,13.669,0,0,0,13.652,13.653h27.148a13.668,13.668,0,0,0,13.651-13.653V469.78a13.667,13.667,0,0,0-13.651-13.652Zm27.148,49.4H422.719a8.814,8.814,0,0,1-8.8-8.8V469.78a8.814,8.814,0,0,1,8.8-8.8h27.148a8.813,8.813,0,0,1,8.8,8.8v26.942A8.813,8.813,0,0,1,449.868,505.526ZM422.719,464.49a5.3,5.3,0,0,0-5.29,5.29v26.942a5.3,5.3,0,0,0,5.29,5.29h27.148a5.294,5.294,0,0,0,5.289-5.29V469.78a5.3,5.3,0,0,0-5.289-5.29Z" transform="translate(-405.554 -452.615)" fill="#00ae42"/></g><g transform="translate(36.67 45.956)"><path d="M425.645,480.877l3.369-14.985a1.758,1.758,0,0,1,3.429.772l-2.093,9.308,4.572-1.233a1.757,1.757,0,1,1,.914,3.393Z" transform="translate(-425.645 -464.52)" fill="#898a8d"/></g><g transform="translate(0 3.326)"><path d="M418.175,456.484a1.754,1.754,0,0,1-1.522-.877l-5.172-8.938-3.59,3.848L399.8,436.842a1.758,1.758,0,0,1,3.025-1.791l5.7,9.636,3.621-3.882,7.549,13.042a1.755,1.755,0,0,1-1.519,2.637Z" transform="translate(-399.555 -434.189)" fill="#898a8d"/></g><g transform="translate(31.108 0)"><path d="M427.157,452.62h-.007a1.757,1.757,0,0,1-1.75-1.764l.025-6.732-3.737.51.745-11.169a1.73,1.73,0,0,1,1.869-1.636,1.756,1.756,0,0,1,1.636,1.869l-.457,6.871,3.474-.475-.042,10.776A1.758,1.758,0,0,1,427.157,452.62Z" transform="translate(-421.688 -431.823)" fill="#898a8d"/></g></g></svg>