<svg xmlns="http://www.w3.org/2000/svg" width="31.116" height="55.618" viewBox="0 0 31.116 55.618"><defs><style>.a{fill:none;stroke:#00ae42;stroke-linecap:round;stroke-miterlimit:10;stroke-width:3px;}</style></defs><g transform="translate(1.481 1.606)"><path class="a" d="M726.838,172.809c-.4-10.57-.706-21.121-.336-31.695a48.833,48.833,0,0,1,1.394-10.1,34.6,34.6,0,0,1,1.6-4.913c.835-2.007,1.287-4.256,3.5-5.228a3.229,3.229,0,0,1,4.167,1.292c1.183,1.9.556,4.016-.161,5.95a23.029,23.029,0,0,0-1,6.432" transform="translate(-726.336 -120.569)"/><path class="a" d="M734.236,135.247a12.658,12.658,0,0,1,3.771-3.7,5.512,5.512,0,0,1,5.124-.354,3.745,3.745,0,0,1,1.744,1.984" transform="translate(-725.466 -119.618)"/><path class="a" d="M745.783,156.377a61.67,61.67,0,0,1,4.244,13.075" transform="translate(-724.195 -117.212)"/><path class="a" d="M738.339,139.6c1.621-1.7,3.424-3.5,5.764-3.845a5.512,5.512,0,0,1,5.835,3.477" transform="translate(-725.015 -119.151)"/><path class="a" d="M742.266,144a12.742,12.742,0,0,1,4.591-2.161c4.186-.8,7.152,2.967,5.155,6.789a10.882,10.882,0,0,1-4.258,4.025" transform="translate(-724.583 -118.586)"/></g></svg>