<svg xmlns="http://www.w3.org/2000/svg" width="22.268" height="39.915" viewBox="0 0 22.268 39.915"><g transform="translate(0.986 1.074)"><path d="M726.7,158.228c-.287-7.62-.509-15.226-.243-22.848a35.2,35.2,0,0,1,1.005-7.28,24.936,24.936,0,0,1,1.151-3.542c.6-1.447.927-3.068,2.526-3.769a2.328,2.328,0,0,1,3,.931c.853,1.367.4,2.9-.116,4.289a16.6,16.6,0,0,0-.722,4.637" transform="translate(-726.336 -120.569)" fill="none" stroke="#fff" stroke-linecap="round" stroke-miterlimit="10" stroke-width="2"/><path d="M734.236,133.983a9.124,9.124,0,0,1,2.718-2.665,3.973,3.973,0,0,1,3.694-.255,2.7,2.7,0,0,1,1.257,1.43" transform="translate(-727.914 -122.715)" fill="none" stroke="#fff" stroke-linecap="round" stroke-miterlimit="10" stroke-width="2"/><path d="M745.783,156.377a44.457,44.457,0,0,1,3.059,9.425" transform="translate(-730.221 -128.143)" fill="none" stroke="#fff" stroke-linecap="round" stroke-miterlimit="10" stroke-width="2"/><path d="M738.339,138.51c1.168-1.225,2.469-2.52,4.156-2.772a3.974,3.974,0,0,1,4.207,2.507" transform="translate(-728.734 -123.77)" fill="none" stroke="#fff" stroke-linecap="round" stroke-miterlimit="10" stroke-width="2"/><path d="M742.266,143.362a9.185,9.185,0,0,1,3.31-1.558,3.305,3.305,0,0,1,3.716,4.894,7.845,7.845,0,0,1-3.07,2.9" transform="translate(-729.518 -125.044)" fill="none" stroke="#fff" stroke-linecap="round" stroke-miterlimit="10" stroke-width="2"/></g></svg>