<svg id="グループ_1573" data-name="グループ 1573" xmlns="http://www.w3.org/2000/svg" width="183.737" height="183.733" viewBox="0 0 183.737 183.733">
  <defs>
    <style>
      .cls-1 {
        fill: #00a12f;
      }
    </style>
  </defs>
  <g id="グループ_1565" data-name="グループ 1565" transform="translate(31.248)">
    <path id="パス_1383" data-name="パス 1383" class="cls-1" d="M173.4,562.058a3.519,3.519,0,0,1-2.287-.842,84.189,84.189,0,0,0-109.6,0,3.534,3.534,0,0,1-4.582-5.382,91.244,91.244,0,0,1,118.763,0,3.536,3.536,0,0,1-2.3,6.227Z" transform="translate(-55.693 -533.864)"/>
  </g>
  <g id="グループ_1566" data-name="グループ 1566" transform="translate(0 31.238)">
    <path id="パス_1384" data-name="パス 1384" class="cls-1" d="M69.312,666.174a3.534,3.534,0,0,1-2.7-1.241,91.24,91.24,0,0,1-.006-118.777,3.535,3.535,0,0,1,5.385,4.582A84.188,84.188,0,0,0,72,660.351a3.533,3.533,0,0,1-2.688,5.823Z" transform="translate(-44.638 -544.915)"/>
  </g>
  <g id="グループ_1567" data-name="グループ 1567" transform="translate(31.242 155.536)">
    <path id="パス_1385" data-name="パス 1385" class="cls-1" d="M116.317,617.084a91.4,91.4,0,0,1-59.384-21.969,3.535,3.535,0,0,1,4.582-5.385,84.183,84.183,0,0,0,109.6,0,3.535,3.535,0,0,1,4.582,5.385A91.4,91.4,0,0,1,116.317,617.084Z" transform="translate(-55.691 -588.887)"/>
  </g>
  <g id="グループ_1568" data-name="グループ 1568" transform="translate(155.544 31.246)">
    <path id="パス_1386" data-name="パス 1386" class="cls-1" d="M103.194,666.155a3.532,3.532,0,0,1-2.688-5.823,84.184,84.184,0,0,0,0-109.59,3.535,3.535,0,0,1,5.385-4.582,91.235,91.235,0,0,1,0,118.754A3.538,3.538,0,0,1,103.194,666.155Z" transform="translate(-99.664 -544.917)"/>
  </g>
  <g id="グループ_1569" data-name="グループ 1569" transform="translate(37.711 93.702)">
    <path id="パス_1387" data-name="パス 1387" class="cls-1" d="M61.512,619.334a3.533,3.533,0,0,1-2.5-6.032l45.256-45.253a3.532,3.532,0,0,1,4.995,4.995L64.011,618.3A3.527,3.527,0,0,1,61.512,619.334Z" transform="translate(-57.979 -567.012)"/>
  </g>
  <g id="グループ_1570" data-name="グループ 1570" transform="translate(93.704 37.706)">
    <path id="パス_1388" data-name="パス 1388" class="cls-1" d="M81.32,599.526a3.535,3.535,0,0,1-2.5-6.032l45.253-45.256a3.534,3.534,0,0,1,5,5L83.819,598.489A3.51,3.51,0,0,1,81.32,599.526Z" transform="translate(-77.787 -547.203)"/>
  </g>
  <g id="グループ_1571" data-name="グループ 1571" transform="translate(37.711 37.706)">
    <path id="パス_1389" data-name="パス 1389" class="cls-1" d="M106.769,599.529a3.509,3.509,0,0,1-2.5-1.037L59.014,553.235a3.534,3.534,0,0,1,5-5L109.265,593.5a3.535,3.535,0,0,1-2.5,6.032Z" transform="translate(-57.979 -547.203)"/>
  </g>
  <g id="グループ_1572" data-name="グループ 1572" transform="translate(93.704 93.702)">
    <path id="パス_1390" data-name="パス 1390" class="cls-1" d="M126.576,619.334a3.527,3.527,0,0,1-2.5-1.034L78.824,573.044a3.532,3.532,0,0,1,4.995-4.995L129.075,613.3a3.533,3.533,0,0,1-2.5,6.032Z" transform="translate(-77.787 -567.012)"/>
  </g>
</svg>
