<svg xmlns="http://www.w3.org/2000/svg" width="135.66" height="41.483" viewBox="0 0 135.66 41.483"><defs><style>.a{fill:none;stroke:#cbcbcb;stroke-linecap:round;stroke-width:2px;}.b{fill:#262626;}.c{fill:#3fc060;}</style></defs><g transform="translate(4 1)"><rect class="a" width="39.483" height="133.66" rx="6" transform="translate(130.66) rotate(90)"/><g transform="translate(17.023 12.003)"><path class="b" d="M44.333,6.4a2.457,2.457,0,0,0-2.392,2.75v6.108H39.805V4.507h2.111V5.819a2.867,2.867,0,0,1,2.543-1.389h.767V6.4Zm-6,3.482a5.37,5.37,0,0,0-5.418-5.6,5.557,5.557,0,0,0-5.546,5.57v.033a5.579,5.579,0,0,0,5.748,5.626,5.69,5.69,0,0,0,4.681-2.3l-1.551-1.125a3.792,3.792,0,0,1-3.131,1.563,3.626,3.626,0,0,1-3.581-3.077h8.8ZM29.578,8.9a3.4,3.4,0,0,1,3.308-2.749A3.355,3.355,0,0,1,36.167,8.9ZM20.6,4.279a5.428,5.428,0,0,0-3.837,1.589V.492H14.626V15.258h2.111V13.894A5.511,5.511,0,0,0,20.6,15.509a5.617,5.617,0,1,0,.241-11.23c-.081,0-.161,0-.241,0Zm-.154,9.339a3.723,3.723,0,1,1,3.741-3.741v.03a3.713,3.713,0,0,1-3.725,3.7h-.016Zm-13.686-.1A3.66,3.66,0,0,0,10.422,9.6V.492h2.213V15.258H10.448v-1.4A5.458,5.458,0,0,1,6.506,15.5,5.487,5.487,0,0,1,.878,9.723V.492H3.132V9.616A3.6,3.6,0,0,0,6.759,13.517Z" transform="translate(-0.878 -0.492)"/><path class="c" d="M77.257.492H87.712V3.026H80.081v3.6H87.5V9.074H80.081v3.66h7.631v2.535H77.257Zm39.329,15.042c3.205,0,5.011-1.521,5.011-3.609,0-1.488-1.069-2.6-3.308-3.079l-2.366-.479c-1.374-.253-1.806-.507-1.806-1.014,0-.656.663-1.059,1.883-1.059,1.323,0,2.3.352,2.558,1.563h2.773c-.151-2.281-1.806-3.787-5.162-3.787-2.9,0-4.938,1.187-4.938,3.485,0,1.589,1.12,2.623,3.538,3.128l2.646.606c1.044.2,1.323.482,1.323.91,0,.682-.788,1.11-2.062,1.11-1.6,0-2.518-.352-2.873-1.563h-2.788C111.421,14.021,113.125,15.534,116.586,15.534Zm-6.378-.276h-3a2.626,2.626,0,0,1-2.927-2.626v-5.8h-2.111V4.355h2.121V1.25h2.789v3.1h3.128V6.828H107.08v5.1c0,.58.406.859,1.044.859h2.085ZM98.186,4.36v.983a5.447,5.447,0,0,0-3.512-1.267,5.731,5.731,0,1,0-.244,11.459q.122,0,.244,0a5.429,5.429,0,0,0,3.512-1.268v.986h2.78V4.355ZM94.9,13.142a3.333,3.333,0,1,1,3.325-3.371v.041a3.309,3.309,0,0,1-3.295,3.325H94.9Z" transform="translate(-27.596 -0.492)"/></g></g></svg>