<?xml version="1.0" standalone="no"?>
<!DOCTYPE svg PUBLIC "-//W3C//DTD SVG 20010904//EN"
 "http://www.w3.org/TR/2001/REC-SVG-20010904/DTD/svg10.dtd">
<svg version="1.0" xmlns="http://www.w3.org/2000/svg"
 width="300.000000pt" height="317.000000pt" viewBox="0 0 300.000000 317.000000"
 preserveAspectRatio="xMidYMid meet">
<metadata>
Created by potrace 1.10, written by Peter Selinger 2001-2011
</metadata>
<g transform="translate(0.000000,317.000000) scale(0.100000,-0.100000)"
fill="#000000" stroke="none">
<path d="M1080 2982 c0 -13 -7 -18 -22 -18 -31 1 -49 -47 -26 -70 10 -10 23
-14 37 -9 18 5 21 14 21 61 0 30 -2 54 -5 54 -3 0 -5 -8 -5 -18z m-5 -57 c0
-11 -8 -21 -17 -23 -14 -3 -18 3 -18 23 0 20 4 26 18 23 9 -2 17 -12 17 -23z"/>
<path d="M1297 2993 c-7 -12 -3 -101 6 -109 4 -4 7 20 7 54 0 59 -3 72 -13 55z"/>
<path d="M2157 2993 c-5 -7 -5 -18 -1 -24 4 -7 0 -9 -13 -5 -41 13 -59 -54
-21 -78 30 -18 50 12 46 70 -2 30 -6 44 -11 37z m-7 -68 c0 -18 -5 -25 -20
-25 -20 0 -28 28 -13 43 15 16 33 6 33 -18z"/>
<path d="M2420 2980 c0 -12 -4 -18 -10 -15 -6 4 -17 1 -25 -5 -34 -28 -3 -96
33 -73 18 11 26 100 10 109 -4 3 -8 -4 -8 -16z m0 -55 c0 -18 -5 -25 -20 -25
-20 0 -28 28 -13 43 15 16 33 6 33 -18z"/>
<path d="M510 2935 c0 -54 0 -55 30 -55 17 0 30 5 30 10 0 6 -11 10 -25 10
-32 0 -34 27 -2 33 l22 4 -22 2 c-35 2 -31 39 5 44 25 4 25 4 -5 6 l-33 1 0
-55z"/>
<path d="M1194 2974 c5 -12 2 -15 -10 -10 -23 9 -44 -12 -44 -44 0 -30 21 -44
51 -35 15 5 18 16 17 56 0 27 -5 49 -10 49 -6 0 -7 -7 -4 -16z m-4 -49 c0 -18
-5 -25 -20 -25 -20 0 -28 28 -13 43 15 16 33 6 33 -18z"/>
<path d="M1320 2980 c0 -5 5 -10 10 -10 6 0 10 5 10 10 0 6 -4 10 -10 10 -5 0
-10 -4 -10 -10z"/>
<path d="M1680 2980 c0 -5 5 -10 10 -10 6 0 10 5 10 10 0 6 -4 10 -10 10 -5 0
-10 -4 -10 -10z"/>
<path d="M2567 2972 c-22 -24 -22 -75 1 -94 35 -32 60 -31 92 1 35 35 37 49 9
85 -25 32 -77 36 -102 8z m85 -9 c35 -32 13 -93 -34 -93 -26 0 -58 27 -58 49
0 27 30 61 52 61 12 0 30 -7 40 -17z"/>
<path d="M2605 2915 c0 -14 6 -25 14 -25 8 0 11 6 7 16 -3 9 -6 20 -6 25 0 5
-3 9 -7 9 -5 0 -8 -11 -8 -25z"/>
<path d="M906 2972 c-8 -14 9 -85 22 -90 6 -2 12 1 12 7 0 6 -4 11 -10 11 -5
0 -10 11 -10 25 0 14 5 25 10 25 6 0 10 4 10 9 0 11 -28 22 -34 13z"/>
<path d="M1638 2967 c-7 -21 7 -80 20 -85 6 -2 12 1 12 7 0 6 -4 11 -10 11 -5
0 -10 11 -10 25 0 14 5 25 10 25 15 0 12 17 -4 23 -8 3 -16 0 -18 -6z"/>
<path d="M583 2954 c-4 -11 2 -23 18 -35 l24 -19 -22 0 c-13 0 -23 -4 -23 -10
0 -17 40 -11 47 6 4 11 -2 23 -18 35 l-24 19 23 0 c13 0 20 4 17 10 -10 16
-35 12 -42 -6z"/>
<path d="M640 2941 c0 -16 3 -36 6 -45 7 -17 34 -22 34 -6 0 6 -7 10 -15 10
-9 0 -15 9 -15 25 0 16 6 25 16 25 8 0 12 5 9 10 -13 22 -35 10 -35 -19z"/>
<path d="M732 2962 c-7 -2 -11 -20 -11 -45 l2 -42 6 35 c7 43 38 50 33 8 -2
-14 2 -29 7 -33 7 -4 11 7 11 29 0 50 27 49 33 -1 4 -33 4 -32 3 7 -1 44 -2
44 -36 45 -19 1 -41 0 -48 -3z"/>
<path d="M845 2961 c-3 -7 3 -11 14 -11 28 0 27 -18 -1 -22 -25 -3 -32 -17
-19 -37 5 -8 16 -11 30 -6 18 5 22 13 19 43 -3 37 -28 56 -43 33z m35 -51 c0
-5 -7 -10 -15 -10 -8 0 -15 5 -15 10 0 6 7 10 15 10 8 0 15 -4 15 -10z"/>
<path d="M962 2958 c-15 -15 -16 -50 0 -66 15 -15 48 -16 48 -2 0 6 -9 10 -19
10 -11 0 -23 5 -26 10 -4 6 5 10 20 10 22 0 26 4 23 22 -3 26 -28 34 -46 16z
m38 -18 c0 -5 -9 -10 -21 -10 -11 0 -17 5 -14 10 3 6 13 10 21 10 8 0 14 -4
14 -10z"/>
<path d="M1232 2958 c-29 -29 -1 -88 35 -73 17 7 16 8 -2 13 -34 7 -42 22 -12
22 20 0 27 5 27 19 0 10 -7 22 -16 25 -20 8 -18 8 -32 -6z m38 -18 c0 -5 -9
-10 -21 -10 -11 0 -17 5 -14 10 3 6 13 10 21 10 8 0 14 -4 14 -10z"/>
<path d="M1391 2940 l-12 -35 -14 30 -14 30 6 -30 c11 -58 20 -63 38 -22 9 22
14 44 12 50 -2 6 -9 -4 -16 -23z"/>
<path d="M1426 2949 c-19 -27 -7 -63 23 -67 11 -2 21 1 21 7 0 6 -9 11 -20 11
-11 0 -20 5 -20 10 0 6 11 10 25 10 27 0 33 18 13 38 -17 17 -25 15 -42 -9z
m34 -9 c0 -5 -7 -10 -15 -10 -8 0 -15 5 -15 10 0 6 7 10 15 10 8 0 15 -4 15
-10z"/>
<path d="M1503 2963 c-8 -2 -13 -22 -13 -44 0 -25 4 -38 10 -34 6 4 9 18 8 33
-4 40 27 41 41 1 14 -42 14 -49 -4 -49 -8 0 -15 -4 -15 -10 0 -5 6 -10 13 -10
14 0 63 107 54 117 -3 3 -12 -10 -20 -28 l-13 -34 -12 33 c-10 31 -22 36 -49
25z"/>
<path d="M1733 2963 c-8 -3 -12 -21 -11 -46 l1 -42 4 38 c6 51 33 51 33 0 0
-20 3 -33 7 -29 4 4 7 19 8 34 0 17 6 28 18 30 14 3 17 -4 19 -35 l1 -38 4 34
c3 18 -1 39 -7 45 -11 11 -56 16 -77 9z"/>
<path d="M1838 2944 c-8 -18 -9 -30 -1 -42 11 -19 53 -29 53 -13 0 6 -9 11
-19 11 -11 0 -23 5 -26 10 -3 6 4 10 18 10 31 0 38 9 26 31 -14 27 -37 23 -51
-7z m42 -4 c0 -5 -9 -10 -21 -10 -11 0 -17 5 -14 10 3 6 13 10 21 10 8 0 14
-4 14 -10z"/>
<path d="M1940 2937 c0 -40 20 -61 49 -52 14 4 19 15 19 40 0 19 -4 35 -9 35
-5 0 -9 -13 -9 -30 0 -20 -5 -30 -15 -30 -10 0 -15 10 -15 29 0 17 -4 33 -10
36 -6 4 -10 -8 -10 -28z"/>
<path d="M2033 2963 c-17 -6 -18 -113 -2 -113 6 0 9 9 6 19 -3 14 -1 18 9 14
34 -13 59 48 32 75 -13 13 -24 14 -45 5z m42 -38 c0 -27 -31 -32 -38 -6 -6 24
1 33 23 29 8 -2 15 -12 15 -23z"/>
<path d="M2190 2961 c0 -6 7 -11 15 -11 8 0 15 -4 15 -10 0 -5 -9 -10 -20 -10
-13 0 -20 -7 -20 -20 0 -28 28 -37 48 -16 16 16 15 17 -10 11 -18 -5 -28 -3
-28 4 0 6 9 11 21 11 15 0 20 5 17 22 -3 23 -38 39 -38 19z"/>
<path d="M2245 2960 c-4 -6 5 -10 20 -10 15 0 24 4 20 10 -3 6 -12 10 -20 10
-8 0 -17 -4 -20 -10z"/>
<path d="M2305 2946 c-13 -19 -14 -29 -5 -45 11 -22 44 -28 55 -11 4 6 -5 10
-19 10 -14 0 -26 5 -26 10 0 6 11 10 25 10 27 0 33 18 13 38 -17 17 -26 15
-43 -12z m40 -6 c3 -5 -3 -10 -14 -10 -12 0 -21 5 -21 10 0 6 6 10 14 10 8 0
18 -4 21 -10z"/>
<path d="M693 2920 c0 -25 2 -35 4 -22 2 12 2 32 0 45 -2 12 -4 2 -4 -23z"/>
<path d="M1326 2925 c1 -51 14 -56 14 -7 0 23 -3 42 -7 42 -5 0 -8 -16 -7 -35z"/>
<path d="M1693 2920 c0 -25 2 -35 4 -22 2 12 2 32 0 45 -2 12 -4 2 -4 -23z"/>
<path d="M2250 2926 c0 -25 12 -46 26 -46 8 0 14 5 14 10 0 6 -4 10 -10 10 -5
0 -10 9 -10 20 0 11 -4 20 -10 20 -5 0 -10 -6 -10 -14z"/>
<path d="M2015 2530 c-9 -15 4 -30 26 -30 12 0 19 7 19 20 0 21 -33 29 -45 10z"/>
<path d="M702 2502 c-26 -22 -30 -30 -20 -40 9 -9 16 -8 33 8 l21 20 -4 -90
-4 -90 26 0 26 0 0 110 c0 107 -1 110 -22 110 -13 0 -38 -13 -56 -28z"/>
<path d="M868 2519 c-22 -12 -24 -62 -4 -78 13 -11 12 -15 -5 -32 -42 -42 -9
-99 56 -99 67 0 98 58 53 100 -21 20 -22 22 -5 31 20 11 23 59 5 77 -15 15
-76 15 -100 1z m70 -42 c4 -20 -25 -34 -40 -19 -15 15 -1 44 19 40 10 -2 19
-11 21 -21z m-5 -81 c23 -18 22 -43 -3 -51 -37 -12 -64 27 -38 53 15 15 19 15
41 -2z"/>
<path d="M1296 2517 c-10 -8 -15 -19 -11 -30 6 -15 9 -15 37 -1 27 14 32 14
46 1 13 -14 12 -19 -6 -49 -11 -18 -37 -49 -56 -67 -55 -53 -49 -61 44 -61 73
0 80 2 80 20 0 17 -7 20 -52 20 l-53 0 37 33 c59 52 74 100 40 130 -22 20 -81
22 -106 4z"/>
<path d="M1479 2501 c-25 -26 -29 -37 -29 -86 0 -46 4 -60 25 -80 30 -30 64
-32 99 -4 19 15 26 30 26 54 0 56 -55 92 -91 59 -18 -16 -19 -16 -19 4 0 26
40 55 71 50 15 -2 23 3 25 15 2 14 -5 17 -38 17 -30 0 -46 -7 -69 -29z m76
-100 c9 -28 -5 -51 -31 -51 -17 0 -25 7 -30 24 -3 14 -3 30 1 35 11 18 53 13
60 -8z"/>
<path d="M1715 2395 c0 -81 1 -85 22 -85 20 0 22 6 25 63 3 59 4 62 28 62 24
0 25 -3 28 -62 3 -57 5 -63 25 -63 20 0 22 4 19 44 -4 52 11 86 38 86 22 0 22
-2 20 -77 -1 -51 0 -53 24 -53 25 0 26 2 26 68 0 82 -19 109 -67 98 -15 -4
-35 -7 -43 -7 -8 0 -28 3 -43 7 -20 5 -33 1 -47 -11 -18 -16 -20 -17 -20 -2 0
10 -8 17 -17 17 -16 0 -18 -11 -18 -85z"/>
<path d="M2015 2395 c0 -81 1 -85 23 -85 21 0 22 4 22 85 0 81 -1 85 -22 85
-22 0 -23 -4 -23 -85z"/>
<path d="M2110 2395 c0 -83 0 -85 24 -85 22 0 24 3 20 33 -8 52 8 92 37 92 23
0 24 -4 27 -62 3 -57 5 -63 25 -63 21 0 22 3 19 72 -2 53 -8 76 -20 86 -22 17
-52 15 -74 -5 -17 -15 -18 -15 -18 0 0 10 -8 17 -20 17 -18 0 -20 -7 -20 -85z"/>
<path d="M1090 2390 c0 -17 7 -20 40 -20 33 0 40 3 40 20 0 17 -7 20 -40 20
-33 0 -40 -3 -40 -20z"/>
<path d="M1035 1468 c-63 -32 -115 -88 -147 -157 -31 -68 -29 -94 4 -48 40 54
150 182 176 204 33 28 20 29 -33 1z"/>
<path d="M1138 1452 c-37 -28 -48 -43 -48 -64 0 -15 3 -28 6 -28 10 0 100 68
115 87 8 9 -11 0 -41 -20 -35 -24 -56 -33 -59 -25 -2 7 1 14 6 15 6 2 25 17
43 33 18 16 42 31 54 33 18 4 17 4 -4 5 -14 0 -45 -15 -72 -36z"/>
<path d="M1239 1433 c0 -32 -2 -67 -4 -78 -7 -39 -44 -341 -49 -399 -3 -39 -1
-55 6 -48 9 9 22 101 60 422 14 116 38 169 38 83 0 -27 5 -54 12 -61 8 -8 60
-12 168 -12 108 0 160 4 168 12 7 7 12 29 12 50 0 26 4 38 14 38 13 0 28 -59
41 -170 6 -51 14 -104 21 -137 4 -21 0 -23 -38 -24 -24 -1 -34 -3 -23 -6 71
-16 85 -24 83 -51 -1 -15 2 -37 6 -49 9 -29 -2 -34 -49 -17 -26 9 -41 10 -44
3 -1 -5 -12 -19 -24 -30 -11 -10 -15 -19 -9 -19 7 0 20 8 30 18 14 14 24 15
52 8 30 -7 38 -15 48 -47 24 -78 22 -80 -65 -74 -100 7 -116 12 -108 33 9 22
16 51 21 82 2 14 1 17 -2 8 -6 -21 -24 -24 -24 -5 -1 24 -18 -18 -25 -60 l-7
-43 -86 7 c-48 4 -99 8 -114 8 -30 0 -37 12 -13 21 41 16 -1 104 -50 104 -51
0 -90 -69 -55 -97 12 -10 6 -12 -35 -12 -27 0 -69 4 -92 8 -27 5 -43 5 -43 -1
0 -6 -11 -7 -25 -4 -21 5 -27 2 -35 -20 -14 -36 3 -54 50 -54 33 0 41 -6 77
-53 l40 -53 -12 -68 -11 -68 -137 1 -137 2 0 -48 c1 -88 55 -173 144 -223 l51
-30 405 0 405 0 51 30 c89 50 143 135 144 223 l0 48 -127 -2 -128 -1 -7 38
c-6 37 -3 42 46 94 52 54 86 98 86 111 0 3 -34 9 -75 11 -42 3 -77 7 -80 9 -2
3 -7 54 -10 114 -4 61 -10 119 -15 130 -8 20 -27 135 -51 313 l-13 92 -33 0
-33 0 0 -65 0 -65 -154 0 c-174 0 -166 -4 -166 88 0 41 -1 42 -35 42 l-35 0
-1 -57z m72 -463 c25 -14 24 -55 -2 -74 -33 -23 -69 -3 -69 40 0 38 32 54 71
34z m-76 -102 c6 -3 81 -9 168 -13 148 -7 157 -6 158 12 0 16 1 16 9 -3 8 -21
46 -28 258 -50 52 -6 62 -10 62 -25 0 -11 -6 -19 -12 -19 -7 0 -24 -14 -38
-31 -47 -58 -101 -109 -115 -109 -8 0 -35 11 -61 25 -44 23 -57 25 -184 25
-94 0 -148 -4 -171 -14 -21 -8 -42 -11 -55 -6 -25 10 -99 94 -116 132 -13 28
-52 48 -94 48 -16 0 -22 5 -21 19 1 17 10 18 102 17 55 -1 105 -5 110 -8z
m-18 -200 c29 -30 30 -35 17 -52 -37 -51 3 -74 46 -26 28 31 30 32 102 29 40
-2 79 0 86 4 7 5 12 3 12 -7 0 -9 5 -16 10 -16 6 0 10 5 10 10 0 6 5 10 10 10
6 0 10 -11 10 -25 0 -14 -4 -25 -10 -25 -5 0 -10 5 -10 12 0 9 -3 9 -12 0 -16
-16 -28 -15 -28 3 0 20 -16 19 -24 -1 -3 -8 -10 -13 -15 -9 -6 3 -8 12 -4 20
3 8 0 15 -6 15 -6 0 -11 -9 -11 -20 0 -11 -5 -20 -11 -20 -6 0 -9 9 -6 20 3
11 1 18 -4 14 -5 -3 -9 -14 -9 -25 0 -18 6 -20 97 -17 75 2 97 6 101 18 4 13
3 13 -10 2 -11 -9 -18 -10 -23 -2 -25 40 107 31 167 -12 14 -10 20 -10 30 1 9
10 9 12 1 7 -7 -4 -34 9 -61 29 l-49 35 -147 0 c-156 0 -176 -5 -213 -48 -27
-32 -41 -23 -18 11 29 45 80 57 239 57 l143 0 38 -30 c21 -16 41 -30 44 -30 4
0 23 11 44 25 l37 26 0 -26 c0 -61 9 -65 140 -65 120 0 120 0 120 -24 0 -71
-58 -162 -129 -204 l-46 -27 -405 0 c-378 0 -407 1 -440 19 -33 18 -89 66 -77
66 3 0 -5 12 -18 26 -25 27 -45 81 -45 122 0 22 2 22 130 22 149 0 150 1 150
89 0 28 4 51 8 51 4 0 22 -15 39 -32z"/>
<path d="M1830 796 c0 -7 40 -14 44 -7 3 4 -6 8 -20 9 -13 1 -24 0 -24 -2z"/>
<path d="M1458 743 c7 -3 16 -2 19 1 4 3 -2 6 -13 5 -11 0 -14 -3 -6 -6z"/>
<path d="M1403 703 c31 -2 83 -2 115 0 31 2 5 3 -58 3 -63 0 -89 -1 -57 -3z"/>
<path d="M1371 1455 c-50 -40 -45 -48 5 -10 18 14 41 25 51 25 15 0 13 -4 -9
-25 -15 -14 -31 -25 -35 -25 -5 0 -14 -9 -21 -21 -11 -17 -11 -20 0 -13 12 7
69 48 93 67 5 4 19 14 30 22 19 13 17 14 -25 15 -37 0 -53 -7 -89 -35z"/>
<path d="M1860 1480 c8 -5 20 -10 25 -10 6 0 3 5 -5 10 -8 5 -19 10 -25 10 -5
0 -3 -5 5 -10z"/>
<path d="M1785 1423 c-27 -24 -39 -39 -26 -32 14 6 34 20 45 31 13 11 22 15
24 8 5 -13 -26 -50 -42 -50 -6 0 -20 -12 -30 -27 -23 -31 -9 -25 52 24 28 23
42 42 42 58 0 38 -12 36 -65 -12z"/>
<path d="M1943 1440 c27 -17 59 -49 75 -75 15 -24 30 -45 35 -45 8 0 -16 42
-42 74 -21 25 -91 76 -104 76 -6 0 10 -14 36 -30z"/>
<path d="M1580 1443 c-14 -10 -36 -28 -50 -41 -36 -34 4 -13 50 27 39 33 38
41 0 14z"/>
<path d="M1182 1313 c-12 -10 -32 -26 -46 -35 -17 -12 -22 -24 -19 -41 4 -19
-8 -38 -61 -91 -44 -44 -65 -73 -63 -87 1 -15 -7 -23 -35 -33 -62 -22 -88 -44
-88 -74 l0 -27 23 27 c32 38 87 64 98 46 5 -7 9 -18 9 -24 0 -14 49 -48 57
-40 3 3 -6 10 -20 17 -29 13 -48 76 -27 89 7 4 10 16 7 26 -4 14 7 30 40 57
24 20 49 35 54 32 5 -4 9 -23 9 -43 0 -26 3 -33 9 -23 5 8 7 37 4 63 -6 47 -4
50 33 83 21 19 34 34 27 35 -6 0 -19 -7 -27 -16 -20 -19 -42 -9 -25 12 6 7 14
12 18 10 3 -2 16 10 29 25 27 33 25 37 -6 12z"/>
<path d="M2057 1275 c7 -49 13 -58 13 -19 0 16 -5 36 -10 44 -6 10 -7 2 -3
-25z"/>
<path d="M1798 1260 c-18 -16 -27 -30 -20 -30 6 0 12 4 12 8 0 5 12 14 26 21
23 10 30 9 52 -11 l26 -23 -25 32 c-13 18 -27 32 -31 32 -4 1 -22 -12 -40 -29z"/>
<path d="M1625 1238 c-12 -42 -34 -162 -30 -166 19 -20 62 87 64 161 1 19 -28
24 -34 5z"/>
<path d="M1823 1243 c3 -5 -1 -39 -8 -78 -8 -38 -12 -71 -11 -72 1 -2 42 7 90
18 86 22 87 22 66 41 -11 10 -27 30 -36 43 -9 14 -21 25 -26 25 -6 0 4 -16 21
-35 34 -40 42 -68 11 -40 -17 15 -20 16 -20 3 0 -18 -60 -34 -70 -18 -9 14 0
70 11 70 4 0 15 -10 23 -22 9 -12 18 -19 22 -16 7 8 -55 88 -68 88 -5 0 -7 -3
-5 -7z"/>
<path d="M1780 1200 c-8 -5 -12 -12 -9 -15 4 -3 12 1 19 10 14 17 11 19 -10 5z"/>
<path d="M908 1058 c-21 -12 -38 -26 -38 -32 0 -5 8 -2 18 7 10 10 23 17 28
17 6 0 19 7 30 15 29 22 4 17 -38 -7z"/>
<path d="M1134 1039 c3 -17 6 -43 7 -58 0 -25 1 -25 11 -4 12 25 2 93 -14 93
-6 0 -8 -12 -4 -31z"/>
<path d="M1547 1033 c-12 -67 -5 -90 9 -33 7 30 9 59 5 63 -5 5 -11 -9 -14
-30z"/>
<path d="M1800 1044 c0 -16 5 -36 11 -44 7 -11 8 -4 3 25 -8 50 -14 58 -14 19z"/>
<path d="M1595 1000 c3 -5 8 -10 11 -10 2 0 4 5 4 10 0 6 -5 10 -11 10 -5 0
-7 -4 -4 -10z"/>
<path d="M1790 955 c0 -9 9 -14 23 -14 12 1 70 -2 128 -6 l105 -8 4 -46 c3
-55 3 -71 -1 -184 -2 -58 1 -91 9 -99 9 -9 12 29 12 170 l0 182 -47 1 c-27 0
-68 2 -93 5 -137 13 -140 13 -140 -1z"/>
<path d="M877 913 c-12 -11 -8 -50 6 -62 19 -15 27 -4 27 36 0 31 -16 44 -33
26z"/>
<path d="M870 714 c0 -81 4 -123 10 -114 7 13 15 144 10 160 -1 3 -3 19 -4 37
-1 18 -5 35 -9 39 -4 4 -7 -51 -7 -122z"/>
<path d="M939 818 c16 -18 34 -28 50 -27 l26 2 -25 4 c-14 3 -36 14 -50 26
l-25 22 24 -27z"/>
</g>
</svg>
