<?xml version="1.0" standalone="no"?>
<!DOCTYPE svg PUBLIC "-//W3C//DTD SVG 20010904//EN"
 "http://www.w3.org/TR/2001/REC-SVG-20010904/DTD/svg10.dtd">
<svg version="1.0" xmlns="http://www.w3.org/2000/svg"
 width="300.000000pt" height="317.000000pt" viewBox="0 0 300.000000 317.000000"
 preserveAspectRatio="xMidYMid meet">
<metadata>
Created by potrace 1.10, written by Peter Selinger 2001-2011
</metadata>
<g transform="translate(0.000000,317.000000) scale(0.100000,-0.100000)"
fill="#000000" stroke="none">
<path d="M2015 2531 c-9 -16 3 -31 26 -31 14 0 19 6 17 17 -4 20 -33 29 -43
14z"/>
<path d="M703 2501 c-25 -21 -30 -30 -21 -39 9 -9 17 -7 33 8 l21 20 -4 -90
-4 -90 26 0 26 0 0 110 c0 108 -1 110 -22 110 -13 -1 -38 -13 -55 -29z"/>
<path d="M868 2519 c-22 -12 -24 -62 -4 -78 13 -11 12 -15 -5 -32 -46 -46 -3
-107 67 -96 20 3 42 11 50 18 21 17 17 55 -8 79 -21 20 -22 22 -5 31 24 14 23
65 -2 79 -25 13 -71 12 -93 -1z m70 -42 c4 -20 -25 -34 -40 -19 -15 15 -1 44
19 40 10 -2 19 -11 21 -21z m-7 -77 c25 -14 24 -47 -1 -55 -37 -12 -64 27 -38
53 15 15 15 15 39 2z"/>
<path d="M1294 2516 c-15 -12 -16 -17 -7 -27 10 -10 18 -10 38 1 22 12 28 12
42 -2 14 -15 14 -19 -5 -50 -11 -18 -37 -49 -56 -67 -55 -53 -49 -61 44 -61
73 0 80 2 80 20 0 17 -7 20 -52 20 l-53 0 37 33 c61 54 75 104 36 131 -28 20
-78 21 -104 2z"/>
<path d="M1479 2501 c-25 -26 -29 -37 -29 -86 0 -46 4 -60 25 -80 30 -30 64
-32 99 -4 19 15 26 30 26 54 0 56 -55 92 -91 59 -18 -16 -19 -16 -19 4 0 26
40 55 69 50 11 -2 20 0 21 5 0 4 0 12 0 17 0 6 -16 10 -36 10 -26 0 -43 -8
-65 -29z m76 -100 c9 -28 -5 -51 -31 -51 -17 0 -25 7 -30 24 -3 14 -3 30 1 35
11 18 53 13 60 -8z"/>
<path d="M1715 2395 c0 -81 1 -85 22 -85 20 0 22 6 25 63 3 59 4 62 28 62 24
0 25 -3 28 -62 3 -57 5 -63 25 -63 20 0 22 4 19 44 -4 52 11 86 38 86 22 0 22
-2 20 -77 -1 -51 0 -53 24 -53 25 0 26 2 26 68 0 82 -19 109 -67 98 -15 -4
-35 -7 -43 -7 -8 0 -28 3 -43 7 -20 5 -33 1 -47 -11 -18 -16 -20 -17 -20 -2 0
10 -8 17 -17 17 -16 0 -18 -11 -18 -85z"/>
<path d="M2015 2395 c0 -81 1 -85 23 -85 21 0 22 4 22 85 0 81 -1 85 -22 85
-22 0 -23 -4 -23 -85z"/>
<path d="M2110 2395 c0 -83 0 -85 24 -85 22 0 24 3 20 33 -8 52 8 92 37 92 23
0 24 -4 27 -62 3 -55 6 -63 22 -63 18 0 20 7 20 68 0 73 -16 102 -55 102 -10
0 -27 -7 -37 -17 -17 -15 -18 -15 -18 0 0 10 -8 17 -20 17 -18 0 -20 -7 -20
-85z"/>
<path d="M1090 2390 c0 -17 7 -20 40 -20 33 0 40 3 40 20 0 17 -7 20 -40 20
-33 0 -40 -3 -40 -20z"/>
<path d="M1123 1513 c-4 -10 -11 -22 -17 -26 -7 -6 -4 -7 6 -4 9 3 19 1 22 -6
3 -7 3 0 0 15 -4 20 -1 27 13 31 17 4 17 5 0 6 -10 0 -21 -7 -24 -16z"/>
<path d="M1381 1504 c0 -11 3 -14 6 -6 3 7 2 16 -1 19 -3 4 -6 -2 -5 -13z"/>
<path d="M1440 1493 c-19 -3 -37 -8 -40 -11 -3 -4 -20 -20 -38 -35 -45 -36
-27 -34 22 3 50 38 80 41 46 5 -13 -13 -30 -27 -39 -30 -9 -2 -22 -14 -29 -26
-16 -26 -6 -21 53 26 22 18 50 38 63 44 20 10 23 34 4 29 -4 0 -23 -3 -42 -5z"/>
<path d="M1170 1479 c0 -5 -5 -7 -12 -3 -6 4 -8 3 -5 -2 3 -5 -10 -20 -29 -33
-25 -18 -34 -31 -34 -52 0 -16 3 -29 6 -29 10 0 100 68 115 87 8 9 -6 3 -31
-13 -68 -46 -70 -47 -70 -29 0 8 7 18 16 22 9 3 27 16 41 29 14 13 34 25 46
27 15 3 12 5 -10 6 -18 0 -33 -4 -33 -10z"/>
<path d="M1241 1438 c0 -29 -3 -64 -6 -78 -8 -45 -44 -344 -49 -404 -3 -39 -1
-55 6 -48 9 9 22 105 61 431 8 64 17 106 25 109 8 2 12 -10 12 -40 0 -24 5
-49 12 -56 8 -8 60 -12 168 -12 108 0 160 4 168 12 7 7 12 29 12 49 0 21 6 40
13 42 10 4 10 6 0 6 -7 1 -13 6 -13 12 0 8 4 8 14 0 12 -10 25 -74 41 -196 7
-53 15 -105 21 -132 4 -21 0 -23 -38 -24 -24 -1 -34 -3 -23 -6 71 -16 85 -24
83 -51 -1 -15 2 -37 6 -49 9 -29 -2 -34 -49 -17 -26 9 -41 10 -44 3 -1 -5 -12
-19 -24 -30 -11 -10 -15 -19 -9 -19 7 0 20 8 30 18 14 14 24 15 52 8 30 -7 38
-15 48 -47 24 -78 22 -80 -65 -74 -100 7 -116 12 -108 33 9 22 16 51 21 82 2
14 1 17 -2 8 -6 -21 -24 -24 -24 -5 -1 24 -18 -18 -25 -60 l-7 -43 -86 7 c-48
4 -99 8 -114 8 -30 0 -37 12 -13 21 41 16 -1 104 -50 104 -51 0 -90 -69 -55
-97 12 -10 6 -12 -35 -12 -27 0 -69 4 -92 8 -27 5 -43 5 -43 -1 0 -6 -11 -7
-25 -4 -21 5 -27 2 -35 -20 -14 -36 3 -54 50 -54 33 0 41 -6 77 -53 l40 -53
-12 -68 -11 -68 -137 1 -137 2 0 -37 c0 -62 22 -115 71 -168 90 -98 73 -95
515 -96 274 0 397 3 426 12 92 27 188 155 188 249 l0 40 -127 -2 -128 -1 -7
38 c-6 37 -3 42 46 94 52 54 86 98 86 111 0 3 -34 9 -75 11 -42 3 -77 7 -80 9
-2 3 -7 54 -10 114 -4 61 -10 119 -15 130 -8 20 -27 135 -51 313 l-13 92 -33
0 -33 0 0 -65 0 -65 -154 0 c-174 0 -166 -4 -166 88 0 41 -1 42 -34 42 l-33 0
-2 -52z m70 -468 c25 -14 24 -55 -2 -74 -33 -23 -69 -3 -69 40 0 38 32 54 71
34z m-76 -102 c6 -3 81 -9 168 -13 148 -7 157 -6 158 12 0 16 1 16 9 -3 8 -21
46 -28 258 -50 52 -6 62 -10 62 -25 0 -11 -6 -19 -12 -19 -7 0 -24 -14 -38
-31 -47 -58 -101 -109 -115 -109 -8 0 -35 11 -61 25 -44 23 -57 25 -184 25
-94 0 -148 -4 -171 -14 -21 -8 -42 -11 -55 -6 -25 10 -99 94 -116 132 -13 28
-52 48 -94 48 -16 0 -22 5 -21 19 1 17 10 18 102 17 55 -1 105 -5 110 -8z
m-18 -200 c29 -30 30 -35 17 -52 -37 -51 3 -74 46 -26 28 31 30 32 102 29 40
-2 79 0 86 4 7 5 12 3 12 -7 0 -9 5 -16 10 -16 6 0 10 5 10 10 0 6 5 10 10 10
6 0 10 -11 10 -25 0 -14 -4 -25 -10 -25 -5 0 -10 5 -10 12 0 9 -3 9 -12 0 -16
-16 -28 -15 -28 3 0 20 -16 19 -24 -1 -3 -8 -10 -13 -15 -9 -6 3 -8 12 -4 20
3 8 0 15 -6 15 -6 0 -11 -9 -11 -20 0 -11 -5 -20 -11 -20 -6 0 -9 9 -6 20 3
11 1 18 -4 14 -5 -3 -9 -14 -9 -25 0 -18 6 -20 97 -17 75 2 97 6 101 18 4 13
3 13 -10 2 -11 -9 -18 -10 -23 -2 -25 40 107 31 167 -12 14 -10 20 -10 30 1 9
10 9 12 1 7 -7 -4 -34 9 -61 29 l-49 35 -147 0 c-156 0 -176 -5 -213 -48 -27
-32 -41 -23 -18 11 29 45 80 57 239 57 l143 0 38 -30 c21 -16 41 -30 44 -30 4
0 23 11 44 25 l37 26 0 -26 c0 -61 9 -65 140 -65 l120 0 0 -30 c0 -16 -5 -30
-11 -30 -5 0 -7 -4 -4 -10 10 -16 -24 -77 -63 -115 -70 -68 -68 -67 -441 -66
-203 1 -337 6 -339 11 -2 6 -8 10 -13 10 -6 0 -8 -4 -5 -9 8 -13 -26 -19 -76
-14 -48 6 -100 33 -123 66 -8 12 -15 17 -15 12 0 -16 -46 58 -58 94 -7 19 -12
45 -12 57 0 24 0 24 130 24 149 0 150 1 150 89 0 28 4 51 8 51 4 0 22 -15 39
-32z"/>
<path d="M1830 796 c0 -7 40 -14 44 -7 3 4 -6 8 -20 9 -13 1 -24 0 -24 -2z"/>
<path d="M1458 743 c7 -3 16 -2 19 1 4 3 -2 6 -13 5 -11 0 -14 -3 -6 -6z"/>
<path d="M1403 703 c31 -2 83 -2 115 0 31 2 5 3 -58 3 -63 0 -89 -1 -57 -3z"/>
<path d="M1318 343 c83 -2 221 -2 305 0 83 1 15 3 -153 3 -168 0 -236 -2 -152
-3z"/>
<path d="M1860 1480 c8 -5 20 -10 25 -10 6 0 3 5 -5 10 -8 5 -19 10 -25 10 -5
0 -3 -5 5 -10z"/>
<path d="M1004 1447 c-27 -19 -63 -52 -80 -75 -32 -40 -70 -132 -55 -132 4 0
21 19 38 43 17 23 39 51 50 62 57 62 114 135 105 135 -5 0 -32 -15 -58 -33z"/>
<path d="M1785 1424 c-28 -25 -39 -40 -26 -33 14 6 34 20 45 31 13 11 22 15
24 8 5 -13 -26 -50 -42 -50 -6 0 -20 -12 -30 -27 -23 -31 -9 -25 52 24 28 23
42 42 42 58 0 38 -13 36 -65 -11z"/>
<path d="M1940 1456 c0 -8 4 -17 9 -20 5 -4 7 3 4 14 -6 23 -13 26 -13 6z"/>
<path d="M1562 1431 c-50 -37 -66 -60 -23 -35 31 18 80 64 69 64 -3 0 -23 -13
-46 -29z"/>
<path d="M2022 1361 c12 -22 26 -41 30 -41 9 0 -30 68 -44 76 -5 4 1 -12 14
-35z"/>
<path d="M1182 1313 c-12 -10 -32 -26 -46 -35 -17 -12 -22 -24 -19 -41 4 -19
-8 -38 -61 -91 -44 -44 -65 -73 -63 -87 1 -15 -7 -23 -35 -33 -63 -22 -88 -44
-88 -74 l0 -27 20 25 c11 14 20 29 20 34 0 5 3 7 6 3 4 -3 20 1 37 9 30 16 46
8 47 -22 0 -14 49 -48 57 -40 3 3 -6 10 -20 17 -29 13 -48 76 -27 89 7 4 10
16 7 26 -4 14 7 30 40 57 24 20 49 35 54 32 5 -4 9 -23 9 -43 0 -26 3 -33 9
-23 5 8 7 37 4 63 -6 47 -4 50 33 83 21 19 34 34 27 35 -6 0 -19 -7 -27 -16
-20 -19 -42 -9 -25 12 6 7 14 12 18 10 3 -2 16 10 29 25 27 33 25 37 -6 12z"/>
<path d="M1798 1260 c-18 -16 -27 -30 -20 -30 6 0 12 4 12 8 0 5 12 14 26 21
23 10 30 9 52 -11 l26 -23 -25 32 c-13 18 -27 32 -31 32 -4 1 -22 -12 -40 -29z"/>
<path d="M2064 1276 c-3 -8 -4 -23 -2 -33 3 -11 6 -6 9 15 6 34 2 42 -7 18z"/>
<path d="M1625 1238 c-12 -42 -34 -162 -30 -166 19 -20 62 87 64 161 1 19 -28
24 -34 5z"/>
<path d="M1823 1243 c3 -5 -1 -39 -8 -78 -8 -38 -12 -71 -11 -72 1 -2 42 7 90
18 86 22 87 22 66 41 -11 10 -27 30 -36 43 -9 14 -21 25 -26 25 -6 0 4 -16 21
-35 34 -40 42 -68 11 -40 -17 15 -20 16 -20 3 0 -18 -60 -34 -70 -18 -9 14 0
70 11 70 4 0 15 -10 23 -22 9 -12 18 -19 22 -16 7 8 -55 88 -68 88 -5 0 -7 -3
-5 -7z"/>
<path d="M1780 1200 c-8 -5 -12 -12 -9 -15 4 -3 12 1 19 10 14 17 11 19 -10 5z"/>
<path d="M913 1059 c-24 -12 -43 -25 -43 -29 0 -5 20 3 45 17 25 13 45 27 45
29 0 6 -2 5 -47 -17z"/>
<path d="M1134 1039 c3 -17 6 -43 7 -58 0 -25 1 -25 11 -4 12 25 2 93 -14 93
-6 0 -8 -12 -4 -31z"/>
<path d="M1547 1033 c-12 -67 -5 -90 9 -33 7 30 9 59 5 63 -5 5 -11 -9 -14
-30z"/>
<path d="M1800 1044 c0 -16 5 -36 11 -44 7 -11 8 -4 3 25 -8 50 -14 58 -14 19z"/>
<path d="M1595 1000 c3 -5 8 -10 11 -10 2 0 4 5 4 10 0 6 -5 10 -11 10 -5 0
-7 -4 -4 -10z"/>
<path d="M1790 957 c0 -11 15 -15 58 -16 31 -1 66 -3 77 -5 11 -3 41 -5 68 -5
l47 -1 0 -159 c0 -125 3 -161 14 -170 13 -11 15 10 18 146 2 87 1 168 0 179
-4 20 -12 22 -115 28 -62 4 -124 9 -139 12 -20 4 -28 2 -28 -9z"/>
<path d="M877 913 c-12 -11 -8 -50 6 -62 19 -15 27 -4 27 36 0 31 -16 44 -33
26z"/>
<path d="M870 713 c1 -115 2 -125 15 -103 14 26 15 136 1 158 -4 7 -2 12 5 12
9 0 9 4 -1 15 -6 8 -9 19 -6 24 4 5 2 12 -4 16 -7 4 -10 -38 -10 -122z"/>
<path d="M939 818 c16 -18 34 -28 50 -27 l26 2 -25 4 c-14 3 -36 14 -50 26
l-25 22 24 -27z"/>
<path d="M1327 253 c79 -2 207 -2 285 0 79 1 15 3 -142 3 -157 0 -221 -2 -143
-3z"/>
</g>
</svg>
