<?xml version="1.0" standalone="no"?>
<!DOCTYPE svg PUBLIC "-//W3C//DTD SVG 20010904//EN"
 "http://www.w3.org/TR/2001/REC-SVG-20010904/DTD/svg10.dtd">
<svg version="1.0" xmlns="http://www.w3.org/2000/svg"
 width="300.000000pt" height="375.000000pt" viewBox="0 0 300.000000 375.000000"
 preserveAspectRatio="xMidYMid meet">
<metadata>
Created by potrace 1.10, written by Peter Selinger 2001-2011
</metadata>
<g transform="translate(0.000000,375.000000) scale(0.100000,-0.100000)"
fill="#000000" stroke="none">
<path d="M1367 3485 c-9 -9 -17 -21 -17 -27 0 -6 -7 -19 -16 -29 -10 -12 -17
-44 -21 -96 -2 -43 -11 -105 -19 -138 -19 -82 -18 -146 4 -203 34 -90 71 -112
182 -112 79 0 83 1 111 31 16 17 34 50 40 72 6 23 16 53 21 67 28 68 18 287
-15 329 -6 7 -16 22 -22 33 -5 11 -29 34 -53 51 -36 26 -55 32 -111 35 -53 3
-71 1 -84 -13z m38 -15 c3 -5 -1 -10 -10 -10 -9 0 -13 5 -10 10 3 6 8 10 10
10 2 0 7 -4 10 -10z m153 -38 c36 -28 57 -65 77 -143 17 -62 20 -179 5 -179
-6 0 -10 30 -10 69 0 39 -4 72 -9 75 -5 3 -15 29 -21 58 -7 29 -18 58 -24 65
-26 33 -51 53 -63 53 -7 0 -13 4 -13 9 0 5 -11 12 -25 15 -14 4 -23 11 -20 16
8 12 63 -8 103 -38z m-138 8 c0 -5 -4 -10 -9 -10 -6 0 -21 -18 -34 -40 -27
-46 -44 -43 -20 4 22 43 63 73 63 46z m60 -19 c3 -3 17 -12 31 -19 27 -14 50
-53 69 -117 7 -22 16 -44 21 -50 5 -5 9 -60 9 -123 0 -99 -3 -118 -21 -143
-20 -28 -23 -29 -100 -29 -71 0 -83 3 -104 24 -33 33 -45 86 -45 202 0 91 3
106 30 163 26 54 33 61 52 55 19 -6 21 -4 15 30 -6 35 -5 36 16 25 12 -7 24
-15 27 -18z m-163 -393 c-3 -8 -6 -5 -6 6 -1 11 2 17 5 13 3 -3 4 -12 1 -19z
m23 -44 c0 -8 -5 -12 -10 -9 -6 4 -8 11 -5 16 9 14 15 11 15 -7z m60 -64 c13
-8 13 -10 -2 -10 -9 0 -20 5 -23 10 -8 13 5 13 25 0z"/>
<path d="M538 3483 c-25 -4 -27 -8 -34 -81 -8 -85 0 -286 15 -402 6 -41 12
-109 15 -150 6 -88 12 -131 29 -224 14 -76 37 -102 37 -42 0 29 3 34 16 29 15
-5 16 2 11 63 -3 38 -11 94 -16 124 -6 30 -17 95 -25 144 -9 49 -18 98 -22
109 -6 20 -4 20 28 -5 19 -14 77 -47 128 -73 52 -26 107 -53 122 -61 14 -8 35
-14 45 -14 10 0 30 -8 43 -17 29 -21 138 -73 151 -73 28 0 -10 45 -101 119
-25 20 -47 39 -50 42 -6 7 -78 40 -140 64 -25 9 -61 24 -80 33 l-35 15 35 12
c35 11 56 20 185 78 76 34 132 86 142 129 3 15 12 33 19 39 19 16 18 103 -1
119 -8 7 -25 10 -38 8 -13 -2 -29 1 -35 9 -10 10 -59 13 -215 12 -111 -1 -214
-4 -229 -6z m77 -22 c3 -6 -10 -13 -30 -17 -21 -4 -35 -12 -35 -21 0 -13 16
-14 108 -8 310 20 335 16 330 -53 -3 -37 -25 -61 -58 -62 -9 0 -27 -8 -40 -17
-35 -25 -115 -54 -227 -82 -20 -5 -51 -18 -69 -27 -18 -10 -36 -15 -40 -12 -9
9 -24 282 -16 290 4 3 18 8 32 11 14 2 28 5 32 6 4 0 9 -3 13 -8z m295 -1 c0
-5 -4 -10 -10 -10 -5 0 -10 5 -10 10 0 6 5 10 10 10 6 0 10 -4 10 -10z m-185
-5 c-23 -8 -85 -10 -85 -3 0 4 21 8 48 7 26 0 43 -2 37 -4z m65 -5 c0 -5 -9
-10 -20 -10 -11 0 -20 5 -20 10 0 6 9 10 20 10 11 0 20 -4 20 -10z m248 -47
c2 -18 -1 -41 -7 -50 -8 -15 -10 -11 -11 20 0 20 -4 37 -9 37 -5 0 -12 7 -15
16 -4 12 0 15 17 12 17 -2 23 -11 25 -35z m-32 -120 c-10 -10 -19 5 -10 18 6
11 8 11 12 0 2 -7 1 -15 -2 -18z m-82 -41 c-16 -16 -51 -36 -79 -47 -27 -10
-78 -31 -112 -48 -43 -20 -70 -27 -88 -23 -31 8 -41 5 -37 -11 2 -8 -7 -13
-23 -13 -14 0 -25 6 -25 13 0 19 130 76 185 82 31 3 135 42 164 62 44 30 53
21 15 -15z m61 18 c-3 -5 -11 -10 -16 -10 -6 0 -7 5 -4 10 3 6 11 10 16 10 6
0 7 -4 4 -10z m-439 -207 c-11 -11 -17 4 -9 23 7 18 8 18 11 1 2 -10 1 -21 -2
-24z m102 28 c11 -7 10 -10 -3 -15 -20 -7 -38 1 -30 15 7 11 16 11 33 0z m150
-109 c2 -7 -29 5 -70 25 -40 21 -69 41 -63 45 12 8 127 -52 133 -70z m72 6
c19 -9 48 -28 63 -42 15 -14 32 -26 38 -26 5 0 9 -4 9 -10 0 -15 -4 -13 -71
30 -33 21 -70 42 -80 45 -11 4 -17 11 -13 16 3 6 9 8 12 7 4 -2 23 -11 42 -20z
m-300 -109 c0 -10 -4 -19 -10 -19 -5 0 -10 12 -10 26 0 14 4 23 10 19 6 -3 10
-15 10 -26z m26 -174 c4 -38 3 -46 -6 -33 -6 10 -12 55 -15 100 -4 74 -3 78 5
33 6 -27 12 -72 16 -100z"/>
<path d="M2040 3469 c-57 -16 -83 -31 -127 -77 -26 -27 -43 -53 -43 -68 0 -13
-4 -24 -10 -24 -6 0 -10 29 -10 66 0 48 -3 65 -12 61 -9 -2 -13 -32 -14 -98
-1 -86 -14 -146 -44 -214 -35 -79 -45 -225 -16 -225 13 0 50 106 41 119 -3 5
-1 12 4 16 5 3 10 13 10 23 -1 110 63 237 156 311 22 18 114 51 141 51 40 0
49 -41 47 -201 -2 -147 -22 -268 -57 -344 -22 -47 -23 -69 -4 -73 12 -2 19 6
23 32 5 21 12 33 19 30 8 -3 17 15 25 53 7 32 17 67 21 78 5 11 13 40 20 65
55 215 56 354 3 412 -18 20 -111 24 -173 7z m152 -26 c31 -38 49 -103 28 -103
-5 0 -10 8 -10 18 0 29 -30 82 -46 82 -8 0 -12 5 -9 10 9 15 20 12 37 -7z
m-92 -4 c-19 -5 -48 -11 -64 -14 -16 -3 -33 -8 -38 -11 -4 -3 -8 0 -8 5 0 6 1
11 3 11 1 1 20 3 42 6 22 4 42 8 44 10 2 2 16 4 30 3 22 -1 21 -2 -9 -10z
m-146 -59 c-16 -16 -33 -30 -38 -30 -6 0 5 16 24 35 18 19 36 33 38 30 3 -3
-8 -18 -24 -35z m265 -103 c-2 -81 -17 -97 -18 -19 -1 47 3 71 9 67 6 -3 10
-25 9 -48z m-22 -144 c-3 -10 -5 -4 -5 12 0 17 2 24 5 18 2 -7 2 -21 0 -30z"/>
<path d="M2468 3463 c-1 -5 -2 -21 -3 -38 -1 -16 -2 -45 -3 -62 -1 -18 -7 -33
-13 -33 -6 0 -10 15 -9 33 3 47 1 59 -9 53 -4 -3 -11 -92 -14 -198 -4 -134
-10 -208 -21 -242 -17 -53 -22 -166 -7 -166 26 0 36 39 52 200 13 136 17 174
20 178 3 4 6 21 8 37 0 8 20 35 44 60 35 36 50 45 78 45 19 0 41 -6 50 -13 30
-22 41 -196 19 -292 -12 -53 -13 -205 -1 -205 15 0 24 20 27 59 3 40 21 142
35 208 5 23 9 80 9 126 l0 85 -42 34 c-82 66 -118 74 -166 33 -17 -14 -32 -25
-34 -25 -2 0 -2 29 0 65 3 44 1 65 -7 65 -6 0 -12 -3 -13 -7z m4 -181 c-14
-21 -17 -23 -20 -9 -4 21 16 49 29 41 5 -3 1 -17 -9 -32z m225 -49 c-3 -10 -5
-2 -5 17 0 19 2 27 5 18 2 -10 2 -26 0 -35z"/>
<path d="M2180 2594 c0 -14 -8 -16 -46 -10 -98 13 -477 18 -644 7 -156 -9
-177 -13 -192 -31 -9 -11 -22 -20 -30 -20 -9 1 -8 5 5 14 85 65 -172 -23 -288
-98 -126 -82 -165 -109 -186 -132 -22 -23 -49 -85 -49 -111 0 -7 -22 -60 -50
-117 -59 -124 -65 -174 -25 -246 13 -25 28 -55 34 -67 14 -29 64 -66 141 -101
101 -47 180 -72 226 -72 25 0 44 -5 47 -12 3 -10 9 -10 26 0 17 10 32 9 78 -2
185 -47 374 -66 634 -66 136 1 148 2 219 30 41 17 83 30 94 30 12 0 16 5 12
15 -3 8 -1 15 4 15 6 0 10 -4 10 -10 0 -19 29 -10 49 16 12 16 27 24 36 21 8
-4 17 -2 20 3 3 5 12 7 20 3 9 -3 15 1 15 11 0 9 -8 16 -20 16 -17 0 -10 14
40 89 33 48 60 93 60 98 0 6 9 18 19 27 20 18 27 46 40 166 5 41 13 88 20 103
6 16 11 77 11 137 0 102 -1 110 -26 140 -35 41 -106 89 -144 96 -17 4 -33 11
-36 15 -3 5 -14 9 -24 9 -29 0 -70 22 -70 37 0 7 -7 13 -15 13 -8 0 -15 -7
-15 -16z m-332 -48 c145 -8 266 -16 269 -19 3 -4 -9 -19 -28 -34 -39 -33 -52
-46 -281 -270 -97 -95 -182 -173 -190 -173 -13 0 -168 155 -311 311 -38 41
-76 82 -85 92 -9 9 -21 16 -26 14 -24 -8 -15 -37 22 -76 21 -22 50 -57 64 -77
15 -20 77 -90 138 -155 91 -98 107 -119 88 -118 -56 1 -697 -12 -731 -15 l-38
-4 7 36 c10 57 55 143 96 182 100 96 223 184 331 235 52 25 102 45 110 45 8 0
20 7 27 15 7 8 15 13 19 11 3 -2 29 0 56 4 77 11 177 10 463 -4z m-598 -3 c0
-5 -42 -26 -92 -48 -86 -37 -252 -148 -271 -181 -4 -8 -14 -14 -21 -14 -18 0
-76 -66 -76 -85 0 -8 -4 -15 -10 -15 -14 0 -13 11 9 53 30 58 50 77 140 132 9
6 43 27 75 49 50 33 216 114 239 115 4 1 7 -2 7 -6z m910 3 c0 -11 -19 -15
-25 -6 -3 5 1 10 9 10 9 0 16 -2 16 -4z m120 -26 c59 -16 112 -44 125 -67 6
-10 14 -21 20 -25 15 -11 33 -134 34 -229 l1 -86 -217 -8 c-288 -11 -440 -24
-505 -45 -16 -4 -28 -7 -28 -6 0 2 101 105 226 229 174 174 229 224 245 220
20 -5 27 11 9 22 -21 13 -9 23 18 15 15 -5 47 -14 72 -20z m210 -176 c0 -66
-15 -53 -26 22 -10 64 -9 65 8 44 11 -14 18 -39 18 -66z m-36 -266 c-6 -16
-424 -24 -424 -8 0 10 79 15 297 18 103 2 131 -1 127 -10z m-1724 -8 c0 -5 -2
-10 -4 -10 -3 0 -8 5 -11 10 -3 6 -1 10 4 10 6 0 11 -4 11 -10z m15 -160 c29
-32 5 -23 -26 10 -31 32 -36 62 -17 107 11 27 12 25 18 -35 4 -38 14 -70 25
-82z m896 84 c11 -13 9 -14 -14 -3 -21 9 -30 9 -42 -1 -12 -10 -18 -10 -32 1
-10 7 -19 14 -21 15 -2 1 1 12 7 23 l11 20 40 -20 c21 -11 44 -27 51 -35z
m527 36 c-14 -4 -140 -10 -280 -13 -189 -4 -227 -3 -148 4 58 4 116 10 130 12
52 8 325 5 298 -3z m236 -47 c-13 -32 -32 -76 -44 -98 -11 -21 -20 -48 -20
-60 0 -21 -60 -101 -106 -142 -24 -22 -74 -32 -74 -15 0 4 24 23 52 42 80 54
108 80 108 101 0 25 -16 24 -30 -1 -6 -11 -26 -30 -44 -43 -19 -12 -54 -36
-78 -54 -42 -30 -46 -31 -73 -17 -15 8 -35 14 -45 14 -10 0 -23 7 -30 15 -7 8
-19 15 -28 15 -13 0 -79 36 -92 49 -3 4 -32 26 -65 51 -33 24 -83 66 -112 92
l-52 48 92 1 c51 0 110 2 132 4 22 2 90 7 150 10 61 3 144 14 185 24 41 10
103 19 136 20 l62 1 -24 -57z m56 39 c0 -16 -39 -110 -64 -152 -32 -56 -34
-36 -2 28 13 26 29 66 36 90 7 23 17 42 22 42 4 0 8 -3 8 -8z m-1557 -39 c-7
-2 -19 -2 -25 0 -7 3 -2 5 12 5 14 0 19 -2 13 -5z m-63 -10 c-57 -9 -70 -14
-70 -29 0 -12 6 -15 23 -11 12 4 81 15 154 27 104 16 180 20 363 20 l231 0
-56 -47 c-31 -27 -82 -71 -113 -98 -124 -110 -178 -145 -221 -145 -77 0 -282
98 -336 162 -34 39 -61 82 -67 106 -6 21 -4 22 55 21 34 -1 51 -3 37 -6z m842
-69 c104 -101 240 -215 286 -237 46 -23 57 -43 17 -33 -14 4 -49 -2 -83 -14
-57 -20 -71 -20 -361 -12 -205 6 -305 12 -313 20 -19 19 0 27 64 27 40 0 63 4
65 13 3 8 -8 12 -36 12 -45 0 -55 14 -16 24 14 4 65 46 114 94 110 108 184
173 193 170 4 -2 36 -31 70 -64z m-815 -143 c12 -11 32 -23 44 -26 12 -4 32
-18 44 -31 12 -13 31 -25 41 -28 52 -10 109 -46 74 -46 -23 0 -137 44 -210 80
-70 35 -146 90 -125 90 4 0 1 8 -8 18 -15 16 -47 83 -47 98 0 5 108 -84 187
-155z m1185 -81 c7 0 20 -5 28 -10 13 -8 13 -11 1 -19 -9 -6 -25 -3 -47 9
-103 58 -146 101 -49 49 30 -16 60 -29 67 -29z m-812 10 c0 -5 -5 -10 -11 -10
-5 0 -7 5 -4 10 3 6 8 10 11 10 2 0 4 -4 4 -10z m-140 -22 c0 -13 -32 -6 -37
9 -3 7 3 9 16 6 12 -3 21 -10 21 -15z m40 -8 c0 -5 -7 -10 -16 -10 -8 0 -12 5
-9 10 3 6 10 10 16 10 5 0 9 -4 9 -10z m60 1 c0 -12 -20 -25 -27 -18 -7 7 6
27 18 27 5 0 9 -4 9 -9z m940 -7 c0 -3 -6 -12 -14 -19 -17 -17 -30 -7 -15 12
12 13 29 18 29 7z m24 -29 c-7 -17 -20 -20 -29 -6 -3 5 3 12 12 14 10 3 19 5
20 6 1 0 0 -6 -3 -14z m-64 -23 c0 -5 -27 -17 -60 -27 -54 -16 -86 -17 -316
-12 -141 4 -259 9 -263 13 -3 4 82 4 189 0 178 -6 200 -5 255 13 60 20 195 29
195 13z"/>
<path d="M1978 1193 c-3 -27 -20 -100 -38 -165 -29 -107 -34 -116 -58 -121
-78 -16 -157 -45 -160 -60 -4 -19 46 -31 113 -25 48 3 53 -2 30 -42 -8 -14
-15 -36 -15 -50 0 -14 -7 -33 -15 -43 -7 -11 -11 -25 -9 -32 3 -7 1 -16 -5
-20 -6 -3 -11 -14 -11 -23 0 -9 -7 -30 -15 -46 -23 -44 -19 -56 19 -56 38 0
38 0 76 130 64 214 59 204 96 208 15 2 37 10 48 18 11 8 31 14 43 14 25 0 67
35 59 49 -3 5 -25 5 -48 0 -24 -4 -60 -8 -80 -9 -45 0 -46 4 -18 105 23 84 27
215 6 215 -9 0 -15 -16 -18 -47z m-42 -337 c-29 -31 -32 -32 -47 -17 -9 9 -15
19 -12 24 2 4 -3 7 -12 7 -9 0 -13 -4 -10 -10 3 -6 -1 -7 -10 -4 -22 9 -10 17
28 20 18 1 38 11 47 22 13 17 17 18 31 6 14 -13 13 -18 -15 -48z m-96 -291
c-16 -42 -24 -22 -9 22 7 21 14 31 16 22 2 -8 -1 -28 -7 -44z"/>
<path d="M837 1213 c-4 -3 -7 -15 -7 -25 0 -26 -39 -82 -74 -106 -45 -30 -111
-49 -196 -56 -64 -5 -80 -3 -107 14 -18 11 -33 27 -33 35 0 20 -17 19 -29 -2
-5 -10 -13 -16 -18 -13 -4 3 -9 -5 -11 -16 -2 -15 6 -29 26 -43 16 -11 32 -18
35 -15 3 3 50 5 106 5 55 0 103 5 107 10 3 5 9 7 12 5 16 -9 114 33 147 63 19
17 37 31 40 31 8 0 6 -70 -4 -109 -5 -20 -15 -70 -22 -111 -24 -145 -86 -270
-134 -270 -8 0 -17 -5 -20 -10 -3 -5 -25 -10 -48 -10 -34 0 -46 5 -62 26 -11
15 -20 30 -20 35 0 4 -3 11 -8 15 -4 4 -7 27 -7 50 0 44 -16 67 -26 39 -4 -9
-13 -14 -20 -11 -17 7 -28 -11 -17 -27 6 -7 16 -28 23 -47 18 -47 58 -100 75
-100 8 0 18 -7 23 -17 7 -11 27 -18 63 -21 52 -4 56 -2 92 34 41 42 57 71 80
149 8 28 25 77 38 110 12 33 26 100 30 150 4 50 11 111 15 137 8 55 -1 92 -16
68 -7 -11 -10 -8 -10 13 0 26 -9 34 -23 20z m-407 -195 c0 -12 -14 -10 -28 4
-19 19 -14 29 8 16 11 -7 20 -16 20 -20z m270 -434 c0 -4 -8 -13 -17 -20 -21
-16 -63 -18 -63 -4 0 6 11 10 24 10 14 0 28 5 31 10 7 11 25 14 25 4z"/>
<path d="M2289 1196 c-48 -20 -59 -36 -59 -82 0 -36 3 -44 18 -44 25 0 59 41
71 87 13 45 5 54 -30 39z m-1 -58 c-8 -12 -20 -24 -27 -26 -9 -3 -7 5 4 22 10
14 22 26 27 26 6 0 4 -10 -4 -22z"/>
<path d="M1300 1101 c0 -31 -49 -213 -70 -256 -10 -22 -21 -51 -25 -65 -4 -14
-19 -46 -33 -73 -43 -84 -143 -121 -213 -80 -28 17 -29 21 -29 88 0 38 5 88
11 110 6 22 12 52 13 67 0 14 4 29 8 33 4 4 4 13 2 20 -3 7 1 38 9 69 9 32 11
58 6 62 -13 8 -31 -5 -23 -17 3 -6 0 -18 -8 -27 -8 -9 -21 -37 -29 -62 -7 -25
-23 -63 -35 -85 -26 -50 -38 -111 -24 -120 5 -3 14 4 19 17 5 14 6 -6 3 -56
-4 -64 -2 -80 11 -87 8 -5 18 -23 22 -39 l7 -30 74 0 c54 0 82 5 102 17 46 30
112 87 112 98 0 5 6 21 13 35 14 27 41 104 64 185 46 161 53 215 28 215 -8 0
-15 -9 -15 -19z m-399 -272 c-5 -13 -10 -19 -10 -12 -1 15 10 45 15 40 3 -2 0
-15 -5 -28z"/>
<path d="M1645 1089 c-114 -24 -163 -49 -226 -116 -44 -47 -50 -57 -47 -90 l3
-37 85 -19 c83 -18 152 -47 158 -65 5 -16 -86 -96 -156 -136 -37 -21 -91 -44
-121 -50 -50 -11 -83 -36 -47 -36 10 0 13 -6 10 -15 -4 -9 -1 -15 7 -15 15 0
197 90 232 115 12 8 27 15 35 15 23 0 82 51 98 85 8 18 14 48 12 67 -3 32 -4
33 -58 39 -30 4 -71 13 -90 22 -19 9 -46 18 -60 21 -14 3 -34 12 -45 19 -19
14 -19 16 9 51 37 48 101 77 239 107 31 7 57 16 57 21 0 4 7 8 16 8 19 0 13
24 -7 27 -8 1 -54 -7 -104 -18z m15 -317 c0 -28 -52 -102 -72 -102 -6 0 4 14
21 32 24 24 31 41 31 70 0 24 4 37 10 33 6 -3 10 -18 10 -33z"/>
<path d="M2600 1028 c-19 -5 -42 -16 -51 -24 -8 -8 -20 -14 -24 -14 -5 0 -19
-12 -32 -27 l-23 -28 7 35 c9 54 9 55 -6 55 -8 0 -15 -15 -17 -40 -2 -22 -17
-69 -34 -103 -16 -34 -30 -66 -30 -70 0 -7 -26 -61 -49 -102 -4 -8 -26 -52
-49 -97 l-41 -81 25 -6 c33 -9 36 -6 68 61 15 32 31 65 35 73 4 8 18 47 30 86
16 52 28 74 46 84 14 7 25 18 25 23 0 25 95 112 144 130 17 7 18 1 13 -90 -3
-74 -12 -121 -36 -191 -32 -96 -39 -146 -21 -157 6 -4 17 9 25 27 9 18 20 40
25 48 13 21 35 75 60 149 18 52 22 80 18 152 -6 119 -19 132 -108 107z m78
-87 l-1 -36 -4 35 c-3 19 -9 39 -14 45 -5 5 -9 14 -9 20 0 5 7 1 15 -9 8 -11
14 -36 13 -55z m-193 -31 c-10 -11 -21 -17 -24 -14 -3 3 3 12 13 20 28 20 32
17 11 -6z m204 -42 c-1 -33 -14 -64 -22 -51 -9 14 3 73 14 73 5 0 9 -10 8 -22z
m-19 -78 c0 -5 -4 -10 -10 -10 -5 0 -10 5 -10 10 0 6 5 10 10 10 6 0 10 -4 10
-10z m-363 -222 c-3 -8 -6 -5 -6 6 -1 11 2 17 5 13 3 -3 4 -12 1 -19z"/>
<path d="M2275 1015 c-3 -8 -8 -23 -12 -32 -3 -10 -8 -27 -9 -38 -2 -11 -5
-29 -6 -40 -5 -27 -38 -135 -49 -160 -6 -11 -11 -31 -13 -45 -2 -14 -6 -32 -8
-40 -3 -8 -12 -35 -19 -60 -7 -25 -19 -54 -26 -65 -7 -11 -13 -25 -13 -32 0
-19 30 -16 37 5 4 9 10 20 15 23 11 7 48 104 58 154 20 96 38 163 54 199 18
42 22 146 6 146 -6 0 -13 -7 -15 -15z"/>
</g>
</svg>
